%TF.GenerationSoftware,KiCad,Pcbnew,7.0.1*%
%TF.CreationDate,2023-05-03T11:58:28+03:00*%
%TF.ProjectId,damlama,64616d6c-616d-4612-9e6b-696361645f70,rev?*%
%TF.SameCoordinates,Original*%
%TF.FileFunction,Drillmap*%
%TF.FilePolarity,Positive*%
%FSLAX45Y45*%
G04 Gerber Fmt 4.5, Leading zero omitted, Abs format (unit mm)*
G04 Created by KiCad (PCBNEW 7.0.1) date 2023-05-03 11:58:28*
%MOMM*%
%LPD*%
G01*
G04 APERTURE LIST*
%ADD10C,0.050000*%
%ADD11C,0.200000*%
%ADD12C,0.030000*%
%ADD13C,0.090000*%
%ADD14C,0.100000*%
%ADD15C,0.129000*%
%ADD16C,0.132000*%
%ADD17C,0.140000*%
G04 APERTURE END LIST*
D10*
X17800000Y-14000000D02*
X8200000Y-14000000D01*
X17800000Y-14000000D02*
G75*
G03*
X18000000Y-13800000I0J200000D01*
G01*
X8000000Y-13800000D02*
X8000000Y-5700000D01*
X8200000Y-5500000D02*
G75*
G03*
X8000000Y-5700000I0J-200000D01*
G01*
X8200000Y-5500000D02*
X17800000Y-5500000D01*
X18000000Y-5700000D02*
X18000000Y-13800000D01*
X18000000Y-5700000D02*
G75*
G03*
X17800000Y-5500000I-200000J0D01*
G01*
X8000000Y-13800000D02*
G75*
G03*
X8200000Y-14000000I200000J0D01*
G01*
D11*
D12*
X8165000Y-10765000D02*
X8195000Y-10795000D01*
X8195000Y-10765000D02*
X8165000Y-10795000D01*
X8544800Y-11872200D02*
X8574800Y-11902200D01*
X8574800Y-11872200D02*
X8544800Y-11902200D01*
X9383000Y-6690600D02*
X9413000Y-6720600D01*
X9413000Y-6690600D02*
X9383000Y-6720600D01*
X9745000Y-8925000D02*
X9775000Y-8955000D01*
X9775000Y-8925000D02*
X9745000Y-8955000D01*
X10124920Y-8143393D02*
X10154920Y-8173393D01*
X10154920Y-8143393D02*
X10124920Y-8173393D01*
X10125000Y-8235000D02*
X10155000Y-8265000D01*
X10155000Y-8235000D02*
X10125000Y-8265000D01*
X10126317Y-8053683D02*
X10156317Y-8083683D01*
X10156317Y-8053683D02*
X10126317Y-8083683D01*
X10215000Y-6855600D02*
X10245000Y-6885600D01*
X10245000Y-6855600D02*
X10215000Y-6885600D01*
X10449800Y-11752550D02*
X10479800Y-11782550D01*
X10479800Y-11752550D02*
X10449800Y-11782550D01*
X10705000Y-9495000D02*
X10735000Y-9525000D01*
X10735000Y-9495000D02*
X10705000Y-9525000D01*
X10725000Y-8675000D02*
X10755000Y-8705000D01*
X10755000Y-8675000D02*
X10725000Y-8705000D01*
X10935000Y-7565000D02*
X10965000Y-7595000D01*
X10965000Y-7565000D02*
X10935000Y-7595000D01*
X11135600Y-11752550D02*
X11165600Y-11782550D01*
X11165600Y-11752550D02*
X11135600Y-11782550D01*
X11725000Y-8955000D02*
X11755000Y-8985000D01*
X11755000Y-8955000D02*
X11725000Y-8985000D01*
X11785000Y-8285000D02*
X11815000Y-8315000D01*
X11815000Y-8285000D02*
X11785000Y-8315000D01*
X11835000Y-9725000D02*
X11865000Y-9755000D01*
X11865000Y-9725000D02*
X11835000Y-9755000D01*
X11881938Y-6968161D02*
X11911938Y-6998161D01*
X11911938Y-6968161D02*
X11881938Y-6998161D01*
X11881938Y-7055050D02*
X11911938Y-7085050D01*
X11911938Y-7055050D02*
X11881938Y-7085050D01*
X11881938Y-7135000D02*
X11911938Y-7165000D01*
X11911938Y-7135000D02*
X11881938Y-7165000D01*
X11895000Y-8285000D02*
X11925000Y-8315000D01*
X11925000Y-8285000D02*
X11895000Y-8315000D01*
X11948400Y-7630400D02*
X11978400Y-7660400D01*
X11978400Y-7630400D02*
X11948400Y-7660400D01*
X12045000Y-9485000D02*
X12075000Y-9515000D01*
X12075000Y-9485000D02*
X12045000Y-9515000D01*
X12055000Y-8205000D02*
X12085000Y-8235000D01*
X12085000Y-8205000D02*
X12055000Y-8235000D01*
X12151600Y-7630400D02*
X12181600Y-7660400D01*
X12181600Y-7630400D02*
X12151600Y-7660400D01*
X12245000Y-7165000D02*
X12275000Y-7195000D01*
X12275000Y-7165000D02*
X12245000Y-7195000D01*
X12278600Y-12412950D02*
X12308600Y-12442950D01*
X12308600Y-12412950D02*
X12278600Y-12442950D01*
X12354800Y-7833600D02*
X12384800Y-7863600D01*
X12384800Y-7833600D02*
X12354800Y-7863600D01*
X12605000Y-8506950D02*
X12635000Y-8536950D01*
X12635000Y-8506950D02*
X12605000Y-8536950D01*
X12635000Y-9465000D02*
X12665000Y-9495000D01*
X12665000Y-9465000D02*
X12635000Y-9495000D01*
X12675000Y-7145000D02*
X12705000Y-7175000D01*
X12705000Y-7145000D02*
X12675000Y-7175000D01*
X12695000Y-8585000D02*
X12725000Y-8615000D01*
X12725000Y-8585000D02*
X12695000Y-8615000D01*
X12835000Y-7045000D02*
X12865000Y-7075000D01*
X12865000Y-7045000D02*
X12835000Y-7075000D01*
X12964400Y-11752550D02*
X12994400Y-11782550D01*
X12994400Y-11752550D02*
X12964400Y-11782550D01*
X13185000Y-9985000D02*
X13215000Y-10015000D01*
X13215000Y-9985000D02*
X13185000Y-10015000D01*
X13701000Y-11752550D02*
X13731000Y-11782550D01*
X13731000Y-11752550D02*
X13701000Y-11782550D01*
X13751800Y-12412950D02*
X13781800Y-12442950D01*
X13781800Y-12412950D02*
X13751800Y-12442950D01*
X14885000Y-11985000D02*
X14915000Y-12015000D01*
X14915000Y-11985000D02*
X14885000Y-12015000D01*
D10*
X13586000Y-8337400D02*
G75*
G03*
X13586000Y-8337400I-25000J0D01*
G01*
X13586000Y-8527400D02*
G75*
G03*
X13586000Y-8527400I-25000J0D01*
G01*
D13*
X11600000Y-6227500D02*
X11600000Y-6317500D01*
X11555000Y-6272500D02*
X11645000Y-6272500D01*
X11600000Y-6481500D02*
X11600000Y-6571500D01*
X11555000Y-6526500D02*
X11645000Y-6526500D01*
X12086667Y-6227500D02*
X12086667Y-6317500D01*
X12041667Y-6272500D02*
X12131667Y-6272500D01*
X12086667Y-6481500D02*
X12086667Y-6571500D01*
X12041667Y-6526500D02*
X12131667Y-6526500D01*
X12573333Y-6227500D02*
X12573333Y-6317500D01*
X12528333Y-6272500D02*
X12618333Y-6272500D01*
X12573333Y-6481500D02*
X12573333Y-6571500D01*
X12528333Y-6526500D02*
X12618333Y-6526500D01*
X13060000Y-6227500D02*
X13060000Y-6317500D01*
X13015000Y-6272500D02*
X13105000Y-6272500D01*
X13060000Y-6481500D02*
X13060000Y-6571500D01*
X13015000Y-6526500D02*
X13105000Y-6526500D01*
X13906000Y-6105000D02*
X13906000Y-6195000D01*
X13861000Y-6150000D02*
X13951000Y-6150000D01*
X13906000Y-6359000D02*
X13906000Y-6449000D01*
X13861000Y-6404000D02*
X13951000Y-6404000D01*
X13906000Y-6613000D02*
X13906000Y-6703000D01*
X13861000Y-6658000D02*
X13951000Y-6658000D01*
X13906000Y-6867000D02*
X13906000Y-6957000D01*
X13861000Y-6912000D02*
X13951000Y-6912000D01*
X13906000Y-7121000D02*
X13906000Y-7211000D01*
X13861000Y-7166000D02*
X13951000Y-7166000D01*
X13906000Y-7375000D02*
X13906000Y-7465000D01*
X13861000Y-7420000D02*
X13951000Y-7420000D01*
X16093000Y-6359000D02*
X16093000Y-6449000D01*
X16048000Y-6404000D02*
X16138000Y-6404000D01*
X16093000Y-6613000D02*
X16093000Y-6703000D01*
X16048000Y-6658000D02*
X16138000Y-6658000D01*
X16093000Y-6867000D02*
X16093000Y-6957000D01*
X16048000Y-6912000D02*
X16138000Y-6912000D01*
X16093000Y-7121000D02*
X16093000Y-7211000D01*
X16048000Y-7166000D02*
X16138000Y-7166000D01*
X16093000Y-7375000D02*
X16093000Y-7465000D01*
X16048000Y-7420000D02*
X16138000Y-7420000D01*
X16093000Y-7629000D02*
X16093000Y-7719000D01*
X16048000Y-7674000D02*
X16138000Y-7674000D01*
D14*
X10550956Y-9153956D02*
X10550956Y-9083244D01*
X10480244Y-9083244D01*
X10480244Y-9153956D01*
X10550956Y-9153956D01*
X10804956Y-9153956D02*
X10804956Y-9083244D01*
X10734244Y-9083244D01*
X10734244Y-9153956D01*
X10804956Y-9153956D01*
X11058956Y-9153956D02*
X11058956Y-9083244D01*
X10988244Y-9083244D01*
X10988244Y-9153956D01*
X11058956Y-9153956D01*
X11312956Y-9153956D02*
X11312956Y-9083244D01*
X11242244Y-9083244D01*
X11242244Y-9153956D01*
X11312956Y-9153956D01*
X16855356Y-12655356D02*
X16855356Y-12584644D01*
X16784644Y-12584644D01*
X16784644Y-12655356D01*
X16855356Y-12655356D01*
D11*
X16770000Y-12495000D02*
X16770000Y-12745000D01*
X16770000Y-12745000D02*
G75*
G03*
X16870000Y-12745000I50000J0D01*
G01*
X16870000Y-12745000D02*
X16870000Y-12495000D01*
X16870000Y-12495000D02*
G75*
G03*
X16770000Y-12495000I-50000J0D01*
G01*
D14*
X17155356Y-12185356D02*
X17155356Y-12114644D01*
X17084644Y-12114644D01*
X17084644Y-12185356D01*
X17155356Y-12185356D01*
D11*
X17020000Y-12200000D02*
X17220000Y-12200000D01*
X17220000Y-12200000D02*
G75*
G03*
X17220000Y-12100000I0J50000D01*
G01*
X17220000Y-12100000D02*
X17020000Y-12100000D01*
X17020000Y-12100000D02*
G75*
G03*
X17020000Y-12200000I0J-50000D01*
G01*
D14*
X17455356Y-12655356D02*
X17455356Y-12584644D01*
X17384644Y-12584644D01*
X17384644Y-12655356D01*
X17455356Y-12655356D01*
D11*
X17370000Y-12520000D02*
X17370000Y-12720000D01*
X17370000Y-12720000D02*
G75*
G03*
X17470000Y-12720000I50000J0D01*
G01*
X17470000Y-12720000D02*
X17470000Y-12520000D01*
X17470000Y-12520000D02*
G75*
G03*
X17370000Y-12520000I-50000J0D01*
G01*
D15*
X14811000Y-9176750D02*
X14875500Y-9112250D01*
X14811000Y-9047750D01*
X14746500Y-9112250D01*
X14811000Y-9176750D01*
D16*
X14945000Y-8446250D02*
X15077000Y-8578250D01*
X15077000Y-8446250D02*
X14945000Y-8578250D01*
X15077000Y-8512250D02*
G75*
G03*
X15077000Y-8512250I-66000J0D01*
G01*
X14945000Y-9646250D02*
X15077000Y-9778250D01*
X15077000Y-9646250D02*
X14945000Y-9778250D01*
X15077000Y-9712250D02*
G75*
G03*
X15077000Y-9712250I-66000J0D01*
G01*
X16165000Y-8446250D02*
X16297000Y-8578250D01*
X16297000Y-8446250D02*
X16165000Y-8578250D01*
X16297000Y-8512250D02*
G75*
G03*
X16297000Y-8512250I-66000J0D01*
G01*
X16165000Y-9646250D02*
X16297000Y-9778250D01*
X16297000Y-9646250D02*
X16165000Y-9778250D01*
X16297000Y-9712250D02*
G75*
G03*
X16297000Y-9712250I-66000J0D01*
G01*
D17*
X17070000Y-7524000D02*
X17210000Y-7664000D01*
X17210000Y-7524000D02*
X17070000Y-7664000D01*
X17140000Y-7524000D02*
X17140000Y-7664000D01*
X17070000Y-7594000D02*
X17210000Y-7594000D01*
X17070000Y-8032000D02*
X17210000Y-8172000D01*
X17210000Y-8032000D02*
X17070000Y-8172000D01*
X17140000Y-8032000D02*
X17140000Y-8172000D01*
X17070000Y-8102000D02*
X17210000Y-8102000D01*
X17070000Y-8540000D02*
X17210000Y-8680000D01*
X17210000Y-8540000D02*
X17070000Y-8680000D01*
X17140000Y-8540000D02*
X17140000Y-8680000D01*
X17070000Y-8610000D02*
X17210000Y-8610000D01*
X17072250Y-9504000D02*
X17212250Y-9644000D01*
X17212250Y-9504000D02*
X17072250Y-9644000D01*
X17142250Y-9504000D02*
X17142250Y-9644000D01*
X17072250Y-9574000D02*
X17212250Y-9574000D01*
X17072250Y-10012000D02*
X17212250Y-10152000D01*
X17212250Y-10012000D02*
X17072250Y-10152000D01*
X17142250Y-10012000D02*
X17142250Y-10152000D01*
X17072250Y-10082000D02*
X17212250Y-10082000D01*
X17072250Y-10520000D02*
X17212250Y-10660000D01*
X17212250Y-10520000D02*
X17072250Y-10660000D01*
X17142250Y-10520000D02*
X17142250Y-10660000D01*
X17072250Y-10590000D02*
X17212250Y-10590000D01*
D11*
X8245119Y-14315024D02*
X8245119Y-14115024D01*
X8245119Y-14115024D02*
X8292738Y-14115024D01*
X8292738Y-14115024D02*
X8321309Y-14124548D01*
X8321309Y-14124548D02*
X8340357Y-14143595D01*
X8340357Y-14143595D02*
X8349881Y-14162643D01*
X8349881Y-14162643D02*
X8359405Y-14200738D01*
X8359405Y-14200738D02*
X8359405Y-14229309D01*
X8359405Y-14229309D02*
X8349881Y-14267405D01*
X8349881Y-14267405D02*
X8340357Y-14286452D01*
X8340357Y-14286452D02*
X8321309Y-14305500D01*
X8321309Y-14305500D02*
X8292738Y-14315024D01*
X8292738Y-14315024D02*
X8245119Y-14315024D01*
X8445119Y-14315024D02*
X8445119Y-14181690D01*
X8445119Y-14219786D02*
X8454643Y-14200738D01*
X8454643Y-14200738D02*
X8464167Y-14191214D01*
X8464167Y-14191214D02*
X8483214Y-14181690D01*
X8483214Y-14181690D02*
X8502262Y-14181690D01*
X8568929Y-14315024D02*
X8568929Y-14181690D01*
X8568929Y-14115024D02*
X8559405Y-14124548D01*
X8559405Y-14124548D02*
X8568929Y-14134071D01*
X8568929Y-14134071D02*
X8578452Y-14124548D01*
X8578452Y-14124548D02*
X8568929Y-14115024D01*
X8568929Y-14115024D02*
X8568929Y-14134071D01*
X8692738Y-14315024D02*
X8673690Y-14305500D01*
X8673690Y-14305500D02*
X8664167Y-14286452D01*
X8664167Y-14286452D02*
X8664167Y-14115024D01*
X8797500Y-14315024D02*
X8778452Y-14305500D01*
X8778452Y-14305500D02*
X8768929Y-14286452D01*
X8768929Y-14286452D02*
X8768929Y-14115024D01*
X9026071Y-14315024D02*
X9026071Y-14115024D01*
X9026071Y-14115024D02*
X9092738Y-14257881D01*
X9092738Y-14257881D02*
X9159405Y-14115024D01*
X9159405Y-14115024D02*
X9159405Y-14315024D01*
X9340357Y-14315024D02*
X9340357Y-14210262D01*
X9340357Y-14210262D02*
X9330833Y-14191214D01*
X9330833Y-14191214D02*
X9311786Y-14181690D01*
X9311786Y-14181690D02*
X9273690Y-14181690D01*
X9273690Y-14181690D02*
X9254643Y-14191214D01*
X9340357Y-14305500D02*
X9321310Y-14315024D01*
X9321310Y-14315024D02*
X9273690Y-14315024D01*
X9273690Y-14315024D02*
X9254643Y-14305500D01*
X9254643Y-14305500D02*
X9245119Y-14286452D01*
X9245119Y-14286452D02*
X9245119Y-14267405D01*
X9245119Y-14267405D02*
X9254643Y-14248357D01*
X9254643Y-14248357D02*
X9273690Y-14238833D01*
X9273690Y-14238833D02*
X9321310Y-14238833D01*
X9321310Y-14238833D02*
X9340357Y-14229309D01*
X9435595Y-14181690D02*
X9435595Y-14381690D01*
X9435595Y-14191214D02*
X9454643Y-14181690D01*
X9454643Y-14181690D02*
X9492738Y-14181690D01*
X9492738Y-14181690D02*
X9511786Y-14191214D01*
X9511786Y-14191214D02*
X9521310Y-14200738D01*
X9521310Y-14200738D02*
X9530833Y-14219786D01*
X9530833Y-14219786D02*
X9530833Y-14276928D01*
X9530833Y-14276928D02*
X9521310Y-14295976D01*
X9521310Y-14295976D02*
X9511786Y-14305500D01*
X9511786Y-14305500D02*
X9492738Y-14315024D01*
X9492738Y-14315024D02*
X9454643Y-14315024D01*
X9454643Y-14315024D02*
X9435595Y-14305500D01*
X9616548Y-14295976D02*
X9626071Y-14305500D01*
X9626071Y-14305500D02*
X9616548Y-14315024D01*
X9616548Y-14315024D02*
X9607024Y-14305500D01*
X9607024Y-14305500D02*
X9616548Y-14295976D01*
X9616548Y-14295976D02*
X9616548Y-14315024D01*
X9616548Y-14191214D02*
X9626071Y-14200738D01*
X9626071Y-14200738D02*
X9616548Y-14210262D01*
X9616548Y-14210262D02*
X9607024Y-14200738D01*
X9607024Y-14200738D02*
X9616548Y-14191214D01*
X9616548Y-14191214D02*
X9616548Y-14210262D01*
D12*
X7967500Y-14627500D02*
X7997500Y-14657500D01*
X7997500Y-14627500D02*
X7967500Y-14657500D01*
D11*
X8283214Y-14535024D02*
X8302262Y-14535024D01*
X8302262Y-14535024D02*
X8321309Y-14544548D01*
X8321309Y-14544548D02*
X8330833Y-14554071D01*
X8330833Y-14554071D02*
X8340357Y-14573119D01*
X8340357Y-14573119D02*
X8349881Y-14611214D01*
X8349881Y-14611214D02*
X8349881Y-14658833D01*
X8349881Y-14658833D02*
X8340357Y-14696928D01*
X8340357Y-14696928D02*
X8330833Y-14715976D01*
X8330833Y-14715976D02*
X8321309Y-14725500D01*
X8321309Y-14725500D02*
X8302262Y-14735024D01*
X8302262Y-14735024D02*
X8283214Y-14735024D01*
X8283214Y-14735024D02*
X8264167Y-14725500D01*
X8264167Y-14725500D02*
X8254643Y-14715976D01*
X8254643Y-14715976D02*
X8245119Y-14696928D01*
X8245119Y-14696928D02*
X8235595Y-14658833D01*
X8235595Y-14658833D02*
X8235595Y-14611214D01*
X8235595Y-14611214D02*
X8245119Y-14573119D01*
X8245119Y-14573119D02*
X8254643Y-14554071D01*
X8254643Y-14554071D02*
X8264167Y-14544548D01*
X8264167Y-14544548D02*
X8283214Y-14535024D01*
X8435595Y-14715976D02*
X8445119Y-14725500D01*
X8445119Y-14725500D02*
X8435595Y-14735024D01*
X8435595Y-14735024D02*
X8426071Y-14725500D01*
X8426071Y-14725500D02*
X8435595Y-14715976D01*
X8435595Y-14715976D02*
X8435595Y-14735024D01*
X8511786Y-14535024D02*
X8635595Y-14535024D01*
X8635595Y-14535024D02*
X8568929Y-14611214D01*
X8568929Y-14611214D02*
X8597500Y-14611214D01*
X8597500Y-14611214D02*
X8616548Y-14620738D01*
X8616548Y-14620738D02*
X8626071Y-14630262D01*
X8626071Y-14630262D02*
X8635595Y-14649309D01*
X8635595Y-14649309D02*
X8635595Y-14696928D01*
X8635595Y-14696928D02*
X8626071Y-14715976D01*
X8626071Y-14715976D02*
X8616548Y-14725500D01*
X8616548Y-14725500D02*
X8597500Y-14735024D01*
X8597500Y-14735024D02*
X8540357Y-14735024D01*
X8540357Y-14735024D02*
X8521310Y-14725500D01*
X8521310Y-14725500D02*
X8511786Y-14715976D01*
X8759405Y-14535024D02*
X8778452Y-14535024D01*
X8778452Y-14535024D02*
X8797500Y-14544548D01*
X8797500Y-14544548D02*
X8807024Y-14554071D01*
X8807024Y-14554071D02*
X8816548Y-14573119D01*
X8816548Y-14573119D02*
X8826071Y-14611214D01*
X8826071Y-14611214D02*
X8826071Y-14658833D01*
X8826071Y-14658833D02*
X8816548Y-14696928D01*
X8816548Y-14696928D02*
X8807024Y-14715976D01*
X8807024Y-14715976D02*
X8797500Y-14725500D01*
X8797500Y-14725500D02*
X8778452Y-14735024D01*
X8778452Y-14735024D02*
X8759405Y-14735024D01*
X8759405Y-14735024D02*
X8740357Y-14725500D01*
X8740357Y-14725500D02*
X8730833Y-14715976D01*
X8730833Y-14715976D02*
X8721310Y-14696928D01*
X8721310Y-14696928D02*
X8711786Y-14658833D01*
X8711786Y-14658833D02*
X8711786Y-14611214D01*
X8711786Y-14611214D02*
X8721310Y-14573119D01*
X8721310Y-14573119D02*
X8730833Y-14554071D01*
X8730833Y-14554071D02*
X8740357Y-14544548D01*
X8740357Y-14544548D02*
X8759405Y-14535024D01*
X8949881Y-14535024D02*
X8968929Y-14535024D01*
X8968929Y-14535024D02*
X8987976Y-14544548D01*
X8987976Y-14544548D02*
X8997500Y-14554071D01*
X8997500Y-14554071D02*
X9007024Y-14573119D01*
X9007024Y-14573119D02*
X9016548Y-14611214D01*
X9016548Y-14611214D02*
X9016548Y-14658833D01*
X9016548Y-14658833D02*
X9007024Y-14696928D01*
X9007024Y-14696928D02*
X8997500Y-14715976D01*
X8997500Y-14715976D02*
X8987976Y-14725500D01*
X8987976Y-14725500D02*
X8968929Y-14735024D01*
X8968929Y-14735024D02*
X8949881Y-14735024D01*
X8949881Y-14735024D02*
X8930833Y-14725500D01*
X8930833Y-14725500D02*
X8921310Y-14715976D01*
X8921310Y-14715976D02*
X8911786Y-14696928D01*
X8911786Y-14696928D02*
X8902262Y-14658833D01*
X8902262Y-14658833D02*
X8902262Y-14611214D01*
X8902262Y-14611214D02*
X8911786Y-14573119D01*
X8911786Y-14573119D02*
X8921310Y-14554071D01*
X8921310Y-14554071D02*
X8930833Y-14544548D01*
X8930833Y-14544548D02*
X8949881Y-14535024D01*
X9102262Y-14735024D02*
X9102262Y-14601690D01*
X9102262Y-14620738D02*
X9111786Y-14611214D01*
X9111786Y-14611214D02*
X9130833Y-14601690D01*
X9130833Y-14601690D02*
X9159405Y-14601690D01*
X9159405Y-14601690D02*
X9178452Y-14611214D01*
X9178452Y-14611214D02*
X9187976Y-14630262D01*
X9187976Y-14630262D02*
X9187976Y-14735024D01*
X9187976Y-14630262D02*
X9197500Y-14611214D01*
X9197500Y-14611214D02*
X9216548Y-14601690D01*
X9216548Y-14601690D02*
X9245119Y-14601690D01*
X9245119Y-14601690D02*
X9264167Y-14611214D01*
X9264167Y-14611214D02*
X9273691Y-14630262D01*
X9273691Y-14630262D02*
X9273691Y-14735024D01*
X9368929Y-14735024D02*
X9368929Y-14601690D01*
X9368929Y-14620738D02*
X9378452Y-14611214D01*
X9378452Y-14611214D02*
X9397500Y-14601690D01*
X9397500Y-14601690D02*
X9426072Y-14601690D01*
X9426072Y-14601690D02*
X9445119Y-14611214D01*
X9445119Y-14611214D02*
X9454643Y-14630262D01*
X9454643Y-14630262D02*
X9454643Y-14735024D01*
X9454643Y-14630262D02*
X9464167Y-14611214D01*
X9464167Y-14611214D02*
X9483214Y-14601690D01*
X9483214Y-14601690D02*
X9511786Y-14601690D01*
X9511786Y-14601690D02*
X9530833Y-14611214D01*
X9530833Y-14611214D02*
X9540357Y-14630262D01*
X9540357Y-14630262D02*
X9540357Y-14735024D01*
X9930833Y-14525500D02*
X9759405Y-14782643D01*
X10187976Y-14535024D02*
X10207024Y-14535024D01*
X10207024Y-14535024D02*
X10226072Y-14544548D01*
X10226072Y-14544548D02*
X10235595Y-14554071D01*
X10235595Y-14554071D02*
X10245119Y-14573119D01*
X10245119Y-14573119D02*
X10254643Y-14611214D01*
X10254643Y-14611214D02*
X10254643Y-14658833D01*
X10254643Y-14658833D02*
X10245119Y-14696928D01*
X10245119Y-14696928D02*
X10235595Y-14715976D01*
X10235595Y-14715976D02*
X10226072Y-14725500D01*
X10226072Y-14725500D02*
X10207024Y-14735024D01*
X10207024Y-14735024D02*
X10187976Y-14735024D01*
X10187976Y-14735024D02*
X10168929Y-14725500D01*
X10168929Y-14725500D02*
X10159405Y-14715976D01*
X10159405Y-14715976D02*
X10149881Y-14696928D01*
X10149881Y-14696928D02*
X10140357Y-14658833D01*
X10140357Y-14658833D02*
X10140357Y-14611214D01*
X10140357Y-14611214D02*
X10149881Y-14573119D01*
X10149881Y-14573119D02*
X10159405Y-14554071D01*
X10159405Y-14554071D02*
X10168929Y-14544548D01*
X10168929Y-14544548D02*
X10187976Y-14535024D01*
X10340357Y-14715976D02*
X10349881Y-14725500D01*
X10349881Y-14725500D02*
X10340357Y-14735024D01*
X10340357Y-14735024D02*
X10330834Y-14725500D01*
X10330834Y-14725500D02*
X10340357Y-14715976D01*
X10340357Y-14715976D02*
X10340357Y-14735024D01*
X10473691Y-14535024D02*
X10492738Y-14535024D01*
X10492738Y-14535024D02*
X10511786Y-14544548D01*
X10511786Y-14544548D02*
X10521310Y-14554071D01*
X10521310Y-14554071D02*
X10530834Y-14573119D01*
X10530834Y-14573119D02*
X10540357Y-14611214D01*
X10540357Y-14611214D02*
X10540357Y-14658833D01*
X10540357Y-14658833D02*
X10530834Y-14696928D01*
X10530834Y-14696928D02*
X10521310Y-14715976D01*
X10521310Y-14715976D02*
X10511786Y-14725500D01*
X10511786Y-14725500D02*
X10492738Y-14735024D01*
X10492738Y-14735024D02*
X10473691Y-14735024D01*
X10473691Y-14735024D02*
X10454643Y-14725500D01*
X10454643Y-14725500D02*
X10445119Y-14715976D01*
X10445119Y-14715976D02*
X10435595Y-14696928D01*
X10435595Y-14696928D02*
X10426072Y-14658833D01*
X10426072Y-14658833D02*
X10426072Y-14611214D01*
X10426072Y-14611214D02*
X10435595Y-14573119D01*
X10435595Y-14573119D02*
X10445119Y-14554071D01*
X10445119Y-14554071D02*
X10454643Y-14544548D01*
X10454643Y-14544548D02*
X10473691Y-14535024D01*
X10730834Y-14735024D02*
X10616548Y-14735024D01*
X10673691Y-14735024D02*
X10673691Y-14535024D01*
X10673691Y-14535024D02*
X10654643Y-14563595D01*
X10654643Y-14563595D02*
X10635595Y-14582643D01*
X10635595Y-14582643D02*
X10616548Y-14592167D01*
X10921310Y-14735024D02*
X10807024Y-14735024D01*
X10864167Y-14735024D02*
X10864167Y-14535024D01*
X10864167Y-14535024D02*
X10845119Y-14563595D01*
X10845119Y-14563595D02*
X10826072Y-14582643D01*
X10826072Y-14582643D02*
X10807024Y-14592167D01*
X11035595Y-14620738D02*
X11016548Y-14611214D01*
X11016548Y-14611214D02*
X11007024Y-14601690D01*
X11007024Y-14601690D02*
X10997500Y-14582643D01*
X10997500Y-14582643D02*
X10997500Y-14573119D01*
X10997500Y-14573119D02*
X11007024Y-14554071D01*
X11007024Y-14554071D02*
X11016548Y-14544548D01*
X11016548Y-14544548D02*
X11035595Y-14535024D01*
X11035595Y-14535024D02*
X11073691Y-14535024D01*
X11073691Y-14535024D02*
X11092738Y-14544548D01*
X11092738Y-14544548D02*
X11102262Y-14554071D01*
X11102262Y-14554071D02*
X11111786Y-14573119D01*
X11111786Y-14573119D02*
X11111786Y-14582643D01*
X11111786Y-14582643D02*
X11102262Y-14601690D01*
X11102262Y-14601690D02*
X11092738Y-14611214D01*
X11092738Y-14611214D02*
X11073691Y-14620738D01*
X11073691Y-14620738D02*
X11035595Y-14620738D01*
X11035595Y-14620738D02*
X11016548Y-14630262D01*
X11016548Y-14630262D02*
X11007024Y-14639786D01*
X11007024Y-14639786D02*
X10997500Y-14658833D01*
X10997500Y-14658833D02*
X10997500Y-14696928D01*
X10997500Y-14696928D02*
X11007024Y-14715976D01*
X11007024Y-14715976D02*
X11016548Y-14725500D01*
X11016548Y-14725500D02*
X11035595Y-14735024D01*
X11035595Y-14735024D02*
X11073691Y-14735024D01*
X11073691Y-14735024D02*
X11092738Y-14725500D01*
X11092738Y-14725500D02*
X11102262Y-14715976D01*
X11102262Y-14715976D02*
X11111786Y-14696928D01*
X11111786Y-14696928D02*
X11111786Y-14658833D01*
X11111786Y-14658833D02*
X11102262Y-14639786D01*
X11102262Y-14639786D02*
X11092738Y-14630262D01*
X11092738Y-14630262D02*
X11073691Y-14620738D01*
X11187976Y-14535024D02*
X11187976Y-14573119D01*
X11264167Y-14535024D02*
X11264167Y-14573119D01*
X11559405Y-14811214D02*
X11549881Y-14801690D01*
X11549881Y-14801690D02*
X11530834Y-14773119D01*
X11530834Y-14773119D02*
X11521310Y-14754071D01*
X11521310Y-14754071D02*
X11511786Y-14725500D01*
X11511786Y-14725500D02*
X11502262Y-14677881D01*
X11502262Y-14677881D02*
X11502262Y-14639786D01*
X11502262Y-14639786D02*
X11511786Y-14592167D01*
X11511786Y-14592167D02*
X11521310Y-14563595D01*
X11521310Y-14563595D02*
X11530834Y-14544548D01*
X11530834Y-14544548D02*
X11549881Y-14515976D01*
X11549881Y-14515976D02*
X11559405Y-14506452D01*
X11616548Y-14535024D02*
X11740357Y-14535024D01*
X11740357Y-14535024D02*
X11673691Y-14611214D01*
X11673691Y-14611214D02*
X11702262Y-14611214D01*
X11702262Y-14611214D02*
X11721310Y-14620738D01*
X11721310Y-14620738D02*
X11730834Y-14630262D01*
X11730834Y-14630262D02*
X11740357Y-14649309D01*
X11740357Y-14649309D02*
X11740357Y-14696928D01*
X11740357Y-14696928D02*
X11730834Y-14715976D01*
X11730834Y-14715976D02*
X11721310Y-14725500D01*
X11721310Y-14725500D02*
X11702262Y-14735024D01*
X11702262Y-14735024D02*
X11645119Y-14735024D01*
X11645119Y-14735024D02*
X11626072Y-14725500D01*
X11626072Y-14725500D02*
X11616548Y-14715976D01*
X11807024Y-14535024D02*
X11940357Y-14535024D01*
X11940357Y-14535024D02*
X11854643Y-14735024D01*
X12168929Y-14735024D02*
X12168929Y-14535024D01*
X12254643Y-14735024D02*
X12254643Y-14630262D01*
X12254643Y-14630262D02*
X12245119Y-14611214D01*
X12245119Y-14611214D02*
X12226072Y-14601690D01*
X12226072Y-14601690D02*
X12197500Y-14601690D01*
X12197500Y-14601690D02*
X12178453Y-14611214D01*
X12178453Y-14611214D02*
X12168929Y-14620738D01*
X12378453Y-14735024D02*
X12359405Y-14725500D01*
X12359405Y-14725500D02*
X12349881Y-14715976D01*
X12349881Y-14715976D02*
X12340357Y-14696928D01*
X12340357Y-14696928D02*
X12340357Y-14639786D01*
X12340357Y-14639786D02*
X12349881Y-14620738D01*
X12349881Y-14620738D02*
X12359405Y-14611214D01*
X12359405Y-14611214D02*
X12378453Y-14601690D01*
X12378453Y-14601690D02*
X12407024Y-14601690D01*
X12407024Y-14601690D02*
X12426072Y-14611214D01*
X12426072Y-14611214D02*
X12435596Y-14620738D01*
X12435596Y-14620738D02*
X12445119Y-14639786D01*
X12445119Y-14639786D02*
X12445119Y-14696928D01*
X12445119Y-14696928D02*
X12435596Y-14715976D01*
X12435596Y-14715976D02*
X12426072Y-14725500D01*
X12426072Y-14725500D02*
X12407024Y-14735024D01*
X12407024Y-14735024D02*
X12378453Y-14735024D01*
X12559405Y-14735024D02*
X12540357Y-14725500D01*
X12540357Y-14725500D02*
X12530834Y-14706452D01*
X12530834Y-14706452D02*
X12530834Y-14535024D01*
X12711786Y-14725500D02*
X12692738Y-14735024D01*
X12692738Y-14735024D02*
X12654643Y-14735024D01*
X12654643Y-14735024D02*
X12635596Y-14725500D01*
X12635596Y-14725500D02*
X12626072Y-14706452D01*
X12626072Y-14706452D02*
X12626072Y-14630262D01*
X12626072Y-14630262D02*
X12635596Y-14611214D01*
X12635596Y-14611214D02*
X12654643Y-14601690D01*
X12654643Y-14601690D02*
X12692738Y-14601690D01*
X12692738Y-14601690D02*
X12711786Y-14611214D01*
X12711786Y-14611214D02*
X12721310Y-14630262D01*
X12721310Y-14630262D02*
X12721310Y-14649309D01*
X12721310Y-14649309D02*
X12626072Y-14668357D01*
X12797500Y-14725500D02*
X12816548Y-14735024D01*
X12816548Y-14735024D02*
X12854643Y-14735024D01*
X12854643Y-14735024D02*
X12873691Y-14725500D01*
X12873691Y-14725500D02*
X12883215Y-14706452D01*
X12883215Y-14706452D02*
X12883215Y-14696928D01*
X12883215Y-14696928D02*
X12873691Y-14677881D01*
X12873691Y-14677881D02*
X12854643Y-14668357D01*
X12854643Y-14668357D02*
X12826072Y-14668357D01*
X12826072Y-14668357D02*
X12807024Y-14658833D01*
X12807024Y-14658833D02*
X12797500Y-14639786D01*
X12797500Y-14639786D02*
X12797500Y-14630262D01*
X12797500Y-14630262D02*
X12807024Y-14611214D01*
X12807024Y-14611214D02*
X12826072Y-14601690D01*
X12826072Y-14601690D02*
X12854643Y-14601690D01*
X12854643Y-14601690D02*
X12873691Y-14611214D01*
X12949881Y-14811214D02*
X12959405Y-14801690D01*
X12959405Y-14801690D02*
X12978453Y-14773119D01*
X12978453Y-14773119D02*
X12987977Y-14754071D01*
X12987977Y-14754071D02*
X12997500Y-14725500D01*
X12997500Y-14725500D02*
X13007024Y-14677881D01*
X13007024Y-14677881D02*
X13007024Y-14639786D01*
X13007024Y-14639786D02*
X12997500Y-14592167D01*
X12997500Y-14592167D02*
X12987977Y-14563595D01*
X12987977Y-14563595D02*
X12978453Y-14544548D01*
X12978453Y-14544548D02*
X12959405Y-14515976D01*
X12959405Y-14515976D02*
X12949881Y-14506452D01*
D10*
X7997500Y-14906500D02*
G75*
G03*
X7997500Y-14906500I-25000J0D01*
G01*
D11*
X8283214Y-14799024D02*
X8302262Y-14799024D01*
X8302262Y-14799024D02*
X8321309Y-14808548D01*
X8321309Y-14808548D02*
X8330833Y-14818071D01*
X8330833Y-14818071D02*
X8340357Y-14837119D01*
X8340357Y-14837119D02*
X8349881Y-14875214D01*
X8349881Y-14875214D02*
X8349881Y-14922833D01*
X8349881Y-14922833D02*
X8340357Y-14960928D01*
X8340357Y-14960928D02*
X8330833Y-14979976D01*
X8330833Y-14979976D02*
X8321309Y-14989500D01*
X8321309Y-14989500D02*
X8302262Y-14999024D01*
X8302262Y-14999024D02*
X8283214Y-14999024D01*
X8283214Y-14999024D02*
X8264167Y-14989500D01*
X8264167Y-14989500D02*
X8254643Y-14979976D01*
X8254643Y-14979976D02*
X8245119Y-14960928D01*
X8245119Y-14960928D02*
X8235595Y-14922833D01*
X8235595Y-14922833D02*
X8235595Y-14875214D01*
X8235595Y-14875214D02*
X8245119Y-14837119D01*
X8245119Y-14837119D02*
X8254643Y-14818071D01*
X8254643Y-14818071D02*
X8264167Y-14808548D01*
X8264167Y-14808548D02*
X8283214Y-14799024D01*
X8435595Y-14979976D02*
X8445119Y-14989500D01*
X8445119Y-14989500D02*
X8435595Y-14999024D01*
X8435595Y-14999024D02*
X8426071Y-14989500D01*
X8426071Y-14989500D02*
X8435595Y-14979976D01*
X8435595Y-14979976D02*
X8435595Y-14999024D01*
X8626071Y-14799024D02*
X8530833Y-14799024D01*
X8530833Y-14799024D02*
X8521310Y-14894262D01*
X8521310Y-14894262D02*
X8530833Y-14884738D01*
X8530833Y-14884738D02*
X8549881Y-14875214D01*
X8549881Y-14875214D02*
X8597500Y-14875214D01*
X8597500Y-14875214D02*
X8616548Y-14884738D01*
X8616548Y-14884738D02*
X8626071Y-14894262D01*
X8626071Y-14894262D02*
X8635595Y-14913309D01*
X8635595Y-14913309D02*
X8635595Y-14960928D01*
X8635595Y-14960928D02*
X8626071Y-14979976D01*
X8626071Y-14979976D02*
X8616548Y-14989500D01*
X8616548Y-14989500D02*
X8597500Y-14999024D01*
X8597500Y-14999024D02*
X8549881Y-14999024D01*
X8549881Y-14999024D02*
X8530833Y-14989500D01*
X8530833Y-14989500D02*
X8521310Y-14979976D01*
X8759405Y-14799024D02*
X8778452Y-14799024D01*
X8778452Y-14799024D02*
X8797500Y-14808548D01*
X8797500Y-14808548D02*
X8807024Y-14818071D01*
X8807024Y-14818071D02*
X8816548Y-14837119D01*
X8816548Y-14837119D02*
X8826071Y-14875214D01*
X8826071Y-14875214D02*
X8826071Y-14922833D01*
X8826071Y-14922833D02*
X8816548Y-14960928D01*
X8816548Y-14960928D02*
X8807024Y-14979976D01*
X8807024Y-14979976D02*
X8797500Y-14989500D01*
X8797500Y-14989500D02*
X8778452Y-14999024D01*
X8778452Y-14999024D02*
X8759405Y-14999024D01*
X8759405Y-14999024D02*
X8740357Y-14989500D01*
X8740357Y-14989500D02*
X8730833Y-14979976D01*
X8730833Y-14979976D02*
X8721310Y-14960928D01*
X8721310Y-14960928D02*
X8711786Y-14922833D01*
X8711786Y-14922833D02*
X8711786Y-14875214D01*
X8711786Y-14875214D02*
X8721310Y-14837119D01*
X8721310Y-14837119D02*
X8730833Y-14818071D01*
X8730833Y-14818071D02*
X8740357Y-14808548D01*
X8740357Y-14808548D02*
X8759405Y-14799024D01*
X8949881Y-14799024D02*
X8968929Y-14799024D01*
X8968929Y-14799024D02*
X8987976Y-14808548D01*
X8987976Y-14808548D02*
X8997500Y-14818071D01*
X8997500Y-14818071D02*
X9007024Y-14837119D01*
X9007024Y-14837119D02*
X9016548Y-14875214D01*
X9016548Y-14875214D02*
X9016548Y-14922833D01*
X9016548Y-14922833D02*
X9007024Y-14960928D01*
X9007024Y-14960928D02*
X8997500Y-14979976D01*
X8997500Y-14979976D02*
X8987976Y-14989500D01*
X8987976Y-14989500D02*
X8968929Y-14999024D01*
X8968929Y-14999024D02*
X8949881Y-14999024D01*
X8949881Y-14999024D02*
X8930833Y-14989500D01*
X8930833Y-14989500D02*
X8921310Y-14979976D01*
X8921310Y-14979976D02*
X8911786Y-14960928D01*
X8911786Y-14960928D02*
X8902262Y-14922833D01*
X8902262Y-14922833D02*
X8902262Y-14875214D01*
X8902262Y-14875214D02*
X8911786Y-14837119D01*
X8911786Y-14837119D02*
X8921310Y-14818071D01*
X8921310Y-14818071D02*
X8930833Y-14808548D01*
X8930833Y-14808548D02*
X8949881Y-14799024D01*
X9102262Y-14999024D02*
X9102262Y-14865690D01*
X9102262Y-14884738D02*
X9111786Y-14875214D01*
X9111786Y-14875214D02*
X9130833Y-14865690D01*
X9130833Y-14865690D02*
X9159405Y-14865690D01*
X9159405Y-14865690D02*
X9178452Y-14875214D01*
X9178452Y-14875214D02*
X9187976Y-14894262D01*
X9187976Y-14894262D02*
X9187976Y-14999024D01*
X9187976Y-14894262D02*
X9197500Y-14875214D01*
X9197500Y-14875214D02*
X9216548Y-14865690D01*
X9216548Y-14865690D02*
X9245119Y-14865690D01*
X9245119Y-14865690D02*
X9264167Y-14875214D01*
X9264167Y-14875214D02*
X9273691Y-14894262D01*
X9273691Y-14894262D02*
X9273691Y-14999024D01*
X9368929Y-14999024D02*
X9368929Y-14865690D01*
X9368929Y-14884738D02*
X9378452Y-14875214D01*
X9378452Y-14875214D02*
X9397500Y-14865690D01*
X9397500Y-14865690D02*
X9426072Y-14865690D01*
X9426072Y-14865690D02*
X9445119Y-14875214D01*
X9445119Y-14875214D02*
X9454643Y-14894262D01*
X9454643Y-14894262D02*
X9454643Y-14999024D01*
X9454643Y-14894262D02*
X9464167Y-14875214D01*
X9464167Y-14875214D02*
X9483214Y-14865690D01*
X9483214Y-14865690D02*
X9511786Y-14865690D01*
X9511786Y-14865690D02*
X9530833Y-14875214D01*
X9530833Y-14875214D02*
X9540357Y-14894262D01*
X9540357Y-14894262D02*
X9540357Y-14999024D01*
X9930833Y-14789500D02*
X9759405Y-15046643D01*
X10187976Y-14799024D02*
X10207024Y-14799024D01*
X10207024Y-14799024D02*
X10226072Y-14808548D01*
X10226072Y-14808548D02*
X10235595Y-14818071D01*
X10235595Y-14818071D02*
X10245119Y-14837119D01*
X10245119Y-14837119D02*
X10254643Y-14875214D01*
X10254643Y-14875214D02*
X10254643Y-14922833D01*
X10254643Y-14922833D02*
X10245119Y-14960928D01*
X10245119Y-14960928D02*
X10235595Y-14979976D01*
X10235595Y-14979976D02*
X10226072Y-14989500D01*
X10226072Y-14989500D02*
X10207024Y-14999024D01*
X10207024Y-14999024D02*
X10187976Y-14999024D01*
X10187976Y-14999024D02*
X10168929Y-14989500D01*
X10168929Y-14989500D02*
X10159405Y-14979976D01*
X10159405Y-14979976D02*
X10149881Y-14960928D01*
X10149881Y-14960928D02*
X10140357Y-14922833D01*
X10140357Y-14922833D02*
X10140357Y-14875214D01*
X10140357Y-14875214D02*
X10149881Y-14837119D01*
X10149881Y-14837119D02*
X10159405Y-14818071D01*
X10159405Y-14818071D02*
X10168929Y-14808548D01*
X10168929Y-14808548D02*
X10187976Y-14799024D01*
X10340357Y-14979976D02*
X10349881Y-14989500D01*
X10349881Y-14989500D02*
X10340357Y-14999024D01*
X10340357Y-14999024D02*
X10330834Y-14989500D01*
X10330834Y-14989500D02*
X10340357Y-14979976D01*
X10340357Y-14979976D02*
X10340357Y-14999024D01*
X10473691Y-14799024D02*
X10492738Y-14799024D01*
X10492738Y-14799024D02*
X10511786Y-14808548D01*
X10511786Y-14808548D02*
X10521310Y-14818071D01*
X10521310Y-14818071D02*
X10530834Y-14837119D01*
X10530834Y-14837119D02*
X10540357Y-14875214D01*
X10540357Y-14875214D02*
X10540357Y-14922833D01*
X10540357Y-14922833D02*
X10530834Y-14960928D01*
X10530834Y-14960928D02*
X10521310Y-14979976D01*
X10521310Y-14979976D02*
X10511786Y-14989500D01*
X10511786Y-14989500D02*
X10492738Y-14999024D01*
X10492738Y-14999024D02*
X10473691Y-14999024D01*
X10473691Y-14999024D02*
X10454643Y-14989500D01*
X10454643Y-14989500D02*
X10445119Y-14979976D01*
X10445119Y-14979976D02*
X10435595Y-14960928D01*
X10435595Y-14960928D02*
X10426072Y-14922833D01*
X10426072Y-14922833D02*
X10426072Y-14875214D01*
X10426072Y-14875214D02*
X10435595Y-14837119D01*
X10435595Y-14837119D02*
X10445119Y-14818071D01*
X10445119Y-14818071D02*
X10454643Y-14808548D01*
X10454643Y-14808548D02*
X10473691Y-14799024D01*
X10730834Y-14999024D02*
X10616548Y-14999024D01*
X10673691Y-14999024D02*
X10673691Y-14799024D01*
X10673691Y-14799024D02*
X10654643Y-14827595D01*
X10654643Y-14827595D02*
X10635595Y-14846643D01*
X10635595Y-14846643D02*
X10616548Y-14856167D01*
X10826072Y-14999024D02*
X10864167Y-14999024D01*
X10864167Y-14999024D02*
X10883215Y-14989500D01*
X10883215Y-14989500D02*
X10892738Y-14979976D01*
X10892738Y-14979976D02*
X10911786Y-14951405D01*
X10911786Y-14951405D02*
X10921310Y-14913309D01*
X10921310Y-14913309D02*
X10921310Y-14837119D01*
X10921310Y-14837119D02*
X10911786Y-14818071D01*
X10911786Y-14818071D02*
X10902262Y-14808548D01*
X10902262Y-14808548D02*
X10883215Y-14799024D01*
X10883215Y-14799024D02*
X10845119Y-14799024D01*
X10845119Y-14799024D02*
X10826072Y-14808548D01*
X10826072Y-14808548D02*
X10816548Y-14818071D01*
X10816548Y-14818071D02*
X10807024Y-14837119D01*
X10807024Y-14837119D02*
X10807024Y-14884738D01*
X10807024Y-14884738D02*
X10816548Y-14903786D01*
X10816548Y-14903786D02*
X10826072Y-14913309D01*
X10826072Y-14913309D02*
X10845119Y-14922833D01*
X10845119Y-14922833D02*
X10883215Y-14922833D01*
X10883215Y-14922833D02*
X10902262Y-14913309D01*
X10902262Y-14913309D02*
X10911786Y-14903786D01*
X10911786Y-14903786D02*
X10921310Y-14884738D01*
X10987976Y-14799024D02*
X11121310Y-14799024D01*
X11121310Y-14799024D02*
X11035595Y-14999024D01*
X11187976Y-14799024D02*
X11187976Y-14837119D01*
X11264167Y-14799024D02*
X11264167Y-14837119D01*
X11559405Y-15075214D02*
X11549881Y-15065690D01*
X11549881Y-15065690D02*
X11530834Y-15037119D01*
X11530834Y-15037119D02*
X11521310Y-15018071D01*
X11521310Y-15018071D02*
X11511786Y-14989500D01*
X11511786Y-14989500D02*
X11502262Y-14941881D01*
X11502262Y-14941881D02*
X11502262Y-14903786D01*
X11502262Y-14903786D02*
X11511786Y-14856167D01*
X11511786Y-14856167D02*
X11521310Y-14827595D01*
X11521310Y-14827595D02*
X11530834Y-14808548D01*
X11530834Y-14808548D02*
X11549881Y-14779976D01*
X11549881Y-14779976D02*
X11559405Y-14770452D01*
X11626072Y-14818071D02*
X11635595Y-14808548D01*
X11635595Y-14808548D02*
X11654643Y-14799024D01*
X11654643Y-14799024D02*
X11702262Y-14799024D01*
X11702262Y-14799024D02*
X11721310Y-14808548D01*
X11721310Y-14808548D02*
X11730834Y-14818071D01*
X11730834Y-14818071D02*
X11740357Y-14837119D01*
X11740357Y-14837119D02*
X11740357Y-14856167D01*
X11740357Y-14856167D02*
X11730834Y-14884738D01*
X11730834Y-14884738D02*
X11616548Y-14999024D01*
X11616548Y-14999024D02*
X11740357Y-14999024D01*
X11978453Y-14999024D02*
X11978453Y-14799024D01*
X12064167Y-14999024D02*
X12064167Y-14894262D01*
X12064167Y-14894262D02*
X12054643Y-14875214D01*
X12054643Y-14875214D02*
X12035596Y-14865690D01*
X12035596Y-14865690D02*
X12007024Y-14865690D01*
X12007024Y-14865690D02*
X11987976Y-14875214D01*
X11987976Y-14875214D02*
X11978453Y-14884738D01*
X12187976Y-14999024D02*
X12168929Y-14989500D01*
X12168929Y-14989500D02*
X12159405Y-14979976D01*
X12159405Y-14979976D02*
X12149881Y-14960928D01*
X12149881Y-14960928D02*
X12149881Y-14903786D01*
X12149881Y-14903786D02*
X12159405Y-14884738D01*
X12159405Y-14884738D02*
X12168929Y-14875214D01*
X12168929Y-14875214D02*
X12187976Y-14865690D01*
X12187976Y-14865690D02*
X12216548Y-14865690D01*
X12216548Y-14865690D02*
X12235596Y-14875214D01*
X12235596Y-14875214D02*
X12245119Y-14884738D01*
X12245119Y-14884738D02*
X12254643Y-14903786D01*
X12254643Y-14903786D02*
X12254643Y-14960928D01*
X12254643Y-14960928D02*
X12245119Y-14979976D01*
X12245119Y-14979976D02*
X12235596Y-14989500D01*
X12235596Y-14989500D02*
X12216548Y-14999024D01*
X12216548Y-14999024D02*
X12187976Y-14999024D01*
X12368929Y-14999024D02*
X12349881Y-14989500D01*
X12349881Y-14989500D02*
X12340357Y-14970452D01*
X12340357Y-14970452D02*
X12340357Y-14799024D01*
X12521310Y-14989500D02*
X12502262Y-14999024D01*
X12502262Y-14999024D02*
X12464167Y-14999024D01*
X12464167Y-14999024D02*
X12445119Y-14989500D01*
X12445119Y-14989500D02*
X12435596Y-14970452D01*
X12435596Y-14970452D02*
X12435596Y-14894262D01*
X12435596Y-14894262D02*
X12445119Y-14875214D01*
X12445119Y-14875214D02*
X12464167Y-14865690D01*
X12464167Y-14865690D02*
X12502262Y-14865690D01*
X12502262Y-14865690D02*
X12521310Y-14875214D01*
X12521310Y-14875214D02*
X12530834Y-14894262D01*
X12530834Y-14894262D02*
X12530834Y-14913309D01*
X12530834Y-14913309D02*
X12435596Y-14932357D01*
X12607024Y-14989500D02*
X12626072Y-14999024D01*
X12626072Y-14999024D02*
X12664167Y-14999024D01*
X12664167Y-14999024D02*
X12683215Y-14989500D01*
X12683215Y-14989500D02*
X12692738Y-14970452D01*
X12692738Y-14970452D02*
X12692738Y-14960928D01*
X12692738Y-14960928D02*
X12683215Y-14941881D01*
X12683215Y-14941881D02*
X12664167Y-14932357D01*
X12664167Y-14932357D02*
X12635596Y-14932357D01*
X12635596Y-14932357D02*
X12616548Y-14922833D01*
X12616548Y-14922833D02*
X12607024Y-14903786D01*
X12607024Y-14903786D02*
X12607024Y-14894262D01*
X12607024Y-14894262D02*
X12616548Y-14875214D01*
X12616548Y-14875214D02*
X12635596Y-14865690D01*
X12635596Y-14865690D02*
X12664167Y-14865690D01*
X12664167Y-14865690D02*
X12683215Y-14875214D01*
X12759405Y-15075214D02*
X12768929Y-15065690D01*
X12768929Y-15065690D02*
X12787977Y-15037119D01*
X12787977Y-15037119D02*
X12797500Y-15018071D01*
X12797500Y-15018071D02*
X12807024Y-14989500D01*
X12807024Y-14989500D02*
X12816548Y-14941881D01*
X12816548Y-14941881D02*
X12816548Y-14903786D01*
X12816548Y-14903786D02*
X12807024Y-14856167D01*
X12807024Y-14856167D02*
X12797500Y-14827595D01*
X12797500Y-14827595D02*
X12787977Y-14808548D01*
X12787977Y-14808548D02*
X12768929Y-14779976D01*
X12768929Y-14779976D02*
X12759405Y-14770452D01*
D13*
X7952500Y-15125500D02*
X7952500Y-15215500D01*
X7907500Y-15170500D02*
X7997500Y-15170500D01*
D11*
X8283214Y-15063024D02*
X8302262Y-15063024D01*
X8302262Y-15063024D02*
X8321309Y-15072548D01*
X8321309Y-15072548D02*
X8330833Y-15082071D01*
X8330833Y-15082071D02*
X8340357Y-15101119D01*
X8340357Y-15101119D02*
X8349881Y-15139214D01*
X8349881Y-15139214D02*
X8349881Y-15186833D01*
X8349881Y-15186833D02*
X8340357Y-15224928D01*
X8340357Y-15224928D02*
X8330833Y-15243976D01*
X8330833Y-15243976D02*
X8321309Y-15253500D01*
X8321309Y-15253500D02*
X8302262Y-15263024D01*
X8302262Y-15263024D02*
X8283214Y-15263024D01*
X8283214Y-15263024D02*
X8264167Y-15253500D01*
X8264167Y-15253500D02*
X8254643Y-15243976D01*
X8254643Y-15243976D02*
X8245119Y-15224928D01*
X8245119Y-15224928D02*
X8235595Y-15186833D01*
X8235595Y-15186833D02*
X8235595Y-15139214D01*
X8235595Y-15139214D02*
X8245119Y-15101119D01*
X8245119Y-15101119D02*
X8254643Y-15082071D01*
X8254643Y-15082071D02*
X8264167Y-15072548D01*
X8264167Y-15072548D02*
X8283214Y-15063024D01*
X8435595Y-15243976D02*
X8445119Y-15253500D01*
X8445119Y-15253500D02*
X8435595Y-15263024D01*
X8435595Y-15263024D02*
X8426071Y-15253500D01*
X8426071Y-15253500D02*
X8435595Y-15243976D01*
X8435595Y-15243976D02*
X8435595Y-15263024D01*
X8540357Y-15263024D02*
X8578452Y-15263024D01*
X8578452Y-15263024D02*
X8597500Y-15253500D01*
X8597500Y-15253500D02*
X8607024Y-15243976D01*
X8607024Y-15243976D02*
X8626071Y-15215405D01*
X8626071Y-15215405D02*
X8635595Y-15177309D01*
X8635595Y-15177309D02*
X8635595Y-15101119D01*
X8635595Y-15101119D02*
X8626071Y-15082071D01*
X8626071Y-15082071D02*
X8616548Y-15072548D01*
X8616548Y-15072548D02*
X8597500Y-15063024D01*
X8597500Y-15063024D02*
X8559405Y-15063024D01*
X8559405Y-15063024D02*
X8540357Y-15072548D01*
X8540357Y-15072548D02*
X8530833Y-15082071D01*
X8530833Y-15082071D02*
X8521310Y-15101119D01*
X8521310Y-15101119D02*
X8521310Y-15148738D01*
X8521310Y-15148738D02*
X8530833Y-15167786D01*
X8530833Y-15167786D02*
X8540357Y-15177309D01*
X8540357Y-15177309D02*
X8559405Y-15186833D01*
X8559405Y-15186833D02*
X8597500Y-15186833D01*
X8597500Y-15186833D02*
X8616548Y-15177309D01*
X8616548Y-15177309D02*
X8626071Y-15167786D01*
X8626071Y-15167786D02*
X8635595Y-15148738D01*
X8759405Y-15063024D02*
X8778452Y-15063024D01*
X8778452Y-15063024D02*
X8797500Y-15072548D01*
X8797500Y-15072548D02*
X8807024Y-15082071D01*
X8807024Y-15082071D02*
X8816548Y-15101119D01*
X8816548Y-15101119D02*
X8826071Y-15139214D01*
X8826071Y-15139214D02*
X8826071Y-15186833D01*
X8826071Y-15186833D02*
X8816548Y-15224928D01*
X8816548Y-15224928D02*
X8807024Y-15243976D01*
X8807024Y-15243976D02*
X8797500Y-15253500D01*
X8797500Y-15253500D02*
X8778452Y-15263024D01*
X8778452Y-15263024D02*
X8759405Y-15263024D01*
X8759405Y-15263024D02*
X8740357Y-15253500D01*
X8740357Y-15253500D02*
X8730833Y-15243976D01*
X8730833Y-15243976D02*
X8721310Y-15224928D01*
X8721310Y-15224928D02*
X8711786Y-15186833D01*
X8711786Y-15186833D02*
X8711786Y-15139214D01*
X8711786Y-15139214D02*
X8721310Y-15101119D01*
X8721310Y-15101119D02*
X8730833Y-15082071D01*
X8730833Y-15082071D02*
X8740357Y-15072548D01*
X8740357Y-15072548D02*
X8759405Y-15063024D01*
X8949881Y-15063024D02*
X8968929Y-15063024D01*
X8968929Y-15063024D02*
X8987976Y-15072548D01*
X8987976Y-15072548D02*
X8997500Y-15082071D01*
X8997500Y-15082071D02*
X9007024Y-15101119D01*
X9007024Y-15101119D02*
X9016548Y-15139214D01*
X9016548Y-15139214D02*
X9016548Y-15186833D01*
X9016548Y-15186833D02*
X9007024Y-15224928D01*
X9007024Y-15224928D02*
X8997500Y-15243976D01*
X8997500Y-15243976D02*
X8987976Y-15253500D01*
X8987976Y-15253500D02*
X8968929Y-15263024D01*
X8968929Y-15263024D02*
X8949881Y-15263024D01*
X8949881Y-15263024D02*
X8930833Y-15253500D01*
X8930833Y-15253500D02*
X8921310Y-15243976D01*
X8921310Y-15243976D02*
X8911786Y-15224928D01*
X8911786Y-15224928D02*
X8902262Y-15186833D01*
X8902262Y-15186833D02*
X8902262Y-15139214D01*
X8902262Y-15139214D02*
X8911786Y-15101119D01*
X8911786Y-15101119D02*
X8921310Y-15082071D01*
X8921310Y-15082071D02*
X8930833Y-15072548D01*
X8930833Y-15072548D02*
X8949881Y-15063024D01*
X9102262Y-15263024D02*
X9102262Y-15129690D01*
X9102262Y-15148738D02*
X9111786Y-15139214D01*
X9111786Y-15139214D02*
X9130833Y-15129690D01*
X9130833Y-15129690D02*
X9159405Y-15129690D01*
X9159405Y-15129690D02*
X9178452Y-15139214D01*
X9178452Y-15139214D02*
X9187976Y-15158262D01*
X9187976Y-15158262D02*
X9187976Y-15263024D01*
X9187976Y-15158262D02*
X9197500Y-15139214D01*
X9197500Y-15139214D02*
X9216548Y-15129690D01*
X9216548Y-15129690D02*
X9245119Y-15129690D01*
X9245119Y-15129690D02*
X9264167Y-15139214D01*
X9264167Y-15139214D02*
X9273691Y-15158262D01*
X9273691Y-15158262D02*
X9273691Y-15263024D01*
X9368929Y-15263024D02*
X9368929Y-15129690D01*
X9368929Y-15148738D02*
X9378452Y-15139214D01*
X9378452Y-15139214D02*
X9397500Y-15129690D01*
X9397500Y-15129690D02*
X9426072Y-15129690D01*
X9426072Y-15129690D02*
X9445119Y-15139214D01*
X9445119Y-15139214D02*
X9454643Y-15158262D01*
X9454643Y-15158262D02*
X9454643Y-15263024D01*
X9454643Y-15158262D02*
X9464167Y-15139214D01*
X9464167Y-15139214D02*
X9483214Y-15129690D01*
X9483214Y-15129690D02*
X9511786Y-15129690D01*
X9511786Y-15129690D02*
X9530833Y-15139214D01*
X9530833Y-15139214D02*
X9540357Y-15158262D01*
X9540357Y-15158262D02*
X9540357Y-15263024D01*
X9930833Y-15053500D02*
X9759405Y-15310643D01*
X10187976Y-15063024D02*
X10207024Y-15063024D01*
X10207024Y-15063024D02*
X10226072Y-15072548D01*
X10226072Y-15072548D02*
X10235595Y-15082071D01*
X10235595Y-15082071D02*
X10245119Y-15101119D01*
X10245119Y-15101119D02*
X10254643Y-15139214D01*
X10254643Y-15139214D02*
X10254643Y-15186833D01*
X10254643Y-15186833D02*
X10245119Y-15224928D01*
X10245119Y-15224928D02*
X10235595Y-15243976D01*
X10235595Y-15243976D02*
X10226072Y-15253500D01*
X10226072Y-15253500D02*
X10207024Y-15263024D01*
X10207024Y-15263024D02*
X10187976Y-15263024D01*
X10187976Y-15263024D02*
X10168929Y-15253500D01*
X10168929Y-15253500D02*
X10159405Y-15243976D01*
X10159405Y-15243976D02*
X10149881Y-15224928D01*
X10149881Y-15224928D02*
X10140357Y-15186833D01*
X10140357Y-15186833D02*
X10140357Y-15139214D01*
X10140357Y-15139214D02*
X10149881Y-15101119D01*
X10149881Y-15101119D02*
X10159405Y-15082071D01*
X10159405Y-15082071D02*
X10168929Y-15072548D01*
X10168929Y-15072548D02*
X10187976Y-15063024D01*
X10340357Y-15243976D02*
X10349881Y-15253500D01*
X10349881Y-15253500D02*
X10340357Y-15263024D01*
X10340357Y-15263024D02*
X10330834Y-15253500D01*
X10330834Y-15253500D02*
X10340357Y-15243976D01*
X10340357Y-15243976D02*
X10340357Y-15263024D01*
X10473691Y-15063024D02*
X10492738Y-15063024D01*
X10492738Y-15063024D02*
X10511786Y-15072548D01*
X10511786Y-15072548D02*
X10521310Y-15082071D01*
X10521310Y-15082071D02*
X10530834Y-15101119D01*
X10530834Y-15101119D02*
X10540357Y-15139214D01*
X10540357Y-15139214D02*
X10540357Y-15186833D01*
X10540357Y-15186833D02*
X10530834Y-15224928D01*
X10530834Y-15224928D02*
X10521310Y-15243976D01*
X10521310Y-15243976D02*
X10511786Y-15253500D01*
X10511786Y-15253500D02*
X10492738Y-15263024D01*
X10492738Y-15263024D02*
X10473691Y-15263024D01*
X10473691Y-15263024D02*
X10454643Y-15253500D01*
X10454643Y-15253500D02*
X10445119Y-15243976D01*
X10445119Y-15243976D02*
X10435595Y-15224928D01*
X10435595Y-15224928D02*
X10426072Y-15186833D01*
X10426072Y-15186833D02*
X10426072Y-15139214D01*
X10426072Y-15139214D02*
X10435595Y-15101119D01*
X10435595Y-15101119D02*
X10445119Y-15082071D01*
X10445119Y-15082071D02*
X10454643Y-15072548D01*
X10454643Y-15072548D02*
X10473691Y-15063024D01*
X10607024Y-15063024D02*
X10730834Y-15063024D01*
X10730834Y-15063024D02*
X10664167Y-15139214D01*
X10664167Y-15139214D02*
X10692738Y-15139214D01*
X10692738Y-15139214D02*
X10711786Y-15148738D01*
X10711786Y-15148738D02*
X10721310Y-15158262D01*
X10721310Y-15158262D02*
X10730834Y-15177309D01*
X10730834Y-15177309D02*
X10730834Y-15224928D01*
X10730834Y-15224928D02*
X10721310Y-15243976D01*
X10721310Y-15243976D02*
X10711786Y-15253500D01*
X10711786Y-15253500D02*
X10692738Y-15263024D01*
X10692738Y-15263024D02*
X10635595Y-15263024D01*
X10635595Y-15263024D02*
X10616548Y-15253500D01*
X10616548Y-15253500D02*
X10607024Y-15243976D01*
X10911786Y-15063024D02*
X10816548Y-15063024D01*
X10816548Y-15063024D02*
X10807024Y-15158262D01*
X10807024Y-15158262D02*
X10816548Y-15148738D01*
X10816548Y-15148738D02*
X10835595Y-15139214D01*
X10835595Y-15139214D02*
X10883215Y-15139214D01*
X10883215Y-15139214D02*
X10902262Y-15148738D01*
X10902262Y-15148738D02*
X10911786Y-15158262D01*
X10911786Y-15158262D02*
X10921310Y-15177309D01*
X10921310Y-15177309D02*
X10921310Y-15224928D01*
X10921310Y-15224928D02*
X10911786Y-15243976D01*
X10911786Y-15243976D02*
X10902262Y-15253500D01*
X10902262Y-15253500D02*
X10883215Y-15263024D01*
X10883215Y-15263024D02*
X10835595Y-15263024D01*
X10835595Y-15263024D02*
X10816548Y-15253500D01*
X10816548Y-15253500D02*
X10807024Y-15243976D01*
X11092738Y-15129690D02*
X11092738Y-15263024D01*
X11045119Y-15053500D02*
X10997500Y-15196357D01*
X10997500Y-15196357D02*
X11121310Y-15196357D01*
X11187976Y-15063024D02*
X11187976Y-15101119D01*
X11264167Y-15063024D02*
X11264167Y-15101119D01*
X11559405Y-15339214D02*
X11549881Y-15329690D01*
X11549881Y-15329690D02*
X11530834Y-15301119D01*
X11530834Y-15301119D02*
X11521310Y-15282071D01*
X11521310Y-15282071D02*
X11511786Y-15253500D01*
X11511786Y-15253500D02*
X11502262Y-15205881D01*
X11502262Y-15205881D02*
X11502262Y-15167786D01*
X11502262Y-15167786D02*
X11511786Y-15120167D01*
X11511786Y-15120167D02*
X11521310Y-15091595D01*
X11521310Y-15091595D02*
X11530834Y-15072548D01*
X11530834Y-15072548D02*
X11549881Y-15043976D01*
X11549881Y-15043976D02*
X11559405Y-15034452D01*
X11626072Y-15082071D02*
X11635595Y-15072548D01*
X11635595Y-15072548D02*
X11654643Y-15063024D01*
X11654643Y-15063024D02*
X11702262Y-15063024D01*
X11702262Y-15063024D02*
X11721310Y-15072548D01*
X11721310Y-15072548D02*
X11730834Y-15082071D01*
X11730834Y-15082071D02*
X11740357Y-15101119D01*
X11740357Y-15101119D02*
X11740357Y-15120167D01*
X11740357Y-15120167D02*
X11730834Y-15148738D01*
X11730834Y-15148738D02*
X11616548Y-15263024D01*
X11616548Y-15263024D02*
X11740357Y-15263024D01*
X11864167Y-15063024D02*
X11883215Y-15063024D01*
X11883215Y-15063024D02*
X11902262Y-15072548D01*
X11902262Y-15072548D02*
X11911786Y-15082071D01*
X11911786Y-15082071D02*
X11921310Y-15101119D01*
X11921310Y-15101119D02*
X11930834Y-15139214D01*
X11930834Y-15139214D02*
X11930834Y-15186833D01*
X11930834Y-15186833D02*
X11921310Y-15224928D01*
X11921310Y-15224928D02*
X11911786Y-15243976D01*
X11911786Y-15243976D02*
X11902262Y-15253500D01*
X11902262Y-15253500D02*
X11883215Y-15263024D01*
X11883215Y-15263024D02*
X11864167Y-15263024D01*
X11864167Y-15263024D02*
X11845119Y-15253500D01*
X11845119Y-15253500D02*
X11835595Y-15243976D01*
X11835595Y-15243976D02*
X11826072Y-15224928D01*
X11826072Y-15224928D02*
X11816548Y-15186833D01*
X11816548Y-15186833D02*
X11816548Y-15139214D01*
X11816548Y-15139214D02*
X11826072Y-15101119D01*
X11826072Y-15101119D02*
X11835595Y-15082071D01*
X11835595Y-15082071D02*
X11845119Y-15072548D01*
X11845119Y-15072548D02*
X11864167Y-15063024D01*
X12168929Y-15263024D02*
X12168929Y-15063024D01*
X12254643Y-15263024D02*
X12254643Y-15158262D01*
X12254643Y-15158262D02*
X12245119Y-15139214D01*
X12245119Y-15139214D02*
X12226072Y-15129690D01*
X12226072Y-15129690D02*
X12197500Y-15129690D01*
X12197500Y-15129690D02*
X12178453Y-15139214D01*
X12178453Y-15139214D02*
X12168929Y-15148738D01*
X12378453Y-15263024D02*
X12359405Y-15253500D01*
X12359405Y-15253500D02*
X12349881Y-15243976D01*
X12349881Y-15243976D02*
X12340357Y-15224928D01*
X12340357Y-15224928D02*
X12340357Y-15167786D01*
X12340357Y-15167786D02*
X12349881Y-15148738D01*
X12349881Y-15148738D02*
X12359405Y-15139214D01*
X12359405Y-15139214D02*
X12378453Y-15129690D01*
X12378453Y-15129690D02*
X12407024Y-15129690D01*
X12407024Y-15129690D02*
X12426072Y-15139214D01*
X12426072Y-15139214D02*
X12435596Y-15148738D01*
X12435596Y-15148738D02*
X12445119Y-15167786D01*
X12445119Y-15167786D02*
X12445119Y-15224928D01*
X12445119Y-15224928D02*
X12435596Y-15243976D01*
X12435596Y-15243976D02*
X12426072Y-15253500D01*
X12426072Y-15253500D02*
X12407024Y-15263024D01*
X12407024Y-15263024D02*
X12378453Y-15263024D01*
X12559405Y-15263024D02*
X12540357Y-15253500D01*
X12540357Y-15253500D02*
X12530834Y-15234452D01*
X12530834Y-15234452D02*
X12530834Y-15063024D01*
X12711786Y-15253500D02*
X12692738Y-15263024D01*
X12692738Y-15263024D02*
X12654643Y-15263024D01*
X12654643Y-15263024D02*
X12635596Y-15253500D01*
X12635596Y-15253500D02*
X12626072Y-15234452D01*
X12626072Y-15234452D02*
X12626072Y-15158262D01*
X12626072Y-15158262D02*
X12635596Y-15139214D01*
X12635596Y-15139214D02*
X12654643Y-15129690D01*
X12654643Y-15129690D02*
X12692738Y-15129690D01*
X12692738Y-15129690D02*
X12711786Y-15139214D01*
X12711786Y-15139214D02*
X12721310Y-15158262D01*
X12721310Y-15158262D02*
X12721310Y-15177309D01*
X12721310Y-15177309D02*
X12626072Y-15196357D01*
X12797500Y-15253500D02*
X12816548Y-15263024D01*
X12816548Y-15263024D02*
X12854643Y-15263024D01*
X12854643Y-15263024D02*
X12873691Y-15253500D01*
X12873691Y-15253500D02*
X12883215Y-15234452D01*
X12883215Y-15234452D02*
X12883215Y-15224928D01*
X12883215Y-15224928D02*
X12873691Y-15205881D01*
X12873691Y-15205881D02*
X12854643Y-15196357D01*
X12854643Y-15196357D02*
X12826072Y-15196357D01*
X12826072Y-15196357D02*
X12807024Y-15186833D01*
X12807024Y-15186833D02*
X12797500Y-15167786D01*
X12797500Y-15167786D02*
X12797500Y-15158262D01*
X12797500Y-15158262D02*
X12807024Y-15139214D01*
X12807024Y-15139214D02*
X12826072Y-15129690D01*
X12826072Y-15129690D02*
X12854643Y-15129690D01*
X12854643Y-15129690D02*
X12873691Y-15139214D01*
X12949881Y-15339214D02*
X12959405Y-15329690D01*
X12959405Y-15329690D02*
X12978453Y-15301119D01*
X12978453Y-15301119D02*
X12987977Y-15282071D01*
X12987977Y-15282071D02*
X12997500Y-15253500D01*
X12997500Y-15253500D02*
X13007024Y-15205881D01*
X13007024Y-15205881D02*
X13007024Y-15167786D01*
X13007024Y-15167786D02*
X12997500Y-15120167D01*
X12997500Y-15120167D02*
X12987977Y-15091595D01*
X12987977Y-15091595D02*
X12978453Y-15072548D01*
X12978453Y-15072548D02*
X12959405Y-15043976D01*
X12959405Y-15043976D02*
X12949881Y-15034452D01*
D14*
X7982856Y-15469856D02*
X7982856Y-15399144D01*
X7912144Y-15399144D01*
X7912144Y-15469856D01*
X7982856Y-15469856D01*
D11*
X8349881Y-15527024D02*
X8235595Y-15527024D01*
X8292738Y-15527024D02*
X8292738Y-15327024D01*
X8292738Y-15327024D02*
X8273690Y-15355595D01*
X8273690Y-15355595D02*
X8254643Y-15374643D01*
X8254643Y-15374643D02*
X8235595Y-15384167D01*
X8435595Y-15507976D02*
X8445119Y-15517500D01*
X8445119Y-15517500D02*
X8435595Y-15527024D01*
X8435595Y-15527024D02*
X8426071Y-15517500D01*
X8426071Y-15517500D02*
X8435595Y-15507976D01*
X8435595Y-15507976D02*
X8435595Y-15527024D01*
X8568929Y-15327024D02*
X8587976Y-15327024D01*
X8587976Y-15327024D02*
X8607024Y-15336548D01*
X8607024Y-15336548D02*
X8616548Y-15346071D01*
X8616548Y-15346071D02*
X8626071Y-15365119D01*
X8626071Y-15365119D02*
X8635595Y-15403214D01*
X8635595Y-15403214D02*
X8635595Y-15450833D01*
X8635595Y-15450833D02*
X8626071Y-15488928D01*
X8626071Y-15488928D02*
X8616548Y-15507976D01*
X8616548Y-15507976D02*
X8607024Y-15517500D01*
X8607024Y-15517500D02*
X8587976Y-15527024D01*
X8587976Y-15527024D02*
X8568929Y-15527024D01*
X8568929Y-15527024D02*
X8549881Y-15517500D01*
X8549881Y-15517500D02*
X8540357Y-15507976D01*
X8540357Y-15507976D02*
X8530833Y-15488928D01*
X8530833Y-15488928D02*
X8521310Y-15450833D01*
X8521310Y-15450833D02*
X8521310Y-15403214D01*
X8521310Y-15403214D02*
X8530833Y-15365119D01*
X8530833Y-15365119D02*
X8540357Y-15346071D01*
X8540357Y-15346071D02*
X8549881Y-15336548D01*
X8549881Y-15336548D02*
X8568929Y-15327024D01*
X8759405Y-15327024D02*
X8778452Y-15327024D01*
X8778452Y-15327024D02*
X8797500Y-15336548D01*
X8797500Y-15336548D02*
X8807024Y-15346071D01*
X8807024Y-15346071D02*
X8816548Y-15365119D01*
X8816548Y-15365119D02*
X8826071Y-15403214D01*
X8826071Y-15403214D02*
X8826071Y-15450833D01*
X8826071Y-15450833D02*
X8816548Y-15488928D01*
X8816548Y-15488928D02*
X8807024Y-15507976D01*
X8807024Y-15507976D02*
X8797500Y-15517500D01*
X8797500Y-15517500D02*
X8778452Y-15527024D01*
X8778452Y-15527024D02*
X8759405Y-15527024D01*
X8759405Y-15527024D02*
X8740357Y-15517500D01*
X8740357Y-15517500D02*
X8730833Y-15507976D01*
X8730833Y-15507976D02*
X8721310Y-15488928D01*
X8721310Y-15488928D02*
X8711786Y-15450833D01*
X8711786Y-15450833D02*
X8711786Y-15403214D01*
X8711786Y-15403214D02*
X8721310Y-15365119D01*
X8721310Y-15365119D02*
X8730833Y-15346071D01*
X8730833Y-15346071D02*
X8740357Y-15336548D01*
X8740357Y-15336548D02*
X8759405Y-15327024D01*
X8949881Y-15327024D02*
X8968929Y-15327024D01*
X8968929Y-15327024D02*
X8987976Y-15336548D01*
X8987976Y-15336548D02*
X8997500Y-15346071D01*
X8997500Y-15346071D02*
X9007024Y-15365119D01*
X9007024Y-15365119D02*
X9016548Y-15403214D01*
X9016548Y-15403214D02*
X9016548Y-15450833D01*
X9016548Y-15450833D02*
X9007024Y-15488928D01*
X9007024Y-15488928D02*
X8997500Y-15507976D01*
X8997500Y-15507976D02*
X8987976Y-15517500D01*
X8987976Y-15517500D02*
X8968929Y-15527024D01*
X8968929Y-15527024D02*
X8949881Y-15527024D01*
X8949881Y-15527024D02*
X8930833Y-15517500D01*
X8930833Y-15517500D02*
X8921310Y-15507976D01*
X8921310Y-15507976D02*
X8911786Y-15488928D01*
X8911786Y-15488928D02*
X8902262Y-15450833D01*
X8902262Y-15450833D02*
X8902262Y-15403214D01*
X8902262Y-15403214D02*
X8911786Y-15365119D01*
X8911786Y-15365119D02*
X8921310Y-15346071D01*
X8921310Y-15346071D02*
X8930833Y-15336548D01*
X8930833Y-15336548D02*
X8949881Y-15327024D01*
X9102262Y-15527024D02*
X9102262Y-15393690D01*
X9102262Y-15412738D02*
X9111786Y-15403214D01*
X9111786Y-15403214D02*
X9130833Y-15393690D01*
X9130833Y-15393690D02*
X9159405Y-15393690D01*
X9159405Y-15393690D02*
X9178452Y-15403214D01*
X9178452Y-15403214D02*
X9187976Y-15422262D01*
X9187976Y-15422262D02*
X9187976Y-15527024D01*
X9187976Y-15422262D02*
X9197500Y-15403214D01*
X9197500Y-15403214D02*
X9216548Y-15393690D01*
X9216548Y-15393690D02*
X9245119Y-15393690D01*
X9245119Y-15393690D02*
X9264167Y-15403214D01*
X9264167Y-15403214D02*
X9273691Y-15422262D01*
X9273691Y-15422262D02*
X9273691Y-15527024D01*
X9368929Y-15527024D02*
X9368929Y-15393690D01*
X9368929Y-15412738D02*
X9378452Y-15403214D01*
X9378452Y-15403214D02*
X9397500Y-15393690D01*
X9397500Y-15393690D02*
X9426072Y-15393690D01*
X9426072Y-15393690D02*
X9445119Y-15403214D01*
X9445119Y-15403214D02*
X9454643Y-15422262D01*
X9454643Y-15422262D02*
X9454643Y-15527024D01*
X9454643Y-15422262D02*
X9464167Y-15403214D01*
X9464167Y-15403214D02*
X9483214Y-15393690D01*
X9483214Y-15393690D02*
X9511786Y-15393690D01*
X9511786Y-15393690D02*
X9530833Y-15403214D01*
X9530833Y-15403214D02*
X9540357Y-15422262D01*
X9540357Y-15422262D02*
X9540357Y-15527024D01*
X9930833Y-15317500D02*
X9759405Y-15574643D01*
X10187976Y-15327024D02*
X10207024Y-15327024D01*
X10207024Y-15327024D02*
X10226072Y-15336548D01*
X10226072Y-15336548D02*
X10235595Y-15346071D01*
X10235595Y-15346071D02*
X10245119Y-15365119D01*
X10245119Y-15365119D02*
X10254643Y-15403214D01*
X10254643Y-15403214D02*
X10254643Y-15450833D01*
X10254643Y-15450833D02*
X10245119Y-15488928D01*
X10245119Y-15488928D02*
X10235595Y-15507976D01*
X10235595Y-15507976D02*
X10226072Y-15517500D01*
X10226072Y-15517500D02*
X10207024Y-15527024D01*
X10207024Y-15527024D02*
X10187976Y-15527024D01*
X10187976Y-15527024D02*
X10168929Y-15517500D01*
X10168929Y-15517500D02*
X10159405Y-15507976D01*
X10159405Y-15507976D02*
X10149881Y-15488928D01*
X10149881Y-15488928D02*
X10140357Y-15450833D01*
X10140357Y-15450833D02*
X10140357Y-15403214D01*
X10140357Y-15403214D02*
X10149881Y-15365119D01*
X10149881Y-15365119D02*
X10159405Y-15346071D01*
X10159405Y-15346071D02*
X10168929Y-15336548D01*
X10168929Y-15336548D02*
X10187976Y-15327024D01*
X10340357Y-15507976D02*
X10349881Y-15517500D01*
X10349881Y-15517500D02*
X10340357Y-15527024D01*
X10340357Y-15527024D02*
X10330834Y-15517500D01*
X10330834Y-15517500D02*
X10340357Y-15507976D01*
X10340357Y-15507976D02*
X10340357Y-15527024D01*
X10473691Y-15327024D02*
X10492738Y-15327024D01*
X10492738Y-15327024D02*
X10511786Y-15336548D01*
X10511786Y-15336548D02*
X10521310Y-15346071D01*
X10521310Y-15346071D02*
X10530834Y-15365119D01*
X10530834Y-15365119D02*
X10540357Y-15403214D01*
X10540357Y-15403214D02*
X10540357Y-15450833D01*
X10540357Y-15450833D02*
X10530834Y-15488928D01*
X10530834Y-15488928D02*
X10521310Y-15507976D01*
X10521310Y-15507976D02*
X10511786Y-15517500D01*
X10511786Y-15517500D02*
X10492738Y-15527024D01*
X10492738Y-15527024D02*
X10473691Y-15527024D01*
X10473691Y-15527024D02*
X10454643Y-15517500D01*
X10454643Y-15517500D02*
X10445119Y-15507976D01*
X10445119Y-15507976D02*
X10435595Y-15488928D01*
X10435595Y-15488928D02*
X10426072Y-15450833D01*
X10426072Y-15450833D02*
X10426072Y-15403214D01*
X10426072Y-15403214D02*
X10435595Y-15365119D01*
X10435595Y-15365119D02*
X10445119Y-15346071D01*
X10445119Y-15346071D02*
X10454643Y-15336548D01*
X10454643Y-15336548D02*
X10473691Y-15327024D01*
X10607024Y-15327024D02*
X10730834Y-15327024D01*
X10730834Y-15327024D02*
X10664167Y-15403214D01*
X10664167Y-15403214D02*
X10692738Y-15403214D01*
X10692738Y-15403214D02*
X10711786Y-15412738D01*
X10711786Y-15412738D02*
X10721310Y-15422262D01*
X10721310Y-15422262D02*
X10730834Y-15441309D01*
X10730834Y-15441309D02*
X10730834Y-15488928D01*
X10730834Y-15488928D02*
X10721310Y-15507976D01*
X10721310Y-15507976D02*
X10711786Y-15517500D01*
X10711786Y-15517500D02*
X10692738Y-15527024D01*
X10692738Y-15527024D02*
X10635595Y-15527024D01*
X10635595Y-15527024D02*
X10616548Y-15517500D01*
X10616548Y-15517500D02*
X10607024Y-15507976D01*
X10826072Y-15527024D02*
X10864167Y-15527024D01*
X10864167Y-15527024D02*
X10883215Y-15517500D01*
X10883215Y-15517500D02*
X10892738Y-15507976D01*
X10892738Y-15507976D02*
X10911786Y-15479405D01*
X10911786Y-15479405D02*
X10921310Y-15441309D01*
X10921310Y-15441309D02*
X10921310Y-15365119D01*
X10921310Y-15365119D02*
X10911786Y-15346071D01*
X10911786Y-15346071D02*
X10902262Y-15336548D01*
X10902262Y-15336548D02*
X10883215Y-15327024D01*
X10883215Y-15327024D02*
X10845119Y-15327024D01*
X10845119Y-15327024D02*
X10826072Y-15336548D01*
X10826072Y-15336548D02*
X10816548Y-15346071D01*
X10816548Y-15346071D02*
X10807024Y-15365119D01*
X10807024Y-15365119D02*
X10807024Y-15412738D01*
X10807024Y-15412738D02*
X10816548Y-15431786D01*
X10816548Y-15431786D02*
X10826072Y-15441309D01*
X10826072Y-15441309D02*
X10845119Y-15450833D01*
X10845119Y-15450833D02*
X10883215Y-15450833D01*
X10883215Y-15450833D02*
X10902262Y-15441309D01*
X10902262Y-15441309D02*
X10911786Y-15431786D01*
X10911786Y-15431786D02*
X10921310Y-15412738D01*
X11092738Y-15393690D02*
X11092738Y-15527024D01*
X11045119Y-15317500D02*
X10997500Y-15460357D01*
X10997500Y-15460357D02*
X11121310Y-15460357D01*
X11187976Y-15327024D02*
X11187976Y-15365119D01*
X11264167Y-15327024D02*
X11264167Y-15365119D01*
X11559405Y-15603214D02*
X11549881Y-15593690D01*
X11549881Y-15593690D02*
X11530834Y-15565119D01*
X11530834Y-15565119D02*
X11521310Y-15546071D01*
X11521310Y-15546071D02*
X11511786Y-15517500D01*
X11511786Y-15517500D02*
X11502262Y-15469881D01*
X11502262Y-15469881D02*
X11502262Y-15431786D01*
X11502262Y-15431786D02*
X11511786Y-15384167D01*
X11511786Y-15384167D02*
X11521310Y-15355595D01*
X11521310Y-15355595D02*
X11530834Y-15336548D01*
X11530834Y-15336548D02*
X11549881Y-15307976D01*
X11549881Y-15307976D02*
X11559405Y-15298452D01*
X11721310Y-15393690D02*
X11721310Y-15527024D01*
X11673691Y-15317500D02*
X11626072Y-15460357D01*
X11626072Y-15460357D02*
X11749881Y-15460357D01*
X11978453Y-15527024D02*
X11978453Y-15327024D01*
X12064167Y-15527024D02*
X12064167Y-15422262D01*
X12064167Y-15422262D02*
X12054643Y-15403214D01*
X12054643Y-15403214D02*
X12035596Y-15393690D01*
X12035596Y-15393690D02*
X12007024Y-15393690D01*
X12007024Y-15393690D02*
X11987976Y-15403214D01*
X11987976Y-15403214D02*
X11978453Y-15412738D01*
X12187976Y-15527024D02*
X12168929Y-15517500D01*
X12168929Y-15517500D02*
X12159405Y-15507976D01*
X12159405Y-15507976D02*
X12149881Y-15488928D01*
X12149881Y-15488928D02*
X12149881Y-15431786D01*
X12149881Y-15431786D02*
X12159405Y-15412738D01*
X12159405Y-15412738D02*
X12168929Y-15403214D01*
X12168929Y-15403214D02*
X12187976Y-15393690D01*
X12187976Y-15393690D02*
X12216548Y-15393690D01*
X12216548Y-15393690D02*
X12235596Y-15403214D01*
X12235596Y-15403214D02*
X12245119Y-15412738D01*
X12245119Y-15412738D02*
X12254643Y-15431786D01*
X12254643Y-15431786D02*
X12254643Y-15488928D01*
X12254643Y-15488928D02*
X12245119Y-15507976D01*
X12245119Y-15507976D02*
X12235596Y-15517500D01*
X12235596Y-15517500D02*
X12216548Y-15527024D01*
X12216548Y-15527024D02*
X12187976Y-15527024D01*
X12368929Y-15527024D02*
X12349881Y-15517500D01*
X12349881Y-15517500D02*
X12340357Y-15498452D01*
X12340357Y-15498452D02*
X12340357Y-15327024D01*
X12521310Y-15517500D02*
X12502262Y-15527024D01*
X12502262Y-15527024D02*
X12464167Y-15527024D01*
X12464167Y-15527024D02*
X12445119Y-15517500D01*
X12445119Y-15517500D02*
X12435596Y-15498452D01*
X12435596Y-15498452D02*
X12435596Y-15422262D01*
X12435596Y-15422262D02*
X12445119Y-15403214D01*
X12445119Y-15403214D02*
X12464167Y-15393690D01*
X12464167Y-15393690D02*
X12502262Y-15393690D01*
X12502262Y-15393690D02*
X12521310Y-15403214D01*
X12521310Y-15403214D02*
X12530834Y-15422262D01*
X12530834Y-15422262D02*
X12530834Y-15441309D01*
X12530834Y-15441309D02*
X12435596Y-15460357D01*
X12607024Y-15517500D02*
X12626072Y-15527024D01*
X12626072Y-15527024D02*
X12664167Y-15527024D01*
X12664167Y-15527024D02*
X12683215Y-15517500D01*
X12683215Y-15517500D02*
X12692738Y-15498452D01*
X12692738Y-15498452D02*
X12692738Y-15488928D01*
X12692738Y-15488928D02*
X12683215Y-15469881D01*
X12683215Y-15469881D02*
X12664167Y-15460357D01*
X12664167Y-15460357D02*
X12635596Y-15460357D01*
X12635596Y-15460357D02*
X12616548Y-15450833D01*
X12616548Y-15450833D02*
X12607024Y-15431786D01*
X12607024Y-15431786D02*
X12607024Y-15422262D01*
X12607024Y-15422262D02*
X12616548Y-15403214D01*
X12616548Y-15403214D02*
X12635596Y-15393690D01*
X12635596Y-15393690D02*
X12664167Y-15393690D01*
X12664167Y-15393690D02*
X12683215Y-15403214D01*
X12930834Y-15450833D02*
X13083215Y-15450833D01*
X13007024Y-15527024D02*
X13007024Y-15374643D01*
X13311786Y-15327024D02*
X13435596Y-15327024D01*
X13435596Y-15327024D02*
X13368929Y-15403214D01*
X13368929Y-15403214D02*
X13397500Y-15403214D01*
X13397500Y-15403214D02*
X13416548Y-15412738D01*
X13416548Y-15412738D02*
X13426072Y-15422262D01*
X13426072Y-15422262D02*
X13435596Y-15441309D01*
X13435596Y-15441309D02*
X13435596Y-15488928D01*
X13435596Y-15488928D02*
X13426072Y-15507976D01*
X13426072Y-15507976D02*
X13416548Y-15517500D01*
X13416548Y-15517500D02*
X13397500Y-15527024D01*
X13397500Y-15527024D02*
X13340358Y-15527024D01*
X13340358Y-15527024D02*
X13321310Y-15517500D01*
X13321310Y-15517500D02*
X13311786Y-15507976D01*
X13664167Y-15517500D02*
X13683215Y-15527024D01*
X13683215Y-15527024D02*
X13721310Y-15527024D01*
X13721310Y-15527024D02*
X13740358Y-15517500D01*
X13740358Y-15517500D02*
X13749881Y-15498452D01*
X13749881Y-15498452D02*
X13749881Y-15488928D01*
X13749881Y-15488928D02*
X13740358Y-15469881D01*
X13740358Y-15469881D02*
X13721310Y-15460357D01*
X13721310Y-15460357D02*
X13692739Y-15460357D01*
X13692739Y-15460357D02*
X13673691Y-15450833D01*
X13673691Y-15450833D02*
X13664167Y-15431786D01*
X13664167Y-15431786D02*
X13664167Y-15422262D01*
X13664167Y-15422262D02*
X13673691Y-15403214D01*
X13673691Y-15403214D02*
X13692739Y-15393690D01*
X13692739Y-15393690D02*
X13721310Y-15393690D01*
X13721310Y-15393690D02*
X13740358Y-15403214D01*
X13864167Y-15527024D02*
X13845120Y-15517500D01*
X13845120Y-15517500D02*
X13835596Y-15498452D01*
X13835596Y-15498452D02*
X13835596Y-15327024D01*
X13968929Y-15527024D02*
X13949881Y-15517500D01*
X13949881Y-15517500D02*
X13940358Y-15507976D01*
X13940358Y-15507976D02*
X13930834Y-15488928D01*
X13930834Y-15488928D02*
X13930834Y-15431786D01*
X13930834Y-15431786D02*
X13940358Y-15412738D01*
X13940358Y-15412738D02*
X13949881Y-15403214D01*
X13949881Y-15403214D02*
X13968929Y-15393690D01*
X13968929Y-15393690D02*
X13997501Y-15393690D01*
X13997501Y-15393690D02*
X14016548Y-15403214D01*
X14016548Y-15403214D02*
X14026072Y-15412738D01*
X14026072Y-15412738D02*
X14035596Y-15431786D01*
X14035596Y-15431786D02*
X14035596Y-15488928D01*
X14035596Y-15488928D02*
X14026072Y-15507976D01*
X14026072Y-15507976D02*
X14016548Y-15517500D01*
X14016548Y-15517500D02*
X13997501Y-15527024D01*
X13997501Y-15527024D02*
X13968929Y-15527024D01*
X14092739Y-15393690D02*
X14168929Y-15393690D01*
X14121310Y-15327024D02*
X14121310Y-15498452D01*
X14121310Y-15498452D02*
X14130834Y-15517500D01*
X14130834Y-15517500D02*
X14149881Y-15527024D01*
X14149881Y-15527024D02*
X14168929Y-15527024D01*
X14226072Y-15517500D02*
X14245120Y-15527024D01*
X14245120Y-15527024D02*
X14283215Y-15527024D01*
X14283215Y-15527024D02*
X14302262Y-15517500D01*
X14302262Y-15517500D02*
X14311786Y-15498452D01*
X14311786Y-15498452D02*
X14311786Y-15488928D01*
X14311786Y-15488928D02*
X14302262Y-15469881D01*
X14302262Y-15469881D02*
X14283215Y-15460357D01*
X14283215Y-15460357D02*
X14254643Y-15460357D01*
X14254643Y-15460357D02*
X14235596Y-15450833D01*
X14235596Y-15450833D02*
X14226072Y-15431786D01*
X14226072Y-15431786D02*
X14226072Y-15422262D01*
X14226072Y-15422262D02*
X14235596Y-15403214D01*
X14235596Y-15403214D02*
X14254643Y-15393690D01*
X14254643Y-15393690D02*
X14283215Y-15393690D01*
X14283215Y-15393690D02*
X14302262Y-15403214D01*
X14378453Y-15603214D02*
X14387977Y-15593690D01*
X14387977Y-15593690D02*
X14407024Y-15565119D01*
X14407024Y-15565119D02*
X14416548Y-15546071D01*
X14416548Y-15546071D02*
X14426072Y-15517500D01*
X14426072Y-15517500D02*
X14435596Y-15469881D01*
X14435596Y-15469881D02*
X14435596Y-15431786D01*
X14435596Y-15431786D02*
X14426072Y-15384167D01*
X14426072Y-15384167D02*
X14416548Y-15355595D01*
X14416548Y-15355595D02*
X14407024Y-15336548D01*
X14407024Y-15336548D02*
X14387977Y-15307976D01*
X14387977Y-15307976D02*
X14378453Y-15298452D01*
D15*
X7933000Y-15763000D02*
X7997500Y-15698500D01*
X7933000Y-15634000D01*
X7868500Y-15698500D01*
X7933000Y-15763000D01*
D11*
X8349881Y-15791024D02*
X8235595Y-15791024D01*
X8292738Y-15791024D02*
X8292738Y-15591024D01*
X8292738Y-15591024D02*
X8273690Y-15619595D01*
X8273690Y-15619595D02*
X8254643Y-15638643D01*
X8254643Y-15638643D02*
X8235595Y-15648167D01*
X8435595Y-15771976D02*
X8445119Y-15781500D01*
X8445119Y-15781500D02*
X8435595Y-15791024D01*
X8435595Y-15791024D02*
X8426071Y-15781500D01*
X8426071Y-15781500D02*
X8435595Y-15771976D01*
X8435595Y-15771976D02*
X8435595Y-15791024D01*
X8521310Y-15610071D02*
X8530833Y-15600548D01*
X8530833Y-15600548D02*
X8549881Y-15591024D01*
X8549881Y-15591024D02*
X8597500Y-15591024D01*
X8597500Y-15591024D02*
X8616548Y-15600548D01*
X8616548Y-15600548D02*
X8626071Y-15610071D01*
X8626071Y-15610071D02*
X8635595Y-15629119D01*
X8635595Y-15629119D02*
X8635595Y-15648167D01*
X8635595Y-15648167D02*
X8626071Y-15676738D01*
X8626071Y-15676738D02*
X8511786Y-15791024D01*
X8511786Y-15791024D02*
X8635595Y-15791024D01*
X8730833Y-15791024D02*
X8768929Y-15791024D01*
X8768929Y-15791024D02*
X8787976Y-15781500D01*
X8787976Y-15781500D02*
X8797500Y-15771976D01*
X8797500Y-15771976D02*
X8816548Y-15743405D01*
X8816548Y-15743405D02*
X8826071Y-15705309D01*
X8826071Y-15705309D02*
X8826071Y-15629119D01*
X8826071Y-15629119D02*
X8816548Y-15610071D01*
X8816548Y-15610071D02*
X8807024Y-15600548D01*
X8807024Y-15600548D02*
X8787976Y-15591024D01*
X8787976Y-15591024D02*
X8749881Y-15591024D01*
X8749881Y-15591024D02*
X8730833Y-15600548D01*
X8730833Y-15600548D02*
X8721310Y-15610071D01*
X8721310Y-15610071D02*
X8711786Y-15629119D01*
X8711786Y-15629119D02*
X8711786Y-15676738D01*
X8711786Y-15676738D02*
X8721310Y-15695786D01*
X8721310Y-15695786D02*
X8730833Y-15705309D01*
X8730833Y-15705309D02*
X8749881Y-15714833D01*
X8749881Y-15714833D02*
X8787976Y-15714833D01*
X8787976Y-15714833D02*
X8807024Y-15705309D01*
X8807024Y-15705309D02*
X8816548Y-15695786D01*
X8816548Y-15695786D02*
X8826071Y-15676738D01*
X8949881Y-15591024D02*
X8968929Y-15591024D01*
X8968929Y-15591024D02*
X8987976Y-15600548D01*
X8987976Y-15600548D02*
X8997500Y-15610071D01*
X8997500Y-15610071D02*
X9007024Y-15629119D01*
X9007024Y-15629119D02*
X9016548Y-15667214D01*
X9016548Y-15667214D02*
X9016548Y-15714833D01*
X9016548Y-15714833D02*
X9007024Y-15752928D01*
X9007024Y-15752928D02*
X8997500Y-15771976D01*
X8997500Y-15771976D02*
X8987976Y-15781500D01*
X8987976Y-15781500D02*
X8968929Y-15791024D01*
X8968929Y-15791024D02*
X8949881Y-15791024D01*
X8949881Y-15791024D02*
X8930833Y-15781500D01*
X8930833Y-15781500D02*
X8921310Y-15771976D01*
X8921310Y-15771976D02*
X8911786Y-15752928D01*
X8911786Y-15752928D02*
X8902262Y-15714833D01*
X8902262Y-15714833D02*
X8902262Y-15667214D01*
X8902262Y-15667214D02*
X8911786Y-15629119D01*
X8911786Y-15629119D02*
X8921310Y-15610071D01*
X8921310Y-15610071D02*
X8930833Y-15600548D01*
X8930833Y-15600548D02*
X8949881Y-15591024D01*
X9102262Y-15791024D02*
X9102262Y-15657690D01*
X9102262Y-15676738D02*
X9111786Y-15667214D01*
X9111786Y-15667214D02*
X9130833Y-15657690D01*
X9130833Y-15657690D02*
X9159405Y-15657690D01*
X9159405Y-15657690D02*
X9178452Y-15667214D01*
X9178452Y-15667214D02*
X9187976Y-15686262D01*
X9187976Y-15686262D02*
X9187976Y-15791024D01*
X9187976Y-15686262D02*
X9197500Y-15667214D01*
X9197500Y-15667214D02*
X9216548Y-15657690D01*
X9216548Y-15657690D02*
X9245119Y-15657690D01*
X9245119Y-15657690D02*
X9264167Y-15667214D01*
X9264167Y-15667214D02*
X9273691Y-15686262D01*
X9273691Y-15686262D02*
X9273691Y-15791024D01*
X9368929Y-15791024D02*
X9368929Y-15657690D01*
X9368929Y-15676738D02*
X9378452Y-15667214D01*
X9378452Y-15667214D02*
X9397500Y-15657690D01*
X9397500Y-15657690D02*
X9426072Y-15657690D01*
X9426072Y-15657690D02*
X9445119Y-15667214D01*
X9445119Y-15667214D02*
X9454643Y-15686262D01*
X9454643Y-15686262D02*
X9454643Y-15791024D01*
X9454643Y-15686262D02*
X9464167Y-15667214D01*
X9464167Y-15667214D02*
X9483214Y-15657690D01*
X9483214Y-15657690D02*
X9511786Y-15657690D01*
X9511786Y-15657690D02*
X9530833Y-15667214D01*
X9530833Y-15667214D02*
X9540357Y-15686262D01*
X9540357Y-15686262D02*
X9540357Y-15791024D01*
X9930833Y-15581500D02*
X9759405Y-15838643D01*
X10187976Y-15591024D02*
X10207024Y-15591024D01*
X10207024Y-15591024D02*
X10226072Y-15600548D01*
X10226072Y-15600548D02*
X10235595Y-15610071D01*
X10235595Y-15610071D02*
X10245119Y-15629119D01*
X10245119Y-15629119D02*
X10254643Y-15667214D01*
X10254643Y-15667214D02*
X10254643Y-15714833D01*
X10254643Y-15714833D02*
X10245119Y-15752928D01*
X10245119Y-15752928D02*
X10235595Y-15771976D01*
X10235595Y-15771976D02*
X10226072Y-15781500D01*
X10226072Y-15781500D02*
X10207024Y-15791024D01*
X10207024Y-15791024D02*
X10187976Y-15791024D01*
X10187976Y-15791024D02*
X10168929Y-15781500D01*
X10168929Y-15781500D02*
X10159405Y-15771976D01*
X10159405Y-15771976D02*
X10149881Y-15752928D01*
X10149881Y-15752928D02*
X10140357Y-15714833D01*
X10140357Y-15714833D02*
X10140357Y-15667214D01*
X10140357Y-15667214D02*
X10149881Y-15629119D01*
X10149881Y-15629119D02*
X10159405Y-15610071D01*
X10159405Y-15610071D02*
X10168929Y-15600548D01*
X10168929Y-15600548D02*
X10187976Y-15591024D01*
X10340357Y-15771976D02*
X10349881Y-15781500D01*
X10349881Y-15781500D02*
X10340357Y-15791024D01*
X10340357Y-15791024D02*
X10330834Y-15781500D01*
X10330834Y-15781500D02*
X10340357Y-15771976D01*
X10340357Y-15771976D02*
X10340357Y-15791024D01*
X10473691Y-15591024D02*
X10492738Y-15591024D01*
X10492738Y-15591024D02*
X10511786Y-15600548D01*
X10511786Y-15600548D02*
X10521310Y-15610071D01*
X10521310Y-15610071D02*
X10530834Y-15629119D01*
X10530834Y-15629119D02*
X10540357Y-15667214D01*
X10540357Y-15667214D02*
X10540357Y-15714833D01*
X10540357Y-15714833D02*
X10530834Y-15752928D01*
X10530834Y-15752928D02*
X10521310Y-15771976D01*
X10521310Y-15771976D02*
X10511786Y-15781500D01*
X10511786Y-15781500D02*
X10492738Y-15791024D01*
X10492738Y-15791024D02*
X10473691Y-15791024D01*
X10473691Y-15791024D02*
X10454643Y-15781500D01*
X10454643Y-15781500D02*
X10445119Y-15771976D01*
X10445119Y-15771976D02*
X10435595Y-15752928D01*
X10435595Y-15752928D02*
X10426072Y-15714833D01*
X10426072Y-15714833D02*
X10426072Y-15667214D01*
X10426072Y-15667214D02*
X10435595Y-15629119D01*
X10435595Y-15629119D02*
X10445119Y-15610071D01*
X10445119Y-15610071D02*
X10454643Y-15600548D01*
X10454643Y-15600548D02*
X10473691Y-15591024D01*
X10721310Y-15591024D02*
X10626072Y-15591024D01*
X10626072Y-15591024D02*
X10616548Y-15686262D01*
X10616548Y-15686262D02*
X10626072Y-15676738D01*
X10626072Y-15676738D02*
X10645119Y-15667214D01*
X10645119Y-15667214D02*
X10692738Y-15667214D01*
X10692738Y-15667214D02*
X10711786Y-15676738D01*
X10711786Y-15676738D02*
X10721310Y-15686262D01*
X10721310Y-15686262D02*
X10730834Y-15705309D01*
X10730834Y-15705309D02*
X10730834Y-15752928D01*
X10730834Y-15752928D02*
X10721310Y-15771976D01*
X10721310Y-15771976D02*
X10711786Y-15781500D01*
X10711786Y-15781500D02*
X10692738Y-15791024D01*
X10692738Y-15791024D02*
X10645119Y-15791024D01*
X10645119Y-15791024D02*
X10626072Y-15781500D01*
X10626072Y-15781500D02*
X10616548Y-15771976D01*
X10854643Y-15591024D02*
X10873691Y-15591024D01*
X10873691Y-15591024D02*
X10892738Y-15600548D01*
X10892738Y-15600548D02*
X10902262Y-15610071D01*
X10902262Y-15610071D02*
X10911786Y-15629119D01*
X10911786Y-15629119D02*
X10921310Y-15667214D01*
X10921310Y-15667214D02*
X10921310Y-15714833D01*
X10921310Y-15714833D02*
X10911786Y-15752928D01*
X10911786Y-15752928D02*
X10902262Y-15771976D01*
X10902262Y-15771976D02*
X10892738Y-15781500D01*
X10892738Y-15781500D02*
X10873691Y-15791024D01*
X10873691Y-15791024D02*
X10854643Y-15791024D01*
X10854643Y-15791024D02*
X10835595Y-15781500D01*
X10835595Y-15781500D02*
X10826072Y-15771976D01*
X10826072Y-15771976D02*
X10816548Y-15752928D01*
X10816548Y-15752928D02*
X10807024Y-15714833D01*
X10807024Y-15714833D02*
X10807024Y-15667214D01*
X10807024Y-15667214D02*
X10816548Y-15629119D01*
X10816548Y-15629119D02*
X10826072Y-15610071D01*
X10826072Y-15610071D02*
X10835595Y-15600548D01*
X10835595Y-15600548D02*
X10854643Y-15591024D01*
X11035595Y-15676738D02*
X11016548Y-15667214D01*
X11016548Y-15667214D02*
X11007024Y-15657690D01*
X11007024Y-15657690D02*
X10997500Y-15638643D01*
X10997500Y-15638643D02*
X10997500Y-15629119D01*
X10997500Y-15629119D02*
X11007024Y-15610071D01*
X11007024Y-15610071D02*
X11016548Y-15600548D01*
X11016548Y-15600548D02*
X11035595Y-15591024D01*
X11035595Y-15591024D02*
X11073691Y-15591024D01*
X11073691Y-15591024D02*
X11092738Y-15600548D01*
X11092738Y-15600548D02*
X11102262Y-15610071D01*
X11102262Y-15610071D02*
X11111786Y-15629119D01*
X11111786Y-15629119D02*
X11111786Y-15638643D01*
X11111786Y-15638643D02*
X11102262Y-15657690D01*
X11102262Y-15657690D02*
X11092738Y-15667214D01*
X11092738Y-15667214D02*
X11073691Y-15676738D01*
X11073691Y-15676738D02*
X11035595Y-15676738D01*
X11035595Y-15676738D02*
X11016548Y-15686262D01*
X11016548Y-15686262D02*
X11007024Y-15695786D01*
X11007024Y-15695786D02*
X10997500Y-15714833D01*
X10997500Y-15714833D02*
X10997500Y-15752928D01*
X10997500Y-15752928D02*
X11007024Y-15771976D01*
X11007024Y-15771976D02*
X11016548Y-15781500D01*
X11016548Y-15781500D02*
X11035595Y-15791024D01*
X11035595Y-15791024D02*
X11073691Y-15791024D01*
X11073691Y-15791024D02*
X11092738Y-15781500D01*
X11092738Y-15781500D02*
X11102262Y-15771976D01*
X11102262Y-15771976D02*
X11111786Y-15752928D01*
X11111786Y-15752928D02*
X11111786Y-15714833D01*
X11111786Y-15714833D02*
X11102262Y-15695786D01*
X11102262Y-15695786D02*
X11092738Y-15686262D01*
X11092738Y-15686262D02*
X11073691Y-15676738D01*
X11187976Y-15591024D02*
X11187976Y-15629119D01*
X11264167Y-15591024D02*
X11264167Y-15629119D01*
X11559405Y-15867214D02*
X11549881Y-15857690D01*
X11549881Y-15857690D02*
X11530834Y-15829119D01*
X11530834Y-15829119D02*
X11521310Y-15810071D01*
X11521310Y-15810071D02*
X11511786Y-15781500D01*
X11511786Y-15781500D02*
X11502262Y-15733881D01*
X11502262Y-15733881D02*
X11502262Y-15695786D01*
X11502262Y-15695786D02*
X11511786Y-15648167D01*
X11511786Y-15648167D02*
X11521310Y-15619595D01*
X11521310Y-15619595D02*
X11530834Y-15600548D01*
X11530834Y-15600548D02*
X11549881Y-15571976D01*
X11549881Y-15571976D02*
X11559405Y-15562452D01*
X11740357Y-15791024D02*
X11626072Y-15791024D01*
X11683214Y-15791024D02*
X11683214Y-15591024D01*
X11683214Y-15591024D02*
X11664167Y-15619595D01*
X11664167Y-15619595D02*
X11645119Y-15638643D01*
X11645119Y-15638643D02*
X11626072Y-15648167D01*
X11978453Y-15791024D02*
X11978453Y-15591024D01*
X12064167Y-15791024D02*
X12064167Y-15686262D01*
X12064167Y-15686262D02*
X12054643Y-15667214D01*
X12054643Y-15667214D02*
X12035596Y-15657690D01*
X12035596Y-15657690D02*
X12007024Y-15657690D01*
X12007024Y-15657690D02*
X11987976Y-15667214D01*
X11987976Y-15667214D02*
X11978453Y-15676738D01*
X12187976Y-15791024D02*
X12168929Y-15781500D01*
X12168929Y-15781500D02*
X12159405Y-15771976D01*
X12159405Y-15771976D02*
X12149881Y-15752928D01*
X12149881Y-15752928D02*
X12149881Y-15695786D01*
X12149881Y-15695786D02*
X12159405Y-15676738D01*
X12159405Y-15676738D02*
X12168929Y-15667214D01*
X12168929Y-15667214D02*
X12187976Y-15657690D01*
X12187976Y-15657690D02*
X12216548Y-15657690D01*
X12216548Y-15657690D02*
X12235596Y-15667214D01*
X12235596Y-15667214D02*
X12245119Y-15676738D01*
X12245119Y-15676738D02*
X12254643Y-15695786D01*
X12254643Y-15695786D02*
X12254643Y-15752928D01*
X12254643Y-15752928D02*
X12245119Y-15771976D01*
X12245119Y-15771976D02*
X12235596Y-15781500D01*
X12235596Y-15781500D02*
X12216548Y-15791024D01*
X12216548Y-15791024D02*
X12187976Y-15791024D01*
X12368929Y-15791024D02*
X12349881Y-15781500D01*
X12349881Y-15781500D02*
X12340357Y-15762452D01*
X12340357Y-15762452D02*
X12340357Y-15591024D01*
X12521310Y-15781500D02*
X12502262Y-15791024D01*
X12502262Y-15791024D02*
X12464167Y-15791024D01*
X12464167Y-15791024D02*
X12445119Y-15781500D01*
X12445119Y-15781500D02*
X12435596Y-15762452D01*
X12435596Y-15762452D02*
X12435596Y-15686262D01*
X12435596Y-15686262D02*
X12445119Y-15667214D01*
X12445119Y-15667214D02*
X12464167Y-15657690D01*
X12464167Y-15657690D02*
X12502262Y-15657690D01*
X12502262Y-15657690D02*
X12521310Y-15667214D01*
X12521310Y-15667214D02*
X12530834Y-15686262D01*
X12530834Y-15686262D02*
X12530834Y-15705309D01*
X12530834Y-15705309D02*
X12435596Y-15724357D01*
X12597500Y-15867214D02*
X12607024Y-15857690D01*
X12607024Y-15857690D02*
X12626072Y-15829119D01*
X12626072Y-15829119D02*
X12635596Y-15810071D01*
X12635596Y-15810071D02*
X12645119Y-15781500D01*
X12645119Y-15781500D02*
X12654643Y-15733881D01*
X12654643Y-15733881D02*
X12654643Y-15695786D01*
X12654643Y-15695786D02*
X12645119Y-15648167D01*
X12645119Y-15648167D02*
X12635596Y-15619595D01*
X12635596Y-15619595D02*
X12626072Y-15600548D01*
X12626072Y-15600548D02*
X12607024Y-15571976D01*
X12607024Y-15571976D02*
X12597500Y-15562452D01*
D16*
X7865500Y-15896500D02*
X7997500Y-16028500D01*
X7997500Y-15896500D02*
X7865500Y-16028500D01*
X7997500Y-15962500D02*
G75*
G03*
X7997500Y-15962500I-66000J0D01*
G01*
D11*
X8349881Y-16055024D02*
X8235595Y-16055024D01*
X8292738Y-16055024D02*
X8292738Y-15855024D01*
X8292738Y-15855024D02*
X8273690Y-15883595D01*
X8273690Y-15883595D02*
X8254643Y-15902643D01*
X8254643Y-15902643D02*
X8235595Y-15912167D01*
X8435595Y-16035976D02*
X8445119Y-16045500D01*
X8445119Y-16045500D02*
X8435595Y-16055024D01*
X8435595Y-16055024D02*
X8426071Y-16045500D01*
X8426071Y-16045500D02*
X8435595Y-16035976D01*
X8435595Y-16035976D02*
X8435595Y-16055024D01*
X8511786Y-15855024D02*
X8635595Y-15855024D01*
X8635595Y-15855024D02*
X8568929Y-15931214D01*
X8568929Y-15931214D02*
X8597500Y-15931214D01*
X8597500Y-15931214D02*
X8616548Y-15940738D01*
X8616548Y-15940738D02*
X8626071Y-15950262D01*
X8626071Y-15950262D02*
X8635595Y-15969309D01*
X8635595Y-15969309D02*
X8635595Y-16016928D01*
X8635595Y-16016928D02*
X8626071Y-16035976D01*
X8626071Y-16035976D02*
X8616548Y-16045500D01*
X8616548Y-16045500D02*
X8597500Y-16055024D01*
X8597500Y-16055024D02*
X8540357Y-16055024D01*
X8540357Y-16055024D02*
X8521310Y-16045500D01*
X8521310Y-16045500D02*
X8511786Y-16035976D01*
X8711786Y-15874071D02*
X8721310Y-15864548D01*
X8721310Y-15864548D02*
X8740357Y-15855024D01*
X8740357Y-15855024D02*
X8787976Y-15855024D01*
X8787976Y-15855024D02*
X8807024Y-15864548D01*
X8807024Y-15864548D02*
X8816548Y-15874071D01*
X8816548Y-15874071D02*
X8826071Y-15893119D01*
X8826071Y-15893119D02*
X8826071Y-15912167D01*
X8826071Y-15912167D02*
X8816548Y-15940738D01*
X8816548Y-15940738D02*
X8702262Y-16055024D01*
X8702262Y-16055024D02*
X8826071Y-16055024D01*
X8949881Y-15855024D02*
X8968929Y-15855024D01*
X8968929Y-15855024D02*
X8987976Y-15864548D01*
X8987976Y-15864548D02*
X8997500Y-15874071D01*
X8997500Y-15874071D02*
X9007024Y-15893119D01*
X9007024Y-15893119D02*
X9016548Y-15931214D01*
X9016548Y-15931214D02*
X9016548Y-15978833D01*
X9016548Y-15978833D02*
X9007024Y-16016928D01*
X9007024Y-16016928D02*
X8997500Y-16035976D01*
X8997500Y-16035976D02*
X8987976Y-16045500D01*
X8987976Y-16045500D02*
X8968929Y-16055024D01*
X8968929Y-16055024D02*
X8949881Y-16055024D01*
X8949881Y-16055024D02*
X8930833Y-16045500D01*
X8930833Y-16045500D02*
X8921310Y-16035976D01*
X8921310Y-16035976D02*
X8911786Y-16016928D01*
X8911786Y-16016928D02*
X8902262Y-15978833D01*
X8902262Y-15978833D02*
X8902262Y-15931214D01*
X8902262Y-15931214D02*
X8911786Y-15893119D01*
X8911786Y-15893119D02*
X8921310Y-15874071D01*
X8921310Y-15874071D02*
X8930833Y-15864548D01*
X8930833Y-15864548D02*
X8949881Y-15855024D01*
X9102262Y-16055024D02*
X9102262Y-15921690D01*
X9102262Y-15940738D02*
X9111786Y-15931214D01*
X9111786Y-15931214D02*
X9130833Y-15921690D01*
X9130833Y-15921690D02*
X9159405Y-15921690D01*
X9159405Y-15921690D02*
X9178452Y-15931214D01*
X9178452Y-15931214D02*
X9187976Y-15950262D01*
X9187976Y-15950262D02*
X9187976Y-16055024D01*
X9187976Y-15950262D02*
X9197500Y-15931214D01*
X9197500Y-15931214D02*
X9216548Y-15921690D01*
X9216548Y-15921690D02*
X9245119Y-15921690D01*
X9245119Y-15921690D02*
X9264167Y-15931214D01*
X9264167Y-15931214D02*
X9273691Y-15950262D01*
X9273691Y-15950262D02*
X9273691Y-16055024D01*
X9368929Y-16055024D02*
X9368929Y-15921690D01*
X9368929Y-15940738D02*
X9378452Y-15931214D01*
X9378452Y-15931214D02*
X9397500Y-15921690D01*
X9397500Y-15921690D02*
X9426072Y-15921690D01*
X9426072Y-15921690D02*
X9445119Y-15931214D01*
X9445119Y-15931214D02*
X9454643Y-15950262D01*
X9454643Y-15950262D02*
X9454643Y-16055024D01*
X9454643Y-15950262D02*
X9464167Y-15931214D01*
X9464167Y-15931214D02*
X9483214Y-15921690D01*
X9483214Y-15921690D02*
X9511786Y-15921690D01*
X9511786Y-15921690D02*
X9530833Y-15931214D01*
X9530833Y-15931214D02*
X9540357Y-15950262D01*
X9540357Y-15950262D02*
X9540357Y-16055024D01*
X9930833Y-15845500D02*
X9759405Y-16102643D01*
X10187976Y-15855024D02*
X10207024Y-15855024D01*
X10207024Y-15855024D02*
X10226072Y-15864548D01*
X10226072Y-15864548D02*
X10235595Y-15874071D01*
X10235595Y-15874071D02*
X10245119Y-15893119D01*
X10245119Y-15893119D02*
X10254643Y-15931214D01*
X10254643Y-15931214D02*
X10254643Y-15978833D01*
X10254643Y-15978833D02*
X10245119Y-16016928D01*
X10245119Y-16016928D02*
X10235595Y-16035976D01*
X10235595Y-16035976D02*
X10226072Y-16045500D01*
X10226072Y-16045500D02*
X10207024Y-16055024D01*
X10207024Y-16055024D02*
X10187976Y-16055024D01*
X10187976Y-16055024D02*
X10168929Y-16045500D01*
X10168929Y-16045500D02*
X10159405Y-16035976D01*
X10159405Y-16035976D02*
X10149881Y-16016928D01*
X10149881Y-16016928D02*
X10140357Y-15978833D01*
X10140357Y-15978833D02*
X10140357Y-15931214D01*
X10140357Y-15931214D02*
X10149881Y-15893119D01*
X10149881Y-15893119D02*
X10159405Y-15874071D01*
X10159405Y-15874071D02*
X10168929Y-15864548D01*
X10168929Y-15864548D02*
X10187976Y-15855024D01*
X10340357Y-16035976D02*
X10349881Y-16045500D01*
X10349881Y-16045500D02*
X10340357Y-16055024D01*
X10340357Y-16055024D02*
X10330834Y-16045500D01*
X10330834Y-16045500D02*
X10340357Y-16035976D01*
X10340357Y-16035976D02*
X10340357Y-16055024D01*
X10473691Y-15855024D02*
X10492738Y-15855024D01*
X10492738Y-15855024D02*
X10511786Y-15864548D01*
X10511786Y-15864548D02*
X10521310Y-15874071D01*
X10521310Y-15874071D02*
X10530834Y-15893119D01*
X10530834Y-15893119D02*
X10540357Y-15931214D01*
X10540357Y-15931214D02*
X10540357Y-15978833D01*
X10540357Y-15978833D02*
X10530834Y-16016928D01*
X10530834Y-16016928D02*
X10521310Y-16035976D01*
X10521310Y-16035976D02*
X10511786Y-16045500D01*
X10511786Y-16045500D02*
X10492738Y-16055024D01*
X10492738Y-16055024D02*
X10473691Y-16055024D01*
X10473691Y-16055024D02*
X10454643Y-16045500D01*
X10454643Y-16045500D02*
X10445119Y-16035976D01*
X10445119Y-16035976D02*
X10435595Y-16016928D01*
X10435595Y-16016928D02*
X10426072Y-15978833D01*
X10426072Y-15978833D02*
X10426072Y-15931214D01*
X10426072Y-15931214D02*
X10435595Y-15893119D01*
X10435595Y-15893119D02*
X10445119Y-15874071D01*
X10445119Y-15874071D02*
X10454643Y-15864548D01*
X10454643Y-15864548D02*
X10473691Y-15855024D01*
X10721310Y-15855024D02*
X10626072Y-15855024D01*
X10626072Y-15855024D02*
X10616548Y-15950262D01*
X10616548Y-15950262D02*
X10626072Y-15940738D01*
X10626072Y-15940738D02*
X10645119Y-15931214D01*
X10645119Y-15931214D02*
X10692738Y-15931214D01*
X10692738Y-15931214D02*
X10711786Y-15940738D01*
X10711786Y-15940738D02*
X10721310Y-15950262D01*
X10721310Y-15950262D02*
X10730834Y-15969309D01*
X10730834Y-15969309D02*
X10730834Y-16016928D01*
X10730834Y-16016928D02*
X10721310Y-16035976D01*
X10721310Y-16035976D02*
X10711786Y-16045500D01*
X10711786Y-16045500D02*
X10692738Y-16055024D01*
X10692738Y-16055024D02*
X10645119Y-16055024D01*
X10645119Y-16055024D02*
X10626072Y-16045500D01*
X10626072Y-16045500D02*
X10616548Y-16035976D01*
X10807024Y-15874071D02*
X10816548Y-15864548D01*
X10816548Y-15864548D02*
X10835595Y-15855024D01*
X10835595Y-15855024D02*
X10883215Y-15855024D01*
X10883215Y-15855024D02*
X10902262Y-15864548D01*
X10902262Y-15864548D02*
X10911786Y-15874071D01*
X10911786Y-15874071D02*
X10921310Y-15893119D01*
X10921310Y-15893119D02*
X10921310Y-15912167D01*
X10921310Y-15912167D02*
X10911786Y-15940738D01*
X10911786Y-15940738D02*
X10797500Y-16055024D01*
X10797500Y-16055024D02*
X10921310Y-16055024D01*
X11045119Y-15855024D02*
X11064167Y-15855024D01*
X11064167Y-15855024D02*
X11083215Y-15864548D01*
X11083215Y-15864548D02*
X11092738Y-15874071D01*
X11092738Y-15874071D02*
X11102262Y-15893119D01*
X11102262Y-15893119D02*
X11111786Y-15931214D01*
X11111786Y-15931214D02*
X11111786Y-15978833D01*
X11111786Y-15978833D02*
X11102262Y-16016928D01*
X11102262Y-16016928D02*
X11092738Y-16035976D01*
X11092738Y-16035976D02*
X11083215Y-16045500D01*
X11083215Y-16045500D02*
X11064167Y-16055024D01*
X11064167Y-16055024D02*
X11045119Y-16055024D01*
X11045119Y-16055024D02*
X11026072Y-16045500D01*
X11026072Y-16045500D02*
X11016548Y-16035976D01*
X11016548Y-16035976D02*
X11007024Y-16016928D01*
X11007024Y-16016928D02*
X10997500Y-15978833D01*
X10997500Y-15978833D02*
X10997500Y-15931214D01*
X10997500Y-15931214D02*
X11007024Y-15893119D01*
X11007024Y-15893119D02*
X11016548Y-15874071D01*
X11016548Y-15874071D02*
X11026072Y-15864548D01*
X11026072Y-15864548D02*
X11045119Y-15855024D01*
X11187976Y-15855024D02*
X11187976Y-15893119D01*
X11264167Y-15855024D02*
X11264167Y-15893119D01*
X11559405Y-16131214D02*
X11549881Y-16121690D01*
X11549881Y-16121690D02*
X11530834Y-16093119D01*
X11530834Y-16093119D02*
X11521310Y-16074071D01*
X11521310Y-16074071D02*
X11511786Y-16045500D01*
X11511786Y-16045500D02*
X11502262Y-15997881D01*
X11502262Y-15997881D02*
X11502262Y-15959786D01*
X11502262Y-15959786D02*
X11511786Y-15912167D01*
X11511786Y-15912167D02*
X11521310Y-15883595D01*
X11521310Y-15883595D02*
X11530834Y-15864548D01*
X11530834Y-15864548D02*
X11549881Y-15835976D01*
X11549881Y-15835976D02*
X11559405Y-15826452D01*
X11721310Y-15921690D02*
X11721310Y-16055024D01*
X11673691Y-15845500D02*
X11626072Y-15988357D01*
X11626072Y-15988357D02*
X11749881Y-15988357D01*
X11978453Y-16055024D02*
X11978453Y-15855024D01*
X12064167Y-16055024D02*
X12064167Y-15950262D01*
X12064167Y-15950262D02*
X12054643Y-15931214D01*
X12054643Y-15931214D02*
X12035596Y-15921690D01*
X12035596Y-15921690D02*
X12007024Y-15921690D01*
X12007024Y-15921690D02*
X11987976Y-15931214D01*
X11987976Y-15931214D02*
X11978453Y-15940738D01*
X12187976Y-16055024D02*
X12168929Y-16045500D01*
X12168929Y-16045500D02*
X12159405Y-16035976D01*
X12159405Y-16035976D02*
X12149881Y-16016928D01*
X12149881Y-16016928D02*
X12149881Y-15959786D01*
X12149881Y-15959786D02*
X12159405Y-15940738D01*
X12159405Y-15940738D02*
X12168929Y-15931214D01*
X12168929Y-15931214D02*
X12187976Y-15921690D01*
X12187976Y-15921690D02*
X12216548Y-15921690D01*
X12216548Y-15921690D02*
X12235596Y-15931214D01*
X12235596Y-15931214D02*
X12245119Y-15940738D01*
X12245119Y-15940738D02*
X12254643Y-15959786D01*
X12254643Y-15959786D02*
X12254643Y-16016928D01*
X12254643Y-16016928D02*
X12245119Y-16035976D01*
X12245119Y-16035976D02*
X12235596Y-16045500D01*
X12235596Y-16045500D02*
X12216548Y-16055024D01*
X12216548Y-16055024D02*
X12187976Y-16055024D01*
X12368929Y-16055024D02*
X12349881Y-16045500D01*
X12349881Y-16045500D02*
X12340357Y-16026452D01*
X12340357Y-16026452D02*
X12340357Y-15855024D01*
X12521310Y-16045500D02*
X12502262Y-16055024D01*
X12502262Y-16055024D02*
X12464167Y-16055024D01*
X12464167Y-16055024D02*
X12445119Y-16045500D01*
X12445119Y-16045500D02*
X12435596Y-16026452D01*
X12435596Y-16026452D02*
X12435596Y-15950262D01*
X12435596Y-15950262D02*
X12445119Y-15931214D01*
X12445119Y-15931214D02*
X12464167Y-15921690D01*
X12464167Y-15921690D02*
X12502262Y-15921690D01*
X12502262Y-15921690D02*
X12521310Y-15931214D01*
X12521310Y-15931214D02*
X12530834Y-15950262D01*
X12530834Y-15950262D02*
X12530834Y-15969309D01*
X12530834Y-15969309D02*
X12435596Y-15988357D01*
X12607024Y-16045500D02*
X12626072Y-16055024D01*
X12626072Y-16055024D02*
X12664167Y-16055024D01*
X12664167Y-16055024D02*
X12683215Y-16045500D01*
X12683215Y-16045500D02*
X12692738Y-16026452D01*
X12692738Y-16026452D02*
X12692738Y-16016928D01*
X12692738Y-16016928D02*
X12683215Y-15997881D01*
X12683215Y-15997881D02*
X12664167Y-15988357D01*
X12664167Y-15988357D02*
X12635596Y-15988357D01*
X12635596Y-15988357D02*
X12616548Y-15978833D01*
X12616548Y-15978833D02*
X12607024Y-15959786D01*
X12607024Y-15959786D02*
X12607024Y-15950262D01*
X12607024Y-15950262D02*
X12616548Y-15931214D01*
X12616548Y-15931214D02*
X12635596Y-15921690D01*
X12635596Y-15921690D02*
X12664167Y-15921690D01*
X12664167Y-15921690D02*
X12683215Y-15931214D01*
X12759405Y-16131214D02*
X12768929Y-16121690D01*
X12768929Y-16121690D02*
X12787977Y-16093119D01*
X12787977Y-16093119D02*
X12797500Y-16074071D01*
X12797500Y-16074071D02*
X12807024Y-16045500D01*
X12807024Y-16045500D02*
X12816548Y-15997881D01*
X12816548Y-15997881D02*
X12816548Y-15959786D01*
X12816548Y-15959786D02*
X12807024Y-15912167D01*
X12807024Y-15912167D02*
X12797500Y-15883595D01*
X12797500Y-15883595D02*
X12787977Y-15864548D01*
X12787977Y-15864548D02*
X12768929Y-15835976D01*
X12768929Y-15835976D02*
X12759405Y-15826452D01*
D17*
X7857500Y-16156500D02*
X7997500Y-16296500D01*
X7997500Y-16156500D02*
X7857500Y-16296500D01*
X7927500Y-16156500D02*
X7927500Y-16296500D01*
X7857500Y-16226500D02*
X7997500Y-16226500D01*
D11*
X8349881Y-16319024D02*
X8235595Y-16319024D01*
X8292738Y-16319024D02*
X8292738Y-16119024D01*
X8292738Y-16119024D02*
X8273690Y-16147595D01*
X8273690Y-16147595D02*
X8254643Y-16166643D01*
X8254643Y-16166643D02*
X8235595Y-16176167D01*
X8435595Y-16299976D02*
X8445119Y-16309500D01*
X8445119Y-16309500D02*
X8435595Y-16319024D01*
X8435595Y-16319024D02*
X8426071Y-16309500D01*
X8426071Y-16309500D02*
X8435595Y-16299976D01*
X8435595Y-16299976D02*
X8435595Y-16319024D01*
X8616548Y-16185690D02*
X8616548Y-16319024D01*
X8568929Y-16109500D02*
X8521310Y-16252357D01*
X8521310Y-16252357D02*
X8645119Y-16252357D01*
X8759405Y-16119024D02*
X8778452Y-16119024D01*
X8778452Y-16119024D02*
X8797500Y-16128548D01*
X8797500Y-16128548D02*
X8807024Y-16138071D01*
X8807024Y-16138071D02*
X8816548Y-16157119D01*
X8816548Y-16157119D02*
X8826071Y-16195214D01*
X8826071Y-16195214D02*
X8826071Y-16242833D01*
X8826071Y-16242833D02*
X8816548Y-16280928D01*
X8816548Y-16280928D02*
X8807024Y-16299976D01*
X8807024Y-16299976D02*
X8797500Y-16309500D01*
X8797500Y-16309500D02*
X8778452Y-16319024D01*
X8778452Y-16319024D02*
X8759405Y-16319024D01*
X8759405Y-16319024D02*
X8740357Y-16309500D01*
X8740357Y-16309500D02*
X8730833Y-16299976D01*
X8730833Y-16299976D02*
X8721310Y-16280928D01*
X8721310Y-16280928D02*
X8711786Y-16242833D01*
X8711786Y-16242833D02*
X8711786Y-16195214D01*
X8711786Y-16195214D02*
X8721310Y-16157119D01*
X8721310Y-16157119D02*
X8730833Y-16138071D01*
X8730833Y-16138071D02*
X8740357Y-16128548D01*
X8740357Y-16128548D02*
X8759405Y-16119024D01*
X8949881Y-16119024D02*
X8968929Y-16119024D01*
X8968929Y-16119024D02*
X8987976Y-16128548D01*
X8987976Y-16128548D02*
X8997500Y-16138071D01*
X8997500Y-16138071D02*
X9007024Y-16157119D01*
X9007024Y-16157119D02*
X9016548Y-16195214D01*
X9016548Y-16195214D02*
X9016548Y-16242833D01*
X9016548Y-16242833D02*
X9007024Y-16280928D01*
X9007024Y-16280928D02*
X8997500Y-16299976D01*
X8997500Y-16299976D02*
X8987976Y-16309500D01*
X8987976Y-16309500D02*
X8968929Y-16319024D01*
X8968929Y-16319024D02*
X8949881Y-16319024D01*
X8949881Y-16319024D02*
X8930833Y-16309500D01*
X8930833Y-16309500D02*
X8921310Y-16299976D01*
X8921310Y-16299976D02*
X8911786Y-16280928D01*
X8911786Y-16280928D02*
X8902262Y-16242833D01*
X8902262Y-16242833D02*
X8902262Y-16195214D01*
X8902262Y-16195214D02*
X8911786Y-16157119D01*
X8911786Y-16157119D02*
X8921310Y-16138071D01*
X8921310Y-16138071D02*
X8930833Y-16128548D01*
X8930833Y-16128548D02*
X8949881Y-16119024D01*
X9102262Y-16319024D02*
X9102262Y-16185690D01*
X9102262Y-16204738D02*
X9111786Y-16195214D01*
X9111786Y-16195214D02*
X9130833Y-16185690D01*
X9130833Y-16185690D02*
X9159405Y-16185690D01*
X9159405Y-16185690D02*
X9178452Y-16195214D01*
X9178452Y-16195214D02*
X9187976Y-16214262D01*
X9187976Y-16214262D02*
X9187976Y-16319024D01*
X9187976Y-16214262D02*
X9197500Y-16195214D01*
X9197500Y-16195214D02*
X9216548Y-16185690D01*
X9216548Y-16185690D02*
X9245119Y-16185690D01*
X9245119Y-16185690D02*
X9264167Y-16195214D01*
X9264167Y-16195214D02*
X9273691Y-16214262D01*
X9273691Y-16214262D02*
X9273691Y-16319024D01*
X9368929Y-16319024D02*
X9368929Y-16185690D01*
X9368929Y-16204738D02*
X9378452Y-16195214D01*
X9378452Y-16195214D02*
X9397500Y-16185690D01*
X9397500Y-16185690D02*
X9426072Y-16185690D01*
X9426072Y-16185690D02*
X9445119Y-16195214D01*
X9445119Y-16195214D02*
X9454643Y-16214262D01*
X9454643Y-16214262D02*
X9454643Y-16319024D01*
X9454643Y-16214262D02*
X9464167Y-16195214D01*
X9464167Y-16195214D02*
X9483214Y-16185690D01*
X9483214Y-16185690D02*
X9511786Y-16185690D01*
X9511786Y-16185690D02*
X9530833Y-16195214D01*
X9530833Y-16195214D02*
X9540357Y-16214262D01*
X9540357Y-16214262D02*
X9540357Y-16319024D01*
X9930833Y-16109500D02*
X9759405Y-16366643D01*
X10187976Y-16119024D02*
X10207024Y-16119024D01*
X10207024Y-16119024D02*
X10226072Y-16128548D01*
X10226072Y-16128548D02*
X10235595Y-16138071D01*
X10235595Y-16138071D02*
X10245119Y-16157119D01*
X10245119Y-16157119D02*
X10254643Y-16195214D01*
X10254643Y-16195214D02*
X10254643Y-16242833D01*
X10254643Y-16242833D02*
X10245119Y-16280928D01*
X10245119Y-16280928D02*
X10235595Y-16299976D01*
X10235595Y-16299976D02*
X10226072Y-16309500D01*
X10226072Y-16309500D02*
X10207024Y-16319024D01*
X10207024Y-16319024D02*
X10187976Y-16319024D01*
X10187976Y-16319024D02*
X10168929Y-16309500D01*
X10168929Y-16309500D02*
X10159405Y-16299976D01*
X10159405Y-16299976D02*
X10149881Y-16280928D01*
X10149881Y-16280928D02*
X10140357Y-16242833D01*
X10140357Y-16242833D02*
X10140357Y-16195214D01*
X10140357Y-16195214D02*
X10149881Y-16157119D01*
X10149881Y-16157119D02*
X10159405Y-16138071D01*
X10159405Y-16138071D02*
X10168929Y-16128548D01*
X10168929Y-16128548D02*
X10187976Y-16119024D01*
X10340357Y-16299976D02*
X10349881Y-16309500D01*
X10349881Y-16309500D02*
X10340357Y-16319024D01*
X10340357Y-16319024D02*
X10330834Y-16309500D01*
X10330834Y-16309500D02*
X10340357Y-16299976D01*
X10340357Y-16299976D02*
X10340357Y-16319024D01*
X10473691Y-16119024D02*
X10492738Y-16119024D01*
X10492738Y-16119024D02*
X10511786Y-16128548D01*
X10511786Y-16128548D02*
X10521310Y-16138071D01*
X10521310Y-16138071D02*
X10530834Y-16157119D01*
X10530834Y-16157119D02*
X10540357Y-16195214D01*
X10540357Y-16195214D02*
X10540357Y-16242833D01*
X10540357Y-16242833D02*
X10530834Y-16280928D01*
X10530834Y-16280928D02*
X10521310Y-16299976D01*
X10521310Y-16299976D02*
X10511786Y-16309500D01*
X10511786Y-16309500D02*
X10492738Y-16319024D01*
X10492738Y-16319024D02*
X10473691Y-16319024D01*
X10473691Y-16319024D02*
X10454643Y-16309500D01*
X10454643Y-16309500D02*
X10445119Y-16299976D01*
X10445119Y-16299976D02*
X10435595Y-16280928D01*
X10435595Y-16280928D02*
X10426072Y-16242833D01*
X10426072Y-16242833D02*
X10426072Y-16195214D01*
X10426072Y-16195214D02*
X10435595Y-16157119D01*
X10435595Y-16157119D02*
X10445119Y-16138071D01*
X10445119Y-16138071D02*
X10454643Y-16128548D01*
X10454643Y-16128548D02*
X10473691Y-16119024D01*
X10721310Y-16119024D02*
X10626072Y-16119024D01*
X10626072Y-16119024D02*
X10616548Y-16214262D01*
X10616548Y-16214262D02*
X10626072Y-16204738D01*
X10626072Y-16204738D02*
X10645119Y-16195214D01*
X10645119Y-16195214D02*
X10692738Y-16195214D01*
X10692738Y-16195214D02*
X10711786Y-16204738D01*
X10711786Y-16204738D02*
X10721310Y-16214262D01*
X10721310Y-16214262D02*
X10730834Y-16233309D01*
X10730834Y-16233309D02*
X10730834Y-16280928D01*
X10730834Y-16280928D02*
X10721310Y-16299976D01*
X10721310Y-16299976D02*
X10711786Y-16309500D01*
X10711786Y-16309500D02*
X10692738Y-16319024D01*
X10692738Y-16319024D02*
X10645119Y-16319024D01*
X10645119Y-16319024D02*
X10626072Y-16309500D01*
X10626072Y-16309500D02*
X10616548Y-16299976D01*
X10911786Y-16119024D02*
X10816548Y-16119024D01*
X10816548Y-16119024D02*
X10807024Y-16214262D01*
X10807024Y-16214262D02*
X10816548Y-16204738D01*
X10816548Y-16204738D02*
X10835595Y-16195214D01*
X10835595Y-16195214D02*
X10883215Y-16195214D01*
X10883215Y-16195214D02*
X10902262Y-16204738D01*
X10902262Y-16204738D02*
X10911786Y-16214262D01*
X10911786Y-16214262D02*
X10921310Y-16233309D01*
X10921310Y-16233309D02*
X10921310Y-16280928D01*
X10921310Y-16280928D02*
X10911786Y-16299976D01*
X10911786Y-16299976D02*
X10902262Y-16309500D01*
X10902262Y-16309500D02*
X10883215Y-16319024D01*
X10883215Y-16319024D02*
X10835595Y-16319024D01*
X10835595Y-16319024D02*
X10816548Y-16309500D01*
X10816548Y-16309500D02*
X10807024Y-16299976D01*
X11111786Y-16319024D02*
X10997500Y-16319024D01*
X11054643Y-16319024D02*
X11054643Y-16119024D01*
X11054643Y-16119024D02*
X11035595Y-16147595D01*
X11035595Y-16147595D02*
X11016548Y-16166643D01*
X11016548Y-16166643D02*
X10997500Y-16176167D01*
X11187976Y-16119024D02*
X11187976Y-16157119D01*
X11264167Y-16119024D02*
X11264167Y-16157119D01*
X11559405Y-16395214D02*
X11549881Y-16385690D01*
X11549881Y-16385690D02*
X11530834Y-16357119D01*
X11530834Y-16357119D02*
X11521310Y-16338071D01*
X11521310Y-16338071D02*
X11511786Y-16309500D01*
X11511786Y-16309500D02*
X11502262Y-16261881D01*
X11502262Y-16261881D02*
X11502262Y-16223786D01*
X11502262Y-16223786D02*
X11511786Y-16176167D01*
X11511786Y-16176167D02*
X11521310Y-16147595D01*
X11521310Y-16147595D02*
X11530834Y-16128548D01*
X11530834Y-16128548D02*
X11549881Y-16099976D01*
X11549881Y-16099976D02*
X11559405Y-16090452D01*
X11721310Y-16119024D02*
X11683214Y-16119024D01*
X11683214Y-16119024D02*
X11664167Y-16128548D01*
X11664167Y-16128548D02*
X11654643Y-16138071D01*
X11654643Y-16138071D02*
X11635595Y-16166643D01*
X11635595Y-16166643D02*
X11626072Y-16204738D01*
X11626072Y-16204738D02*
X11626072Y-16280928D01*
X11626072Y-16280928D02*
X11635595Y-16299976D01*
X11635595Y-16299976D02*
X11645119Y-16309500D01*
X11645119Y-16309500D02*
X11664167Y-16319024D01*
X11664167Y-16319024D02*
X11702262Y-16319024D01*
X11702262Y-16319024D02*
X11721310Y-16309500D01*
X11721310Y-16309500D02*
X11730834Y-16299976D01*
X11730834Y-16299976D02*
X11740357Y-16280928D01*
X11740357Y-16280928D02*
X11740357Y-16233309D01*
X11740357Y-16233309D02*
X11730834Y-16214262D01*
X11730834Y-16214262D02*
X11721310Y-16204738D01*
X11721310Y-16204738D02*
X11702262Y-16195214D01*
X11702262Y-16195214D02*
X11664167Y-16195214D01*
X11664167Y-16195214D02*
X11645119Y-16204738D01*
X11645119Y-16204738D02*
X11635595Y-16214262D01*
X11635595Y-16214262D02*
X11626072Y-16233309D01*
X11978453Y-16319024D02*
X11978453Y-16119024D01*
X12064167Y-16319024D02*
X12064167Y-16214262D01*
X12064167Y-16214262D02*
X12054643Y-16195214D01*
X12054643Y-16195214D02*
X12035596Y-16185690D01*
X12035596Y-16185690D02*
X12007024Y-16185690D01*
X12007024Y-16185690D02*
X11987976Y-16195214D01*
X11987976Y-16195214D02*
X11978453Y-16204738D01*
X12187976Y-16319024D02*
X12168929Y-16309500D01*
X12168929Y-16309500D02*
X12159405Y-16299976D01*
X12159405Y-16299976D02*
X12149881Y-16280928D01*
X12149881Y-16280928D02*
X12149881Y-16223786D01*
X12149881Y-16223786D02*
X12159405Y-16204738D01*
X12159405Y-16204738D02*
X12168929Y-16195214D01*
X12168929Y-16195214D02*
X12187976Y-16185690D01*
X12187976Y-16185690D02*
X12216548Y-16185690D01*
X12216548Y-16185690D02*
X12235596Y-16195214D01*
X12235596Y-16195214D02*
X12245119Y-16204738D01*
X12245119Y-16204738D02*
X12254643Y-16223786D01*
X12254643Y-16223786D02*
X12254643Y-16280928D01*
X12254643Y-16280928D02*
X12245119Y-16299976D01*
X12245119Y-16299976D02*
X12235596Y-16309500D01*
X12235596Y-16309500D02*
X12216548Y-16319024D01*
X12216548Y-16319024D02*
X12187976Y-16319024D01*
X12368929Y-16319024D02*
X12349881Y-16309500D01*
X12349881Y-16309500D02*
X12340357Y-16290452D01*
X12340357Y-16290452D02*
X12340357Y-16119024D01*
X12521310Y-16309500D02*
X12502262Y-16319024D01*
X12502262Y-16319024D02*
X12464167Y-16319024D01*
X12464167Y-16319024D02*
X12445119Y-16309500D01*
X12445119Y-16309500D02*
X12435596Y-16290452D01*
X12435596Y-16290452D02*
X12435596Y-16214262D01*
X12435596Y-16214262D02*
X12445119Y-16195214D01*
X12445119Y-16195214D02*
X12464167Y-16185690D01*
X12464167Y-16185690D02*
X12502262Y-16185690D01*
X12502262Y-16185690D02*
X12521310Y-16195214D01*
X12521310Y-16195214D02*
X12530834Y-16214262D01*
X12530834Y-16214262D02*
X12530834Y-16233309D01*
X12530834Y-16233309D02*
X12435596Y-16252357D01*
X12607024Y-16309500D02*
X12626072Y-16319024D01*
X12626072Y-16319024D02*
X12664167Y-16319024D01*
X12664167Y-16319024D02*
X12683215Y-16309500D01*
X12683215Y-16309500D02*
X12692738Y-16290452D01*
X12692738Y-16290452D02*
X12692738Y-16280928D01*
X12692738Y-16280928D02*
X12683215Y-16261881D01*
X12683215Y-16261881D02*
X12664167Y-16252357D01*
X12664167Y-16252357D02*
X12635596Y-16252357D01*
X12635596Y-16252357D02*
X12616548Y-16242833D01*
X12616548Y-16242833D02*
X12607024Y-16223786D01*
X12607024Y-16223786D02*
X12607024Y-16214262D01*
X12607024Y-16214262D02*
X12616548Y-16195214D01*
X12616548Y-16195214D02*
X12635596Y-16185690D01*
X12635596Y-16185690D02*
X12664167Y-16185690D01*
X12664167Y-16185690D02*
X12683215Y-16195214D01*
X12759405Y-16395214D02*
X12768929Y-16385690D01*
X12768929Y-16385690D02*
X12787977Y-16357119D01*
X12787977Y-16357119D02*
X12797500Y-16338071D01*
X12797500Y-16338071D02*
X12807024Y-16309500D01*
X12807024Y-16309500D02*
X12816548Y-16261881D01*
X12816548Y-16261881D02*
X12816548Y-16223786D01*
X12816548Y-16223786D02*
X12807024Y-16176167D01*
X12807024Y-16176167D02*
X12797500Y-16147595D01*
X12797500Y-16147595D02*
X12787977Y-16128548D01*
X12787977Y-16128548D02*
X12768929Y-16099976D01*
X12768929Y-16099976D02*
X12759405Y-16090452D01*
M02*
