%TF.GenerationSoftware,KiCad,Pcbnew,7.0.1*%
%TF.CreationDate,2023-05-03T11:58:35+03:00*%
%TF.ProjectId,damlama,64616d6c-616d-4612-9e6b-696361645f70,rev?*%
%TF.SameCoordinates,Original*%
%TF.FileFunction,Legend,Top*%
%TF.FilePolarity,Positive*%
%FSLAX46Y46*%
G04 Gerber Fmt 4.6, Leading zero omitted, Abs format (unit mm)*
G04 Created by KiCad (PCBNEW 7.0.1) date 2023-05-03 11:58:35*
%MOMM*%
%LPD*%
G01*
G04 APERTURE LIST*
%ADD10C,0.150000*%
%ADD11C,0.254000*%
%ADD12C,0.120000*%
%ADD13C,0.152400*%
%ADD14C,0.127000*%
%ADD15C,0.400000*%
%ADD16C,0.500000*%
%ADD17C,0.100000*%
%ADD18C,0.300000*%
%ADD19C,0.200000*%
G04 APERTURE END LIST*
D10*
%TO.C,R15*%
X91559142Y-110952619D02*
X91225809Y-110476428D01*
X90987714Y-110952619D02*
X90987714Y-109952619D01*
X90987714Y-109952619D02*
X91368666Y-109952619D01*
X91368666Y-109952619D02*
X91463904Y-110000238D01*
X91463904Y-110000238D02*
X91511523Y-110047857D01*
X91511523Y-110047857D02*
X91559142Y-110143095D01*
X91559142Y-110143095D02*
X91559142Y-110285952D01*
X91559142Y-110285952D02*
X91511523Y-110381190D01*
X91511523Y-110381190D02*
X91463904Y-110428809D01*
X91463904Y-110428809D02*
X91368666Y-110476428D01*
X91368666Y-110476428D02*
X90987714Y-110476428D01*
X92511523Y-110952619D02*
X91940095Y-110952619D01*
X92225809Y-110952619D02*
X92225809Y-109952619D01*
X92225809Y-109952619D02*
X92130571Y-110095476D01*
X92130571Y-110095476D02*
X92035333Y-110190714D01*
X92035333Y-110190714D02*
X91940095Y-110238333D01*
X93416285Y-109952619D02*
X92940095Y-109952619D01*
X92940095Y-109952619D02*
X92892476Y-110428809D01*
X92892476Y-110428809D02*
X92940095Y-110381190D01*
X92940095Y-110381190D02*
X93035333Y-110333571D01*
X93035333Y-110333571D02*
X93273428Y-110333571D01*
X93273428Y-110333571D02*
X93368666Y-110381190D01*
X93368666Y-110381190D02*
X93416285Y-110428809D01*
X93416285Y-110428809D02*
X93463904Y-110524047D01*
X93463904Y-110524047D02*
X93463904Y-110762142D01*
X93463904Y-110762142D02*
X93416285Y-110857380D01*
X93416285Y-110857380D02*
X93368666Y-110905000D01*
X93368666Y-110905000D02*
X93273428Y-110952619D01*
X93273428Y-110952619D02*
X93035333Y-110952619D01*
X93035333Y-110952619D02*
X92940095Y-110905000D01*
X92940095Y-110905000D02*
X92892476Y-110857380D01*
%TO.C,Q1*%
X140664761Y-96202857D02*
X140569523Y-96155238D01*
X140569523Y-96155238D02*
X140474285Y-96060000D01*
X140474285Y-96060000D02*
X140331428Y-95917142D01*
X140331428Y-95917142D02*
X140236190Y-95869523D01*
X140236190Y-95869523D02*
X140140952Y-95869523D01*
X140188571Y-96107619D02*
X140093333Y-96060000D01*
X140093333Y-96060000D02*
X139998095Y-95964761D01*
X139998095Y-95964761D02*
X139950476Y-95774285D01*
X139950476Y-95774285D02*
X139950476Y-95440952D01*
X139950476Y-95440952D02*
X139998095Y-95250476D01*
X139998095Y-95250476D02*
X140093333Y-95155238D01*
X140093333Y-95155238D02*
X140188571Y-95107619D01*
X140188571Y-95107619D02*
X140379047Y-95107619D01*
X140379047Y-95107619D02*
X140474285Y-95155238D01*
X140474285Y-95155238D02*
X140569523Y-95250476D01*
X140569523Y-95250476D02*
X140617142Y-95440952D01*
X140617142Y-95440952D02*
X140617142Y-95774285D01*
X140617142Y-95774285D02*
X140569523Y-95964761D01*
X140569523Y-95964761D02*
X140474285Y-96060000D01*
X140474285Y-96060000D02*
X140379047Y-96107619D01*
X140379047Y-96107619D02*
X140188571Y-96107619D01*
X141569523Y-96107619D02*
X140998095Y-96107619D01*
X141283809Y-96107619D02*
X141283809Y-95107619D01*
X141283809Y-95107619D02*
X141188571Y-95250476D01*
X141188571Y-95250476D02*
X141093333Y-95345714D01*
X141093333Y-95345714D02*
X140998095Y-95393333D01*
%TO.C,U5*%
X135773119Y-132674404D02*
X136582642Y-132674404D01*
X136582642Y-132674404D02*
X136677880Y-132626785D01*
X136677880Y-132626785D02*
X136725500Y-132579166D01*
X136725500Y-132579166D02*
X136773119Y-132483928D01*
X136773119Y-132483928D02*
X136773119Y-132293452D01*
X136773119Y-132293452D02*
X136725500Y-132198214D01*
X136725500Y-132198214D02*
X136677880Y-132150595D01*
X136677880Y-132150595D02*
X136582642Y-132102976D01*
X136582642Y-132102976D02*
X135773119Y-132102976D01*
X135773119Y-131150595D02*
X135773119Y-131626785D01*
X135773119Y-131626785D02*
X136249309Y-131674404D01*
X136249309Y-131674404D02*
X136201690Y-131626785D01*
X136201690Y-131626785D02*
X136154071Y-131531547D01*
X136154071Y-131531547D02*
X136154071Y-131293452D01*
X136154071Y-131293452D02*
X136201690Y-131198214D01*
X136201690Y-131198214D02*
X136249309Y-131150595D01*
X136249309Y-131150595D02*
X136344547Y-131102976D01*
X136344547Y-131102976D02*
X136582642Y-131102976D01*
X136582642Y-131102976D02*
X136677880Y-131150595D01*
X136677880Y-131150595D02*
X136725500Y-131198214D01*
X136725500Y-131198214D02*
X136773119Y-131293452D01*
X136773119Y-131293452D02*
X136773119Y-131531547D01*
X136773119Y-131531547D02*
X136725500Y-131626785D01*
X136725500Y-131626785D02*
X136677880Y-131674404D01*
%TO.C,L3*%
X141537380Y-107112833D02*
X141537380Y-106636643D01*
X141537380Y-106636643D02*
X142537380Y-106636643D01*
X142537380Y-107350929D02*
X142537380Y-107969976D01*
X142537380Y-107969976D02*
X142156428Y-107636643D01*
X142156428Y-107636643D02*
X142156428Y-107779500D01*
X142156428Y-107779500D02*
X142108809Y-107874738D01*
X142108809Y-107874738D02*
X142061190Y-107922357D01*
X142061190Y-107922357D02*
X141965952Y-107969976D01*
X141965952Y-107969976D02*
X141727857Y-107969976D01*
X141727857Y-107969976D02*
X141632619Y-107922357D01*
X141632619Y-107922357D02*
X141585000Y-107874738D01*
X141585000Y-107874738D02*
X141537380Y-107779500D01*
X141537380Y-107779500D02*
X141537380Y-107493786D01*
X141537380Y-107493786D02*
X141585000Y-107398548D01*
X141585000Y-107398548D02*
X141632619Y-107350929D01*
%TO.C,C9*%
X96658630Y-68002666D02*
X96706250Y-68050285D01*
X96706250Y-68050285D02*
X96753869Y-68193142D01*
X96753869Y-68193142D02*
X96753869Y-68288380D01*
X96753869Y-68288380D02*
X96706250Y-68431237D01*
X96706250Y-68431237D02*
X96611011Y-68526475D01*
X96611011Y-68526475D02*
X96515773Y-68574094D01*
X96515773Y-68574094D02*
X96325297Y-68621713D01*
X96325297Y-68621713D02*
X96182440Y-68621713D01*
X96182440Y-68621713D02*
X95991964Y-68574094D01*
X95991964Y-68574094D02*
X95896726Y-68526475D01*
X95896726Y-68526475D02*
X95801488Y-68431237D01*
X95801488Y-68431237D02*
X95753869Y-68288380D01*
X95753869Y-68288380D02*
X95753869Y-68193142D01*
X95753869Y-68193142D02*
X95801488Y-68050285D01*
X95801488Y-68050285D02*
X95849107Y-68002666D01*
X96753869Y-67526475D02*
X96753869Y-67335999D01*
X96753869Y-67335999D02*
X96706250Y-67240761D01*
X96706250Y-67240761D02*
X96658630Y-67193142D01*
X96658630Y-67193142D02*
X96515773Y-67097904D01*
X96515773Y-67097904D02*
X96325297Y-67050285D01*
X96325297Y-67050285D02*
X95944345Y-67050285D01*
X95944345Y-67050285D02*
X95849107Y-67097904D01*
X95849107Y-67097904D02*
X95801488Y-67145523D01*
X95801488Y-67145523D02*
X95753869Y-67240761D01*
X95753869Y-67240761D02*
X95753869Y-67431237D01*
X95753869Y-67431237D02*
X95801488Y-67526475D01*
X95801488Y-67526475D02*
X95849107Y-67574094D01*
X95849107Y-67574094D02*
X95944345Y-67621713D01*
X95944345Y-67621713D02*
X96182440Y-67621713D01*
X96182440Y-67621713D02*
X96277678Y-67574094D01*
X96277678Y-67574094D02*
X96325297Y-67526475D01*
X96325297Y-67526475D02*
X96372916Y-67431237D01*
X96372916Y-67431237D02*
X96372916Y-67240761D01*
X96372916Y-67240761D02*
X96325297Y-67145523D01*
X96325297Y-67145523D02*
X96277678Y-67097904D01*
X96277678Y-67097904D02*
X96182440Y-67050285D01*
%TO.C,J4*%
X175866390Y-119662175D02*
X175866390Y-120377051D01*
X175866390Y-120377051D02*
X175818732Y-120520027D01*
X175818732Y-120520027D02*
X175723415Y-120615344D01*
X175723415Y-120615344D02*
X175580440Y-120663002D01*
X175580440Y-120663002D02*
X175485123Y-120663002D01*
X176771901Y-119995784D02*
X176771901Y-120663002D01*
X176533608Y-119614517D02*
X176295316Y-120329393D01*
X176295316Y-120329393D02*
X176914876Y-120329393D01*
%TO.C,C18*%
X87560142Y-100367380D02*
X87512523Y-100415000D01*
X87512523Y-100415000D02*
X87369666Y-100462619D01*
X87369666Y-100462619D02*
X87274428Y-100462619D01*
X87274428Y-100462619D02*
X87131571Y-100415000D01*
X87131571Y-100415000D02*
X87036333Y-100319761D01*
X87036333Y-100319761D02*
X86988714Y-100224523D01*
X86988714Y-100224523D02*
X86941095Y-100034047D01*
X86941095Y-100034047D02*
X86941095Y-99891190D01*
X86941095Y-99891190D02*
X86988714Y-99700714D01*
X86988714Y-99700714D02*
X87036333Y-99605476D01*
X87036333Y-99605476D02*
X87131571Y-99510238D01*
X87131571Y-99510238D02*
X87274428Y-99462619D01*
X87274428Y-99462619D02*
X87369666Y-99462619D01*
X87369666Y-99462619D02*
X87512523Y-99510238D01*
X87512523Y-99510238D02*
X87560142Y-99557857D01*
X88512523Y-100462619D02*
X87941095Y-100462619D01*
X88226809Y-100462619D02*
X88226809Y-99462619D01*
X88226809Y-99462619D02*
X88131571Y-99605476D01*
X88131571Y-99605476D02*
X88036333Y-99700714D01*
X88036333Y-99700714D02*
X87941095Y-99748333D01*
X89083952Y-99891190D02*
X88988714Y-99843571D01*
X88988714Y-99843571D02*
X88941095Y-99795952D01*
X88941095Y-99795952D02*
X88893476Y-99700714D01*
X88893476Y-99700714D02*
X88893476Y-99653095D01*
X88893476Y-99653095D02*
X88941095Y-99557857D01*
X88941095Y-99557857D02*
X88988714Y-99510238D01*
X88988714Y-99510238D02*
X89083952Y-99462619D01*
X89083952Y-99462619D02*
X89274428Y-99462619D01*
X89274428Y-99462619D02*
X89369666Y-99510238D01*
X89369666Y-99510238D02*
X89417285Y-99557857D01*
X89417285Y-99557857D02*
X89464904Y-99653095D01*
X89464904Y-99653095D02*
X89464904Y-99700714D01*
X89464904Y-99700714D02*
X89417285Y-99795952D01*
X89417285Y-99795952D02*
X89369666Y-99843571D01*
X89369666Y-99843571D02*
X89274428Y-99891190D01*
X89274428Y-99891190D02*
X89083952Y-99891190D01*
X89083952Y-99891190D02*
X88988714Y-99938809D01*
X88988714Y-99938809D02*
X88941095Y-99986428D01*
X88941095Y-99986428D02*
X88893476Y-100081666D01*
X88893476Y-100081666D02*
X88893476Y-100272142D01*
X88893476Y-100272142D02*
X88941095Y-100367380D01*
X88941095Y-100367380D02*
X88988714Y-100415000D01*
X88988714Y-100415000D02*
X89083952Y-100462619D01*
X89083952Y-100462619D02*
X89274428Y-100462619D01*
X89274428Y-100462619D02*
X89369666Y-100415000D01*
X89369666Y-100415000D02*
X89417285Y-100367380D01*
X89417285Y-100367380D02*
X89464904Y-100272142D01*
X89464904Y-100272142D02*
X89464904Y-100081666D01*
X89464904Y-100081666D02*
X89417285Y-99986428D01*
X89417285Y-99986428D02*
X89369666Y-99938809D01*
X89369666Y-99938809D02*
X89274428Y-99891190D01*
%TO.C,R3*%
X96783869Y-71202666D02*
X96307678Y-71535999D01*
X96783869Y-71774094D02*
X95783869Y-71774094D01*
X95783869Y-71774094D02*
X95783869Y-71393142D01*
X95783869Y-71393142D02*
X95831488Y-71297904D01*
X95831488Y-71297904D02*
X95879107Y-71250285D01*
X95879107Y-71250285D02*
X95974345Y-71202666D01*
X95974345Y-71202666D02*
X96117202Y-71202666D01*
X96117202Y-71202666D02*
X96212440Y-71250285D01*
X96212440Y-71250285D02*
X96260059Y-71297904D01*
X96260059Y-71297904D02*
X96307678Y-71393142D01*
X96307678Y-71393142D02*
X96307678Y-71774094D01*
X95783869Y-70869332D02*
X95783869Y-70250285D01*
X95783869Y-70250285D02*
X96164821Y-70583618D01*
X96164821Y-70583618D02*
X96164821Y-70440761D01*
X96164821Y-70440761D02*
X96212440Y-70345523D01*
X96212440Y-70345523D02*
X96260059Y-70297904D01*
X96260059Y-70297904D02*
X96355297Y-70250285D01*
X96355297Y-70250285D02*
X96593392Y-70250285D01*
X96593392Y-70250285D02*
X96688630Y-70297904D01*
X96688630Y-70297904D02*
X96736250Y-70345523D01*
X96736250Y-70345523D02*
X96783869Y-70440761D01*
X96783869Y-70440761D02*
X96783869Y-70726475D01*
X96783869Y-70726475D02*
X96736250Y-70821713D01*
X96736250Y-70821713D02*
X96688630Y-70869332D01*
D11*
%TO.C,T2*%
X157176526Y-127986118D02*
X157176526Y-127260404D01*
X158446526Y-127623261D02*
X157176526Y-127623261D01*
X157297478Y-126897547D02*
X157237002Y-126837071D01*
X157237002Y-126837071D02*
X157176526Y-126716118D01*
X157176526Y-126716118D02*
X157176526Y-126413737D01*
X157176526Y-126413737D02*
X157237002Y-126292785D01*
X157237002Y-126292785D02*
X157297478Y-126232309D01*
X157297478Y-126232309D02*
X157418430Y-126171832D01*
X157418430Y-126171832D02*
X157539383Y-126171832D01*
X157539383Y-126171832D02*
X157720811Y-126232309D01*
X157720811Y-126232309D02*
X158446526Y-126958023D01*
X158446526Y-126958023D02*
X158446526Y-126171832D01*
D10*
%TO.C,R10*%
X120257142Y-57287619D02*
X119923809Y-56811428D01*
X119685714Y-57287619D02*
X119685714Y-56287619D01*
X119685714Y-56287619D02*
X120066666Y-56287619D01*
X120066666Y-56287619D02*
X120161904Y-56335238D01*
X120161904Y-56335238D02*
X120209523Y-56382857D01*
X120209523Y-56382857D02*
X120257142Y-56478095D01*
X120257142Y-56478095D02*
X120257142Y-56620952D01*
X120257142Y-56620952D02*
X120209523Y-56716190D01*
X120209523Y-56716190D02*
X120161904Y-56763809D01*
X120161904Y-56763809D02*
X120066666Y-56811428D01*
X120066666Y-56811428D02*
X119685714Y-56811428D01*
X121209523Y-57287619D02*
X120638095Y-57287619D01*
X120923809Y-57287619D02*
X120923809Y-56287619D01*
X120923809Y-56287619D02*
X120828571Y-56430476D01*
X120828571Y-56430476D02*
X120733333Y-56525714D01*
X120733333Y-56525714D02*
X120638095Y-56573333D01*
X121828571Y-56287619D02*
X121923809Y-56287619D01*
X121923809Y-56287619D02*
X122019047Y-56335238D01*
X122019047Y-56335238D02*
X122066666Y-56382857D01*
X122066666Y-56382857D02*
X122114285Y-56478095D01*
X122114285Y-56478095D02*
X122161904Y-56668571D01*
X122161904Y-56668571D02*
X122161904Y-56906666D01*
X122161904Y-56906666D02*
X122114285Y-57097142D01*
X122114285Y-57097142D02*
X122066666Y-57192380D01*
X122066666Y-57192380D02*
X122019047Y-57240000D01*
X122019047Y-57240000D02*
X121923809Y-57287619D01*
X121923809Y-57287619D02*
X121828571Y-57287619D01*
X121828571Y-57287619D02*
X121733333Y-57240000D01*
X121733333Y-57240000D02*
X121685714Y-57192380D01*
X121685714Y-57192380D02*
X121638095Y-57097142D01*
X121638095Y-57097142D02*
X121590476Y-56906666D01*
X121590476Y-56906666D02*
X121590476Y-56668571D01*
X121590476Y-56668571D02*
X121638095Y-56478095D01*
X121638095Y-56478095D02*
X121685714Y-56382857D01*
X121685714Y-56382857D02*
X121733333Y-56335238D01*
X121733333Y-56335238D02*
X121828571Y-56287619D01*
%TO.C,C6*%
X122243380Y-93681666D02*
X122291000Y-93729285D01*
X122291000Y-93729285D02*
X122338619Y-93872142D01*
X122338619Y-93872142D02*
X122338619Y-93967380D01*
X122338619Y-93967380D02*
X122291000Y-94110237D01*
X122291000Y-94110237D02*
X122195761Y-94205475D01*
X122195761Y-94205475D02*
X122100523Y-94253094D01*
X122100523Y-94253094D02*
X121910047Y-94300713D01*
X121910047Y-94300713D02*
X121767190Y-94300713D01*
X121767190Y-94300713D02*
X121576714Y-94253094D01*
X121576714Y-94253094D02*
X121481476Y-94205475D01*
X121481476Y-94205475D02*
X121386238Y-94110237D01*
X121386238Y-94110237D02*
X121338619Y-93967380D01*
X121338619Y-93967380D02*
X121338619Y-93872142D01*
X121338619Y-93872142D02*
X121386238Y-93729285D01*
X121386238Y-93729285D02*
X121433857Y-93681666D01*
X121338619Y-92824523D02*
X121338619Y-93014999D01*
X121338619Y-93014999D02*
X121386238Y-93110237D01*
X121386238Y-93110237D02*
X121433857Y-93157856D01*
X121433857Y-93157856D02*
X121576714Y-93253094D01*
X121576714Y-93253094D02*
X121767190Y-93300713D01*
X121767190Y-93300713D02*
X122148142Y-93300713D01*
X122148142Y-93300713D02*
X122243380Y-93253094D01*
X122243380Y-93253094D02*
X122291000Y-93205475D01*
X122291000Y-93205475D02*
X122338619Y-93110237D01*
X122338619Y-93110237D02*
X122338619Y-92919761D01*
X122338619Y-92919761D02*
X122291000Y-92824523D01*
X122291000Y-92824523D02*
X122243380Y-92776904D01*
X122243380Y-92776904D02*
X122148142Y-92729285D01*
X122148142Y-92729285D02*
X121910047Y-92729285D01*
X121910047Y-92729285D02*
X121814809Y-92776904D01*
X121814809Y-92776904D02*
X121767190Y-92824523D01*
X121767190Y-92824523D02*
X121719571Y-92919761D01*
X121719571Y-92919761D02*
X121719571Y-93110237D01*
X121719571Y-93110237D02*
X121767190Y-93205475D01*
X121767190Y-93205475D02*
X121814809Y-93253094D01*
X121814809Y-93253094D02*
X121910047Y-93300713D01*
%TO.C,J6*%
X167662619Y-81353333D02*
X168376904Y-81353333D01*
X168376904Y-81353333D02*
X168519761Y-81400952D01*
X168519761Y-81400952D02*
X168615000Y-81496190D01*
X168615000Y-81496190D02*
X168662619Y-81639047D01*
X168662619Y-81639047D02*
X168662619Y-81734285D01*
X167662619Y-80448571D02*
X167662619Y-80639047D01*
X167662619Y-80639047D02*
X167710238Y-80734285D01*
X167710238Y-80734285D02*
X167757857Y-80781904D01*
X167757857Y-80781904D02*
X167900714Y-80877142D01*
X167900714Y-80877142D02*
X168091190Y-80924761D01*
X168091190Y-80924761D02*
X168472142Y-80924761D01*
X168472142Y-80924761D02*
X168567380Y-80877142D01*
X168567380Y-80877142D02*
X168615000Y-80829523D01*
X168615000Y-80829523D02*
X168662619Y-80734285D01*
X168662619Y-80734285D02*
X168662619Y-80543809D01*
X168662619Y-80543809D02*
X168615000Y-80448571D01*
X168615000Y-80448571D02*
X168567380Y-80400952D01*
X168567380Y-80400952D02*
X168472142Y-80353333D01*
X168472142Y-80353333D02*
X168234047Y-80353333D01*
X168234047Y-80353333D02*
X168138809Y-80400952D01*
X168138809Y-80400952D02*
X168091190Y-80448571D01*
X168091190Y-80448571D02*
X168043571Y-80543809D01*
X168043571Y-80543809D02*
X168043571Y-80734285D01*
X168043571Y-80734285D02*
X168091190Y-80829523D01*
X168091190Y-80829523D02*
X168138809Y-80877142D01*
X168138809Y-80877142D02*
X168234047Y-80924761D01*
%TO.C,R12*%
X129957142Y-57337619D02*
X129623809Y-56861428D01*
X129385714Y-57337619D02*
X129385714Y-56337619D01*
X129385714Y-56337619D02*
X129766666Y-56337619D01*
X129766666Y-56337619D02*
X129861904Y-56385238D01*
X129861904Y-56385238D02*
X129909523Y-56432857D01*
X129909523Y-56432857D02*
X129957142Y-56528095D01*
X129957142Y-56528095D02*
X129957142Y-56670952D01*
X129957142Y-56670952D02*
X129909523Y-56766190D01*
X129909523Y-56766190D02*
X129861904Y-56813809D01*
X129861904Y-56813809D02*
X129766666Y-56861428D01*
X129766666Y-56861428D02*
X129385714Y-56861428D01*
X130909523Y-57337619D02*
X130338095Y-57337619D01*
X130623809Y-57337619D02*
X130623809Y-56337619D01*
X130623809Y-56337619D02*
X130528571Y-56480476D01*
X130528571Y-56480476D02*
X130433333Y-56575714D01*
X130433333Y-56575714D02*
X130338095Y-56623333D01*
X131290476Y-56432857D02*
X131338095Y-56385238D01*
X131338095Y-56385238D02*
X131433333Y-56337619D01*
X131433333Y-56337619D02*
X131671428Y-56337619D01*
X131671428Y-56337619D02*
X131766666Y-56385238D01*
X131766666Y-56385238D02*
X131814285Y-56432857D01*
X131814285Y-56432857D02*
X131861904Y-56528095D01*
X131861904Y-56528095D02*
X131861904Y-56623333D01*
X131861904Y-56623333D02*
X131814285Y-56766190D01*
X131814285Y-56766190D02*
X131242857Y-57337619D01*
X131242857Y-57337619D02*
X131861904Y-57337619D01*
%TO.C,C11*%
X127458142Y-76639380D02*
X127410523Y-76687000D01*
X127410523Y-76687000D02*
X127267666Y-76734619D01*
X127267666Y-76734619D02*
X127172428Y-76734619D01*
X127172428Y-76734619D02*
X127029571Y-76687000D01*
X127029571Y-76687000D02*
X126934333Y-76591761D01*
X126934333Y-76591761D02*
X126886714Y-76496523D01*
X126886714Y-76496523D02*
X126839095Y-76306047D01*
X126839095Y-76306047D02*
X126839095Y-76163190D01*
X126839095Y-76163190D02*
X126886714Y-75972714D01*
X126886714Y-75972714D02*
X126934333Y-75877476D01*
X126934333Y-75877476D02*
X127029571Y-75782238D01*
X127029571Y-75782238D02*
X127172428Y-75734619D01*
X127172428Y-75734619D02*
X127267666Y-75734619D01*
X127267666Y-75734619D02*
X127410523Y-75782238D01*
X127410523Y-75782238D02*
X127458142Y-75829857D01*
X128410523Y-76734619D02*
X127839095Y-76734619D01*
X128124809Y-76734619D02*
X128124809Y-75734619D01*
X128124809Y-75734619D02*
X128029571Y-75877476D01*
X128029571Y-75877476D02*
X127934333Y-75972714D01*
X127934333Y-75972714D02*
X127839095Y-76020333D01*
X129362904Y-76734619D02*
X128791476Y-76734619D01*
X129077190Y-76734619D02*
X129077190Y-75734619D01*
X129077190Y-75734619D02*
X128981952Y-75877476D01*
X128981952Y-75877476D02*
X128886714Y-75972714D01*
X128886714Y-75972714D02*
X128791476Y-76020333D01*
%TO.C,R6*%
X140362619Y-86766666D02*
X139886428Y-87099999D01*
X140362619Y-87338094D02*
X139362619Y-87338094D01*
X139362619Y-87338094D02*
X139362619Y-86957142D01*
X139362619Y-86957142D02*
X139410238Y-86861904D01*
X139410238Y-86861904D02*
X139457857Y-86814285D01*
X139457857Y-86814285D02*
X139553095Y-86766666D01*
X139553095Y-86766666D02*
X139695952Y-86766666D01*
X139695952Y-86766666D02*
X139791190Y-86814285D01*
X139791190Y-86814285D02*
X139838809Y-86861904D01*
X139838809Y-86861904D02*
X139886428Y-86957142D01*
X139886428Y-86957142D02*
X139886428Y-87338094D01*
X139362619Y-85909523D02*
X139362619Y-86099999D01*
X139362619Y-86099999D02*
X139410238Y-86195237D01*
X139410238Y-86195237D02*
X139457857Y-86242856D01*
X139457857Y-86242856D02*
X139600714Y-86338094D01*
X139600714Y-86338094D02*
X139791190Y-86385713D01*
X139791190Y-86385713D02*
X140172142Y-86385713D01*
X140172142Y-86385713D02*
X140267380Y-86338094D01*
X140267380Y-86338094D02*
X140315000Y-86290475D01*
X140315000Y-86290475D02*
X140362619Y-86195237D01*
X140362619Y-86195237D02*
X140362619Y-86004761D01*
X140362619Y-86004761D02*
X140315000Y-85909523D01*
X140315000Y-85909523D02*
X140267380Y-85861904D01*
X140267380Y-85861904D02*
X140172142Y-85814285D01*
X140172142Y-85814285D02*
X139934047Y-85814285D01*
X139934047Y-85814285D02*
X139838809Y-85861904D01*
X139838809Y-85861904D02*
X139791190Y-85909523D01*
X139791190Y-85909523D02*
X139743571Y-86004761D01*
X139743571Y-86004761D02*
X139743571Y-86195237D01*
X139743571Y-86195237D02*
X139791190Y-86290475D01*
X139791190Y-86290475D02*
X139838809Y-86338094D01*
X139838809Y-86338094D02*
X139934047Y-86385713D01*
%TO.C,R8*%
X105776369Y-70692607D02*
X105300178Y-71025940D01*
X105776369Y-71264035D02*
X104776369Y-71264035D01*
X104776369Y-71264035D02*
X104776369Y-70883083D01*
X104776369Y-70883083D02*
X104823988Y-70787845D01*
X104823988Y-70787845D02*
X104871607Y-70740226D01*
X104871607Y-70740226D02*
X104966845Y-70692607D01*
X104966845Y-70692607D02*
X105109702Y-70692607D01*
X105109702Y-70692607D02*
X105204940Y-70740226D01*
X105204940Y-70740226D02*
X105252559Y-70787845D01*
X105252559Y-70787845D02*
X105300178Y-70883083D01*
X105300178Y-70883083D02*
X105300178Y-71264035D01*
X105204940Y-70121178D02*
X105157321Y-70216416D01*
X105157321Y-70216416D02*
X105109702Y-70264035D01*
X105109702Y-70264035D02*
X105014464Y-70311654D01*
X105014464Y-70311654D02*
X104966845Y-70311654D01*
X104966845Y-70311654D02*
X104871607Y-70264035D01*
X104871607Y-70264035D02*
X104823988Y-70216416D01*
X104823988Y-70216416D02*
X104776369Y-70121178D01*
X104776369Y-70121178D02*
X104776369Y-69930702D01*
X104776369Y-69930702D02*
X104823988Y-69835464D01*
X104823988Y-69835464D02*
X104871607Y-69787845D01*
X104871607Y-69787845D02*
X104966845Y-69740226D01*
X104966845Y-69740226D02*
X105014464Y-69740226D01*
X105014464Y-69740226D02*
X105109702Y-69787845D01*
X105109702Y-69787845D02*
X105157321Y-69835464D01*
X105157321Y-69835464D02*
X105204940Y-69930702D01*
X105204940Y-69930702D02*
X105204940Y-70121178D01*
X105204940Y-70121178D02*
X105252559Y-70216416D01*
X105252559Y-70216416D02*
X105300178Y-70264035D01*
X105300178Y-70264035D02*
X105395416Y-70311654D01*
X105395416Y-70311654D02*
X105585892Y-70311654D01*
X105585892Y-70311654D02*
X105681130Y-70264035D01*
X105681130Y-70264035D02*
X105728750Y-70216416D01*
X105728750Y-70216416D02*
X105776369Y-70121178D01*
X105776369Y-70121178D02*
X105776369Y-69930702D01*
X105776369Y-69930702D02*
X105728750Y-69835464D01*
X105728750Y-69835464D02*
X105681130Y-69787845D01*
X105681130Y-69787845D02*
X105585892Y-69740226D01*
X105585892Y-69740226D02*
X105395416Y-69740226D01*
X105395416Y-69740226D02*
X105300178Y-69787845D01*
X105300178Y-69787845D02*
X105252559Y-69835464D01*
X105252559Y-69835464D02*
X105204940Y-69930702D01*
%TO.C,C17*%
X90157142Y-112667380D02*
X90109523Y-112715000D01*
X90109523Y-112715000D02*
X89966666Y-112762619D01*
X89966666Y-112762619D02*
X89871428Y-112762619D01*
X89871428Y-112762619D02*
X89728571Y-112715000D01*
X89728571Y-112715000D02*
X89633333Y-112619761D01*
X89633333Y-112619761D02*
X89585714Y-112524523D01*
X89585714Y-112524523D02*
X89538095Y-112334047D01*
X89538095Y-112334047D02*
X89538095Y-112191190D01*
X89538095Y-112191190D02*
X89585714Y-112000714D01*
X89585714Y-112000714D02*
X89633333Y-111905476D01*
X89633333Y-111905476D02*
X89728571Y-111810238D01*
X89728571Y-111810238D02*
X89871428Y-111762619D01*
X89871428Y-111762619D02*
X89966666Y-111762619D01*
X89966666Y-111762619D02*
X90109523Y-111810238D01*
X90109523Y-111810238D02*
X90157142Y-111857857D01*
X91109523Y-112762619D02*
X90538095Y-112762619D01*
X90823809Y-112762619D02*
X90823809Y-111762619D01*
X90823809Y-111762619D02*
X90728571Y-111905476D01*
X90728571Y-111905476D02*
X90633333Y-112000714D01*
X90633333Y-112000714D02*
X90538095Y-112048333D01*
X91442857Y-111762619D02*
X92109523Y-111762619D01*
X92109523Y-111762619D02*
X91680952Y-112762619D01*
%TO.C,J1*%
X86787619Y-85445833D02*
X87501904Y-85445833D01*
X87501904Y-85445833D02*
X87644761Y-85493452D01*
X87644761Y-85493452D02*
X87740000Y-85588690D01*
X87740000Y-85588690D02*
X87787619Y-85731547D01*
X87787619Y-85731547D02*
X87787619Y-85826785D01*
X87787619Y-84445833D02*
X87787619Y-85017261D01*
X87787619Y-84731547D02*
X86787619Y-84731547D01*
X86787619Y-84731547D02*
X86930476Y-84826785D01*
X86930476Y-84826785D02*
X87025714Y-84922023D01*
X87025714Y-84922023D02*
X87073333Y-85017261D01*
%TO.C,R1*%
X130439333Y-69622619D02*
X130106000Y-69146428D01*
X129867905Y-69622619D02*
X129867905Y-68622619D01*
X129867905Y-68622619D02*
X130248857Y-68622619D01*
X130248857Y-68622619D02*
X130344095Y-68670238D01*
X130344095Y-68670238D02*
X130391714Y-68717857D01*
X130391714Y-68717857D02*
X130439333Y-68813095D01*
X130439333Y-68813095D02*
X130439333Y-68955952D01*
X130439333Y-68955952D02*
X130391714Y-69051190D01*
X130391714Y-69051190D02*
X130344095Y-69098809D01*
X130344095Y-69098809D02*
X130248857Y-69146428D01*
X130248857Y-69146428D02*
X129867905Y-69146428D01*
X131391714Y-69622619D02*
X130820286Y-69622619D01*
X131106000Y-69622619D02*
X131106000Y-68622619D01*
X131106000Y-68622619D02*
X131010762Y-68765476D01*
X131010762Y-68765476D02*
X130915524Y-68860714D01*
X130915524Y-68860714D02*
X130820286Y-68908333D01*
%TO.C,K1*%
X148846205Y-82749323D02*
X148846205Y-81749229D01*
X149417687Y-82749323D02*
X148989076Y-82177841D01*
X149417687Y-81749229D02*
X148846205Y-82320711D01*
X150370158Y-82749323D02*
X149798676Y-82749323D01*
X150084417Y-82749323D02*
X150084417Y-81749229D01*
X150084417Y-81749229D02*
X149989170Y-81892100D01*
X149989170Y-81892100D02*
X149893923Y-81987347D01*
X149893923Y-81987347D02*
X149798676Y-82034970D01*
%TO.C,U2*%
X113538095Y-124504119D02*
X113538095Y-125313642D01*
X113538095Y-125313642D02*
X113585714Y-125408880D01*
X113585714Y-125408880D02*
X113633333Y-125456500D01*
X113633333Y-125456500D02*
X113728571Y-125504119D01*
X113728571Y-125504119D02*
X113919047Y-125504119D01*
X113919047Y-125504119D02*
X114014285Y-125456500D01*
X114014285Y-125456500D02*
X114061904Y-125408880D01*
X114061904Y-125408880D02*
X114109523Y-125313642D01*
X114109523Y-125313642D02*
X114109523Y-124504119D01*
X114538095Y-124599357D02*
X114585714Y-124551738D01*
X114585714Y-124551738D02*
X114680952Y-124504119D01*
X114680952Y-124504119D02*
X114919047Y-124504119D01*
X114919047Y-124504119D02*
X115014285Y-124551738D01*
X115014285Y-124551738D02*
X115061904Y-124599357D01*
X115061904Y-124599357D02*
X115109523Y-124694595D01*
X115109523Y-124694595D02*
X115109523Y-124789833D01*
X115109523Y-124789833D02*
X115061904Y-124932690D01*
X115061904Y-124932690D02*
X114490476Y-125504119D01*
X114490476Y-125504119D02*
X115109523Y-125504119D01*
%TO.C,C26*%
X98357142Y-113767380D02*
X98309523Y-113815000D01*
X98309523Y-113815000D02*
X98166666Y-113862619D01*
X98166666Y-113862619D02*
X98071428Y-113862619D01*
X98071428Y-113862619D02*
X97928571Y-113815000D01*
X97928571Y-113815000D02*
X97833333Y-113719761D01*
X97833333Y-113719761D02*
X97785714Y-113624523D01*
X97785714Y-113624523D02*
X97738095Y-113434047D01*
X97738095Y-113434047D02*
X97738095Y-113291190D01*
X97738095Y-113291190D02*
X97785714Y-113100714D01*
X97785714Y-113100714D02*
X97833333Y-113005476D01*
X97833333Y-113005476D02*
X97928571Y-112910238D01*
X97928571Y-112910238D02*
X98071428Y-112862619D01*
X98071428Y-112862619D02*
X98166666Y-112862619D01*
X98166666Y-112862619D02*
X98309523Y-112910238D01*
X98309523Y-112910238D02*
X98357142Y-112957857D01*
X98738095Y-112957857D02*
X98785714Y-112910238D01*
X98785714Y-112910238D02*
X98880952Y-112862619D01*
X98880952Y-112862619D02*
X99119047Y-112862619D01*
X99119047Y-112862619D02*
X99214285Y-112910238D01*
X99214285Y-112910238D02*
X99261904Y-112957857D01*
X99261904Y-112957857D02*
X99309523Y-113053095D01*
X99309523Y-113053095D02*
X99309523Y-113148333D01*
X99309523Y-113148333D02*
X99261904Y-113291190D01*
X99261904Y-113291190D02*
X98690476Y-113862619D01*
X98690476Y-113862619D02*
X99309523Y-113862619D01*
X100166666Y-112862619D02*
X99976190Y-112862619D01*
X99976190Y-112862619D02*
X99880952Y-112910238D01*
X99880952Y-112910238D02*
X99833333Y-112957857D01*
X99833333Y-112957857D02*
X99738095Y-113100714D01*
X99738095Y-113100714D02*
X99690476Y-113291190D01*
X99690476Y-113291190D02*
X99690476Y-113672142D01*
X99690476Y-113672142D02*
X99738095Y-113767380D01*
X99738095Y-113767380D02*
X99785714Y-113815000D01*
X99785714Y-113815000D02*
X99880952Y-113862619D01*
X99880952Y-113862619D02*
X100071428Y-113862619D01*
X100071428Y-113862619D02*
X100166666Y-113815000D01*
X100166666Y-113815000D02*
X100214285Y-113767380D01*
X100214285Y-113767380D02*
X100261904Y-113672142D01*
X100261904Y-113672142D02*
X100261904Y-113434047D01*
X100261904Y-113434047D02*
X100214285Y-113338809D01*
X100214285Y-113338809D02*
X100166666Y-113291190D01*
X100166666Y-113291190D02*
X100071428Y-113243571D01*
X100071428Y-113243571D02*
X99880952Y-113243571D01*
X99880952Y-113243571D02*
X99785714Y-113291190D01*
X99785714Y-113291190D02*
X99738095Y-113338809D01*
X99738095Y-113338809D02*
X99690476Y-113434047D01*
%TO.C,D4*%
X143533905Y-88207619D02*
X143533905Y-87207619D01*
X143533905Y-87207619D02*
X143772000Y-87207619D01*
X143772000Y-87207619D02*
X143914857Y-87255238D01*
X143914857Y-87255238D02*
X144010095Y-87350476D01*
X144010095Y-87350476D02*
X144057714Y-87445714D01*
X144057714Y-87445714D02*
X144105333Y-87636190D01*
X144105333Y-87636190D02*
X144105333Y-87779047D01*
X144105333Y-87779047D02*
X144057714Y-87969523D01*
X144057714Y-87969523D02*
X144010095Y-88064761D01*
X144010095Y-88064761D02*
X143914857Y-88160000D01*
X143914857Y-88160000D02*
X143772000Y-88207619D01*
X143772000Y-88207619D02*
X143533905Y-88207619D01*
X144962476Y-87540952D02*
X144962476Y-88207619D01*
X144724381Y-87160000D02*
X144486286Y-87874285D01*
X144486286Y-87874285D02*
X145105333Y-87874285D01*
%TO.C,C16*%
X133453380Y-76913857D02*
X133501000Y-76961476D01*
X133501000Y-76961476D02*
X133548619Y-77104333D01*
X133548619Y-77104333D02*
X133548619Y-77199571D01*
X133548619Y-77199571D02*
X133501000Y-77342428D01*
X133501000Y-77342428D02*
X133405761Y-77437666D01*
X133405761Y-77437666D02*
X133310523Y-77485285D01*
X133310523Y-77485285D02*
X133120047Y-77532904D01*
X133120047Y-77532904D02*
X132977190Y-77532904D01*
X132977190Y-77532904D02*
X132786714Y-77485285D01*
X132786714Y-77485285D02*
X132691476Y-77437666D01*
X132691476Y-77437666D02*
X132596238Y-77342428D01*
X132596238Y-77342428D02*
X132548619Y-77199571D01*
X132548619Y-77199571D02*
X132548619Y-77104333D01*
X132548619Y-77104333D02*
X132596238Y-76961476D01*
X132596238Y-76961476D02*
X132643857Y-76913857D01*
X133548619Y-75961476D02*
X133548619Y-76532904D01*
X133548619Y-76247190D02*
X132548619Y-76247190D01*
X132548619Y-76247190D02*
X132691476Y-76342428D01*
X132691476Y-76342428D02*
X132786714Y-76437666D01*
X132786714Y-76437666D02*
X132834333Y-76532904D01*
X132548619Y-75104333D02*
X132548619Y-75294809D01*
X132548619Y-75294809D02*
X132596238Y-75390047D01*
X132596238Y-75390047D02*
X132643857Y-75437666D01*
X132643857Y-75437666D02*
X132786714Y-75532904D01*
X132786714Y-75532904D02*
X132977190Y-75580523D01*
X132977190Y-75580523D02*
X133358142Y-75580523D01*
X133358142Y-75580523D02*
X133453380Y-75532904D01*
X133453380Y-75532904D02*
X133501000Y-75485285D01*
X133501000Y-75485285D02*
X133548619Y-75390047D01*
X133548619Y-75390047D02*
X133548619Y-75199571D01*
X133548619Y-75199571D02*
X133501000Y-75104333D01*
X133501000Y-75104333D02*
X133453380Y-75056714D01*
X133453380Y-75056714D02*
X133358142Y-75009095D01*
X133358142Y-75009095D02*
X133120047Y-75009095D01*
X133120047Y-75009095D02*
X133024809Y-75056714D01*
X133024809Y-75056714D02*
X132977190Y-75104333D01*
X132977190Y-75104333D02*
X132929571Y-75199571D01*
X132929571Y-75199571D02*
X132929571Y-75390047D01*
X132929571Y-75390047D02*
X132977190Y-75485285D01*
X132977190Y-75485285D02*
X133024809Y-75532904D01*
X133024809Y-75532904D02*
X133120047Y-75580523D01*
%TO.C,D3*%
X91941905Y-116032619D02*
X91941905Y-115032619D01*
X91941905Y-115032619D02*
X92180000Y-115032619D01*
X92180000Y-115032619D02*
X92322857Y-115080238D01*
X92322857Y-115080238D02*
X92418095Y-115175476D01*
X92418095Y-115175476D02*
X92465714Y-115270714D01*
X92465714Y-115270714D02*
X92513333Y-115461190D01*
X92513333Y-115461190D02*
X92513333Y-115604047D01*
X92513333Y-115604047D02*
X92465714Y-115794523D01*
X92465714Y-115794523D02*
X92418095Y-115889761D01*
X92418095Y-115889761D02*
X92322857Y-115985000D01*
X92322857Y-115985000D02*
X92180000Y-116032619D01*
X92180000Y-116032619D02*
X91941905Y-116032619D01*
X92846667Y-115032619D02*
X93465714Y-115032619D01*
X93465714Y-115032619D02*
X93132381Y-115413571D01*
X93132381Y-115413571D02*
X93275238Y-115413571D01*
X93275238Y-115413571D02*
X93370476Y-115461190D01*
X93370476Y-115461190D02*
X93418095Y-115508809D01*
X93418095Y-115508809D02*
X93465714Y-115604047D01*
X93465714Y-115604047D02*
X93465714Y-115842142D01*
X93465714Y-115842142D02*
X93418095Y-115937380D01*
X93418095Y-115937380D02*
X93370476Y-115985000D01*
X93370476Y-115985000D02*
X93275238Y-116032619D01*
X93275238Y-116032619D02*
X92989524Y-116032619D01*
X92989524Y-116032619D02*
X92894286Y-115985000D01*
X92894286Y-115985000D02*
X92846667Y-115937380D01*
%TO.C,R14*%
X82415142Y-110952619D02*
X82081809Y-110476428D01*
X81843714Y-110952619D02*
X81843714Y-109952619D01*
X81843714Y-109952619D02*
X82224666Y-109952619D01*
X82224666Y-109952619D02*
X82319904Y-110000238D01*
X82319904Y-110000238D02*
X82367523Y-110047857D01*
X82367523Y-110047857D02*
X82415142Y-110143095D01*
X82415142Y-110143095D02*
X82415142Y-110285952D01*
X82415142Y-110285952D02*
X82367523Y-110381190D01*
X82367523Y-110381190D02*
X82319904Y-110428809D01*
X82319904Y-110428809D02*
X82224666Y-110476428D01*
X82224666Y-110476428D02*
X81843714Y-110476428D01*
X83367523Y-110952619D02*
X82796095Y-110952619D01*
X83081809Y-110952619D02*
X83081809Y-109952619D01*
X83081809Y-109952619D02*
X82986571Y-110095476D01*
X82986571Y-110095476D02*
X82891333Y-110190714D01*
X82891333Y-110190714D02*
X82796095Y-110238333D01*
X84224666Y-110285952D02*
X84224666Y-110952619D01*
X83986571Y-109905000D02*
X83748476Y-110619285D01*
X83748476Y-110619285D02*
X84367523Y-110619285D01*
%TO.C,FB1*%
X127145166Y-72480809D02*
X126811833Y-72480809D01*
X126811833Y-73004619D02*
X126811833Y-72004619D01*
X126811833Y-72004619D02*
X127288023Y-72004619D01*
X128002309Y-72480809D02*
X128145166Y-72528428D01*
X128145166Y-72528428D02*
X128192785Y-72576047D01*
X128192785Y-72576047D02*
X128240404Y-72671285D01*
X128240404Y-72671285D02*
X128240404Y-72814142D01*
X128240404Y-72814142D02*
X128192785Y-72909380D01*
X128192785Y-72909380D02*
X128145166Y-72957000D01*
X128145166Y-72957000D02*
X128049928Y-73004619D01*
X128049928Y-73004619D02*
X127668976Y-73004619D01*
X127668976Y-73004619D02*
X127668976Y-72004619D01*
X127668976Y-72004619D02*
X128002309Y-72004619D01*
X128002309Y-72004619D02*
X128097547Y-72052238D01*
X128097547Y-72052238D02*
X128145166Y-72099857D01*
X128145166Y-72099857D02*
X128192785Y-72195095D01*
X128192785Y-72195095D02*
X128192785Y-72290333D01*
X128192785Y-72290333D02*
X128145166Y-72385571D01*
X128145166Y-72385571D02*
X128097547Y-72433190D01*
X128097547Y-72433190D02*
X128002309Y-72480809D01*
X128002309Y-72480809D02*
X127668976Y-72480809D01*
X129192785Y-73004619D02*
X128621357Y-73004619D01*
X128907071Y-73004619D02*
X128907071Y-72004619D01*
X128907071Y-72004619D02*
X128811833Y-72147476D01*
X128811833Y-72147476D02*
X128716595Y-72242714D01*
X128716595Y-72242714D02*
X128621357Y-72290333D01*
%TO.C,C15*%
X133453380Y-93463857D02*
X133501000Y-93511476D01*
X133501000Y-93511476D02*
X133548619Y-93654333D01*
X133548619Y-93654333D02*
X133548619Y-93749571D01*
X133548619Y-93749571D02*
X133501000Y-93892428D01*
X133501000Y-93892428D02*
X133405761Y-93987666D01*
X133405761Y-93987666D02*
X133310523Y-94035285D01*
X133310523Y-94035285D02*
X133120047Y-94082904D01*
X133120047Y-94082904D02*
X132977190Y-94082904D01*
X132977190Y-94082904D02*
X132786714Y-94035285D01*
X132786714Y-94035285D02*
X132691476Y-93987666D01*
X132691476Y-93987666D02*
X132596238Y-93892428D01*
X132596238Y-93892428D02*
X132548619Y-93749571D01*
X132548619Y-93749571D02*
X132548619Y-93654333D01*
X132548619Y-93654333D02*
X132596238Y-93511476D01*
X132596238Y-93511476D02*
X132643857Y-93463857D01*
X133548619Y-92511476D02*
X133548619Y-93082904D01*
X133548619Y-92797190D02*
X132548619Y-92797190D01*
X132548619Y-92797190D02*
X132691476Y-92892428D01*
X132691476Y-92892428D02*
X132786714Y-92987666D01*
X132786714Y-92987666D02*
X132834333Y-93082904D01*
X132548619Y-91606714D02*
X132548619Y-92082904D01*
X132548619Y-92082904D02*
X133024809Y-92130523D01*
X133024809Y-92130523D02*
X132977190Y-92082904D01*
X132977190Y-92082904D02*
X132929571Y-91987666D01*
X132929571Y-91987666D02*
X132929571Y-91749571D01*
X132929571Y-91749571D02*
X132977190Y-91654333D01*
X132977190Y-91654333D02*
X133024809Y-91606714D01*
X133024809Y-91606714D02*
X133120047Y-91559095D01*
X133120047Y-91559095D02*
X133358142Y-91559095D01*
X133358142Y-91559095D02*
X133453380Y-91606714D01*
X133453380Y-91606714D02*
X133501000Y-91654333D01*
X133501000Y-91654333D02*
X133548619Y-91749571D01*
X133548619Y-91749571D02*
X133548619Y-91987666D01*
X133548619Y-91987666D02*
X133501000Y-92082904D01*
X133501000Y-92082904D02*
X133453380Y-92130523D01*
%TO.C,D5*%
X120128573Y-67727619D02*
X120128573Y-66727619D01*
X120128573Y-66727619D02*
X120366668Y-66727619D01*
X120366668Y-66727619D02*
X120509525Y-66775238D01*
X120509525Y-66775238D02*
X120604763Y-66870476D01*
X120604763Y-66870476D02*
X120652382Y-66965714D01*
X120652382Y-66965714D02*
X120700001Y-67156190D01*
X120700001Y-67156190D02*
X120700001Y-67299047D01*
X120700001Y-67299047D02*
X120652382Y-67489523D01*
X120652382Y-67489523D02*
X120604763Y-67584761D01*
X120604763Y-67584761D02*
X120509525Y-67680000D01*
X120509525Y-67680000D02*
X120366668Y-67727619D01*
X120366668Y-67727619D02*
X120128573Y-67727619D01*
X121604763Y-66727619D02*
X121128573Y-66727619D01*
X121128573Y-66727619D02*
X121080954Y-67203809D01*
X121080954Y-67203809D02*
X121128573Y-67156190D01*
X121128573Y-67156190D02*
X121223811Y-67108571D01*
X121223811Y-67108571D02*
X121461906Y-67108571D01*
X121461906Y-67108571D02*
X121557144Y-67156190D01*
X121557144Y-67156190D02*
X121604763Y-67203809D01*
X121604763Y-67203809D02*
X121652382Y-67299047D01*
X121652382Y-67299047D02*
X121652382Y-67537142D01*
X121652382Y-67537142D02*
X121604763Y-67632380D01*
X121604763Y-67632380D02*
X121557144Y-67680000D01*
X121557144Y-67680000D02*
X121461906Y-67727619D01*
X121461906Y-67727619D02*
X121223811Y-67727619D01*
X121223811Y-67727619D02*
X121128573Y-67680000D01*
X121128573Y-67680000D02*
X121080954Y-67632380D01*
%TO.C,U3*%
X138338095Y-79980619D02*
X138338095Y-80790142D01*
X138338095Y-80790142D02*
X138385714Y-80885380D01*
X138385714Y-80885380D02*
X138433333Y-80933000D01*
X138433333Y-80933000D02*
X138528571Y-80980619D01*
X138528571Y-80980619D02*
X138719047Y-80980619D01*
X138719047Y-80980619D02*
X138814285Y-80933000D01*
X138814285Y-80933000D02*
X138861904Y-80885380D01*
X138861904Y-80885380D02*
X138909523Y-80790142D01*
X138909523Y-80790142D02*
X138909523Y-79980619D01*
X139290476Y-79980619D02*
X139909523Y-79980619D01*
X139909523Y-79980619D02*
X139576190Y-80361571D01*
X139576190Y-80361571D02*
X139719047Y-80361571D01*
X139719047Y-80361571D02*
X139814285Y-80409190D01*
X139814285Y-80409190D02*
X139861904Y-80456809D01*
X139861904Y-80456809D02*
X139909523Y-80552047D01*
X139909523Y-80552047D02*
X139909523Y-80790142D01*
X139909523Y-80790142D02*
X139861904Y-80885380D01*
X139861904Y-80885380D02*
X139814285Y-80933000D01*
X139814285Y-80933000D02*
X139719047Y-80980619D01*
X139719047Y-80980619D02*
X139433333Y-80980619D01*
X139433333Y-80980619D02*
X139338095Y-80933000D01*
X139338095Y-80933000D02*
X139290476Y-80885380D01*
%TO.C,U1*%
X118364095Y-89132619D02*
X118364095Y-89942142D01*
X118364095Y-89942142D02*
X118411714Y-90037380D01*
X118411714Y-90037380D02*
X118459333Y-90085000D01*
X118459333Y-90085000D02*
X118554571Y-90132619D01*
X118554571Y-90132619D02*
X118745047Y-90132619D01*
X118745047Y-90132619D02*
X118840285Y-90085000D01*
X118840285Y-90085000D02*
X118887904Y-90037380D01*
X118887904Y-90037380D02*
X118935523Y-89942142D01*
X118935523Y-89942142D02*
X118935523Y-89132619D01*
X119935523Y-90132619D02*
X119364095Y-90132619D01*
X119649809Y-90132619D02*
X119649809Y-89132619D01*
X119649809Y-89132619D02*
X119554571Y-89275476D01*
X119554571Y-89275476D02*
X119459333Y-89370714D01*
X119459333Y-89370714D02*
X119364095Y-89418333D01*
%TO.C,C19*%
X109051130Y-68498798D02*
X109098750Y-68546417D01*
X109098750Y-68546417D02*
X109146369Y-68689274D01*
X109146369Y-68689274D02*
X109146369Y-68784512D01*
X109146369Y-68784512D02*
X109098750Y-68927369D01*
X109098750Y-68927369D02*
X109003511Y-69022607D01*
X109003511Y-69022607D02*
X108908273Y-69070226D01*
X108908273Y-69070226D02*
X108717797Y-69117845D01*
X108717797Y-69117845D02*
X108574940Y-69117845D01*
X108574940Y-69117845D02*
X108384464Y-69070226D01*
X108384464Y-69070226D02*
X108289226Y-69022607D01*
X108289226Y-69022607D02*
X108193988Y-68927369D01*
X108193988Y-68927369D02*
X108146369Y-68784512D01*
X108146369Y-68784512D02*
X108146369Y-68689274D01*
X108146369Y-68689274D02*
X108193988Y-68546417D01*
X108193988Y-68546417D02*
X108241607Y-68498798D01*
X109146369Y-67546417D02*
X109146369Y-68117845D01*
X109146369Y-67832131D02*
X108146369Y-67832131D01*
X108146369Y-67832131D02*
X108289226Y-67927369D01*
X108289226Y-67927369D02*
X108384464Y-68022607D01*
X108384464Y-68022607D02*
X108432083Y-68117845D01*
X109146369Y-67070226D02*
X109146369Y-66879750D01*
X109146369Y-66879750D02*
X109098750Y-66784512D01*
X109098750Y-66784512D02*
X109051130Y-66736893D01*
X109051130Y-66736893D02*
X108908273Y-66641655D01*
X108908273Y-66641655D02*
X108717797Y-66594036D01*
X108717797Y-66594036D02*
X108336845Y-66594036D01*
X108336845Y-66594036D02*
X108241607Y-66641655D01*
X108241607Y-66641655D02*
X108193988Y-66689274D01*
X108193988Y-66689274D02*
X108146369Y-66784512D01*
X108146369Y-66784512D02*
X108146369Y-66974988D01*
X108146369Y-66974988D02*
X108193988Y-67070226D01*
X108193988Y-67070226D02*
X108241607Y-67117845D01*
X108241607Y-67117845D02*
X108336845Y-67165464D01*
X108336845Y-67165464D02*
X108574940Y-67165464D01*
X108574940Y-67165464D02*
X108670178Y-67117845D01*
X108670178Y-67117845D02*
X108717797Y-67070226D01*
X108717797Y-67070226D02*
X108765416Y-66974988D01*
X108765416Y-66974988D02*
X108765416Y-66784512D01*
X108765416Y-66784512D02*
X108717797Y-66689274D01*
X108717797Y-66689274D02*
X108670178Y-66641655D01*
X108670178Y-66641655D02*
X108574940Y-66594036D01*
%TO.C,J5*%
X167685119Y-101153333D02*
X168399404Y-101153333D01*
X168399404Y-101153333D02*
X168542261Y-101200952D01*
X168542261Y-101200952D02*
X168637500Y-101296190D01*
X168637500Y-101296190D02*
X168685119Y-101439047D01*
X168685119Y-101439047D02*
X168685119Y-101534285D01*
X167685119Y-100200952D02*
X167685119Y-100677142D01*
X167685119Y-100677142D02*
X168161309Y-100724761D01*
X168161309Y-100724761D02*
X168113690Y-100677142D01*
X168113690Y-100677142D02*
X168066071Y-100581904D01*
X168066071Y-100581904D02*
X168066071Y-100343809D01*
X168066071Y-100343809D02*
X168113690Y-100248571D01*
X168113690Y-100248571D02*
X168161309Y-100200952D01*
X168161309Y-100200952D02*
X168256547Y-100153333D01*
X168256547Y-100153333D02*
X168494642Y-100153333D01*
X168494642Y-100153333D02*
X168589880Y-100200952D01*
X168589880Y-100200952D02*
X168637500Y-100248571D01*
X168637500Y-100248571D02*
X168685119Y-100343809D01*
X168685119Y-100343809D02*
X168685119Y-100581904D01*
X168685119Y-100581904D02*
X168637500Y-100677142D01*
X168637500Y-100677142D02*
X168589880Y-100724761D01*
%TO.C,R7*%
X142162619Y-86766666D02*
X141686428Y-87099999D01*
X142162619Y-87338094D02*
X141162619Y-87338094D01*
X141162619Y-87338094D02*
X141162619Y-86957142D01*
X141162619Y-86957142D02*
X141210238Y-86861904D01*
X141210238Y-86861904D02*
X141257857Y-86814285D01*
X141257857Y-86814285D02*
X141353095Y-86766666D01*
X141353095Y-86766666D02*
X141495952Y-86766666D01*
X141495952Y-86766666D02*
X141591190Y-86814285D01*
X141591190Y-86814285D02*
X141638809Y-86861904D01*
X141638809Y-86861904D02*
X141686428Y-86957142D01*
X141686428Y-86957142D02*
X141686428Y-87338094D01*
X141162619Y-86433332D02*
X141162619Y-85766666D01*
X141162619Y-85766666D02*
X142162619Y-86195237D01*
%TO.C,C27*%
X99049142Y-106819880D02*
X99001523Y-106867500D01*
X99001523Y-106867500D02*
X98858666Y-106915119D01*
X98858666Y-106915119D02*
X98763428Y-106915119D01*
X98763428Y-106915119D02*
X98620571Y-106867500D01*
X98620571Y-106867500D02*
X98525333Y-106772261D01*
X98525333Y-106772261D02*
X98477714Y-106677023D01*
X98477714Y-106677023D02*
X98430095Y-106486547D01*
X98430095Y-106486547D02*
X98430095Y-106343690D01*
X98430095Y-106343690D02*
X98477714Y-106153214D01*
X98477714Y-106153214D02*
X98525333Y-106057976D01*
X98525333Y-106057976D02*
X98620571Y-105962738D01*
X98620571Y-105962738D02*
X98763428Y-105915119D01*
X98763428Y-105915119D02*
X98858666Y-105915119D01*
X98858666Y-105915119D02*
X99001523Y-105962738D01*
X99001523Y-105962738D02*
X99049142Y-106010357D01*
X99430095Y-106010357D02*
X99477714Y-105962738D01*
X99477714Y-105962738D02*
X99572952Y-105915119D01*
X99572952Y-105915119D02*
X99811047Y-105915119D01*
X99811047Y-105915119D02*
X99906285Y-105962738D01*
X99906285Y-105962738D02*
X99953904Y-106010357D01*
X99953904Y-106010357D02*
X100001523Y-106105595D01*
X100001523Y-106105595D02*
X100001523Y-106200833D01*
X100001523Y-106200833D02*
X99953904Y-106343690D01*
X99953904Y-106343690D02*
X99382476Y-106915119D01*
X99382476Y-106915119D02*
X100001523Y-106915119D01*
X100334857Y-105915119D02*
X101001523Y-105915119D01*
X101001523Y-105915119D02*
X100572952Y-106915119D01*
%TO.C,R2*%
X100243869Y-70572666D02*
X99767678Y-70905999D01*
X100243869Y-71144094D02*
X99243869Y-71144094D01*
X99243869Y-71144094D02*
X99243869Y-70763142D01*
X99243869Y-70763142D02*
X99291488Y-70667904D01*
X99291488Y-70667904D02*
X99339107Y-70620285D01*
X99339107Y-70620285D02*
X99434345Y-70572666D01*
X99434345Y-70572666D02*
X99577202Y-70572666D01*
X99577202Y-70572666D02*
X99672440Y-70620285D01*
X99672440Y-70620285D02*
X99720059Y-70667904D01*
X99720059Y-70667904D02*
X99767678Y-70763142D01*
X99767678Y-70763142D02*
X99767678Y-71144094D01*
X99339107Y-70191713D02*
X99291488Y-70144094D01*
X99291488Y-70144094D02*
X99243869Y-70048856D01*
X99243869Y-70048856D02*
X99243869Y-69810761D01*
X99243869Y-69810761D02*
X99291488Y-69715523D01*
X99291488Y-69715523D02*
X99339107Y-69667904D01*
X99339107Y-69667904D02*
X99434345Y-69620285D01*
X99434345Y-69620285D02*
X99529583Y-69620285D01*
X99529583Y-69620285D02*
X99672440Y-69667904D01*
X99672440Y-69667904D02*
X100243869Y-70239332D01*
X100243869Y-70239332D02*
X100243869Y-69620285D01*
%TO.C,Y1*%
X138296428Y-84800190D02*
X138772619Y-84800190D01*
X137772619Y-85133523D02*
X138296428Y-84800190D01*
X138296428Y-84800190D02*
X137772619Y-84466857D01*
X138772619Y-83609714D02*
X138772619Y-84181142D01*
X138772619Y-83895428D02*
X137772619Y-83895428D01*
X137772619Y-83895428D02*
X137915476Y-83990666D01*
X137915476Y-83990666D02*
X138010714Y-84085904D01*
X138010714Y-84085904D02*
X138058333Y-84181142D01*
%TO.C,Y2*%
X132822428Y-84872190D02*
X133298619Y-84872190D01*
X132298619Y-85205523D02*
X132822428Y-84872190D01*
X132822428Y-84872190D02*
X132298619Y-84538857D01*
X132393857Y-84253142D02*
X132346238Y-84205523D01*
X132346238Y-84205523D02*
X132298619Y-84110285D01*
X132298619Y-84110285D02*
X132298619Y-83872190D01*
X132298619Y-83872190D02*
X132346238Y-83776952D01*
X132346238Y-83776952D02*
X132393857Y-83729333D01*
X132393857Y-83729333D02*
X132489095Y-83681714D01*
X132489095Y-83681714D02*
X132584333Y-83681714D01*
X132584333Y-83681714D02*
X132727190Y-83729333D01*
X132727190Y-83729333D02*
X133298619Y-84300761D01*
X133298619Y-84300761D02*
X133298619Y-83681714D01*
%TO.C,C2*%
X154487333Y-137346880D02*
X154439714Y-137394500D01*
X154439714Y-137394500D02*
X154296857Y-137442119D01*
X154296857Y-137442119D02*
X154201619Y-137442119D01*
X154201619Y-137442119D02*
X154058762Y-137394500D01*
X154058762Y-137394500D02*
X153963524Y-137299261D01*
X153963524Y-137299261D02*
X153915905Y-137204023D01*
X153915905Y-137204023D02*
X153868286Y-137013547D01*
X153868286Y-137013547D02*
X153868286Y-136870690D01*
X153868286Y-136870690D02*
X153915905Y-136680214D01*
X153915905Y-136680214D02*
X153963524Y-136584976D01*
X153963524Y-136584976D02*
X154058762Y-136489738D01*
X154058762Y-136489738D02*
X154201619Y-136442119D01*
X154201619Y-136442119D02*
X154296857Y-136442119D01*
X154296857Y-136442119D02*
X154439714Y-136489738D01*
X154439714Y-136489738D02*
X154487333Y-136537357D01*
X154868286Y-136537357D02*
X154915905Y-136489738D01*
X154915905Y-136489738D02*
X155011143Y-136442119D01*
X155011143Y-136442119D02*
X155249238Y-136442119D01*
X155249238Y-136442119D02*
X155344476Y-136489738D01*
X155344476Y-136489738D02*
X155392095Y-136537357D01*
X155392095Y-136537357D02*
X155439714Y-136632595D01*
X155439714Y-136632595D02*
X155439714Y-136727833D01*
X155439714Y-136727833D02*
X155392095Y-136870690D01*
X155392095Y-136870690D02*
X154820667Y-137442119D01*
X154820667Y-137442119D02*
X155439714Y-137442119D01*
%TO.C,SW1*%
X96891667Y-61815000D02*
X97034524Y-61862619D01*
X97034524Y-61862619D02*
X97272619Y-61862619D01*
X97272619Y-61862619D02*
X97367857Y-61815000D01*
X97367857Y-61815000D02*
X97415476Y-61767380D01*
X97415476Y-61767380D02*
X97463095Y-61672142D01*
X97463095Y-61672142D02*
X97463095Y-61576904D01*
X97463095Y-61576904D02*
X97415476Y-61481666D01*
X97415476Y-61481666D02*
X97367857Y-61434047D01*
X97367857Y-61434047D02*
X97272619Y-61386428D01*
X97272619Y-61386428D02*
X97082143Y-61338809D01*
X97082143Y-61338809D02*
X96986905Y-61291190D01*
X96986905Y-61291190D02*
X96939286Y-61243571D01*
X96939286Y-61243571D02*
X96891667Y-61148333D01*
X96891667Y-61148333D02*
X96891667Y-61053095D01*
X96891667Y-61053095D02*
X96939286Y-60957857D01*
X96939286Y-60957857D02*
X96986905Y-60910238D01*
X96986905Y-60910238D02*
X97082143Y-60862619D01*
X97082143Y-60862619D02*
X97320238Y-60862619D01*
X97320238Y-60862619D02*
X97463095Y-60910238D01*
X97796429Y-60862619D02*
X98034524Y-61862619D01*
X98034524Y-61862619D02*
X98225000Y-61148333D01*
X98225000Y-61148333D02*
X98415476Y-61862619D01*
X98415476Y-61862619D02*
X98653572Y-60862619D01*
X99558333Y-61862619D02*
X98986905Y-61862619D01*
X99272619Y-61862619D02*
X99272619Y-60862619D01*
X99272619Y-60862619D02*
X99177381Y-61005476D01*
X99177381Y-61005476D02*
X99082143Y-61100714D01*
X99082143Y-61100714D02*
X98986905Y-61148333D01*
%TO.C,C8*%
X130643333Y-77147380D02*
X130595714Y-77195000D01*
X130595714Y-77195000D02*
X130452857Y-77242619D01*
X130452857Y-77242619D02*
X130357619Y-77242619D01*
X130357619Y-77242619D02*
X130214762Y-77195000D01*
X130214762Y-77195000D02*
X130119524Y-77099761D01*
X130119524Y-77099761D02*
X130071905Y-77004523D01*
X130071905Y-77004523D02*
X130024286Y-76814047D01*
X130024286Y-76814047D02*
X130024286Y-76671190D01*
X130024286Y-76671190D02*
X130071905Y-76480714D01*
X130071905Y-76480714D02*
X130119524Y-76385476D01*
X130119524Y-76385476D02*
X130214762Y-76290238D01*
X130214762Y-76290238D02*
X130357619Y-76242619D01*
X130357619Y-76242619D02*
X130452857Y-76242619D01*
X130452857Y-76242619D02*
X130595714Y-76290238D01*
X130595714Y-76290238D02*
X130643333Y-76337857D01*
X131214762Y-76671190D02*
X131119524Y-76623571D01*
X131119524Y-76623571D02*
X131071905Y-76575952D01*
X131071905Y-76575952D02*
X131024286Y-76480714D01*
X131024286Y-76480714D02*
X131024286Y-76433095D01*
X131024286Y-76433095D02*
X131071905Y-76337857D01*
X131071905Y-76337857D02*
X131119524Y-76290238D01*
X131119524Y-76290238D02*
X131214762Y-76242619D01*
X131214762Y-76242619D02*
X131405238Y-76242619D01*
X131405238Y-76242619D02*
X131500476Y-76290238D01*
X131500476Y-76290238D02*
X131548095Y-76337857D01*
X131548095Y-76337857D02*
X131595714Y-76433095D01*
X131595714Y-76433095D02*
X131595714Y-76480714D01*
X131595714Y-76480714D02*
X131548095Y-76575952D01*
X131548095Y-76575952D02*
X131500476Y-76623571D01*
X131500476Y-76623571D02*
X131405238Y-76671190D01*
X131405238Y-76671190D02*
X131214762Y-76671190D01*
X131214762Y-76671190D02*
X131119524Y-76718809D01*
X131119524Y-76718809D02*
X131071905Y-76766428D01*
X131071905Y-76766428D02*
X131024286Y-76861666D01*
X131024286Y-76861666D02*
X131024286Y-77052142D01*
X131024286Y-77052142D02*
X131071905Y-77147380D01*
X131071905Y-77147380D02*
X131119524Y-77195000D01*
X131119524Y-77195000D02*
X131214762Y-77242619D01*
X131214762Y-77242619D02*
X131405238Y-77242619D01*
X131405238Y-77242619D02*
X131500476Y-77195000D01*
X131500476Y-77195000D02*
X131548095Y-77147380D01*
X131548095Y-77147380D02*
X131595714Y-77052142D01*
X131595714Y-77052142D02*
X131595714Y-76861666D01*
X131595714Y-76861666D02*
X131548095Y-76766428D01*
X131548095Y-76766428D02*
X131500476Y-76718809D01*
X131500476Y-76718809D02*
X131405238Y-76671190D01*
%TO.C,R9*%
X109206369Y-71227607D02*
X108730178Y-71560940D01*
X109206369Y-71799035D02*
X108206369Y-71799035D01*
X108206369Y-71799035D02*
X108206369Y-71418083D01*
X108206369Y-71418083D02*
X108253988Y-71322845D01*
X108253988Y-71322845D02*
X108301607Y-71275226D01*
X108301607Y-71275226D02*
X108396845Y-71227607D01*
X108396845Y-71227607D02*
X108539702Y-71227607D01*
X108539702Y-71227607D02*
X108634940Y-71275226D01*
X108634940Y-71275226D02*
X108682559Y-71322845D01*
X108682559Y-71322845D02*
X108730178Y-71418083D01*
X108730178Y-71418083D02*
X108730178Y-71799035D01*
X109206369Y-70751416D02*
X109206369Y-70560940D01*
X109206369Y-70560940D02*
X109158750Y-70465702D01*
X109158750Y-70465702D02*
X109111130Y-70418083D01*
X109111130Y-70418083D02*
X108968273Y-70322845D01*
X108968273Y-70322845D02*
X108777797Y-70275226D01*
X108777797Y-70275226D02*
X108396845Y-70275226D01*
X108396845Y-70275226D02*
X108301607Y-70322845D01*
X108301607Y-70322845D02*
X108253988Y-70370464D01*
X108253988Y-70370464D02*
X108206369Y-70465702D01*
X108206369Y-70465702D02*
X108206369Y-70656178D01*
X108206369Y-70656178D02*
X108253988Y-70751416D01*
X108253988Y-70751416D02*
X108301607Y-70799035D01*
X108301607Y-70799035D02*
X108396845Y-70846654D01*
X108396845Y-70846654D02*
X108634940Y-70846654D01*
X108634940Y-70846654D02*
X108730178Y-70799035D01*
X108730178Y-70799035D02*
X108777797Y-70751416D01*
X108777797Y-70751416D02*
X108825416Y-70656178D01*
X108825416Y-70656178D02*
X108825416Y-70465702D01*
X108825416Y-70465702D02*
X108777797Y-70370464D01*
X108777797Y-70370464D02*
X108730178Y-70322845D01*
X108730178Y-70322845D02*
X108634940Y-70275226D01*
%TO.C,D6*%
X124995239Y-67727619D02*
X124995239Y-66727619D01*
X124995239Y-66727619D02*
X125233334Y-66727619D01*
X125233334Y-66727619D02*
X125376191Y-66775238D01*
X125376191Y-66775238D02*
X125471429Y-66870476D01*
X125471429Y-66870476D02*
X125519048Y-66965714D01*
X125519048Y-66965714D02*
X125566667Y-67156190D01*
X125566667Y-67156190D02*
X125566667Y-67299047D01*
X125566667Y-67299047D02*
X125519048Y-67489523D01*
X125519048Y-67489523D02*
X125471429Y-67584761D01*
X125471429Y-67584761D02*
X125376191Y-67680000D01*
X125376191Y-67680000D02*
X125233334Y-67727619D01*
X125233334Y-67727619D02*
X124995239Y-67727619D01*
X126423810Y-66727619D02*
X126233334Y-66727619D01*
X126233334Y-66727619D02*
X126138096Y-66775238D01*
X126138096Y-66775238D02*
X126090477Y-66822857D01*
X126090477Y-66822857D02*
X125995239Y-66965714D01*
X125995239Y-66965714D02*
X125947620Y-67156190D01*
X125947620Y-67156190D02*
X125947620Y-67537142D01*
X125947620Y-67537142D02*
X125995239Y-67632380D01*
X125995239Y-67632380D02*
X126042858Y-67680000D01*
X126042858Y-67680000D02*
X126138096Y-67727619D01*
X126138096Y-67727619D02*
X126328572Y-67727619D01*
X126328572Y-67727619D02*
X126423810Y-67680000D01*
X126423810Y-67680000D02*
X126471429Y-67632380D01*
X126471429Y-67632380D02*
X126519048Y-67537142D01*
X126519048Y-67537142D02*
X126519048Y-67299047D01*
X126519048Y-67299047D02*
X126471429Y-67203809D01*
X126471429Y-67203809D02*
X126423810Y-67156190D01*
X126423810Y-67156190D02*
X126328572Y-67108571D01*
X126328572Y-67108571D02*
X126138096Y-67108571D01*
X126138096Y-67108571D02*
X126042858Y-67156190D01*
X126042858Y-67156190D02*
X125995239Y-67203809D01*
X125995239Y-67203809D02*
X125947620Y-67299047D01*
%TO.C,C12*%
X127483142Y-74849380D02*
X127435523Y-74897000D01*
X127435523Y-74897000D02*
X127292666Y-74944619D01*
X127292666Y-74944619D02*
X127197428Y-74944619D01*
X127197428Y-74944619D02*
X127054571Y-74897000D01*
X127054571Y-74897000D02*
X126959333Y-74801761D01*
X126959333Y-74801761D02*
X126911714Y-74706523D01*
X126911714Y-74706523D02*
X126864095Y-74516047D01*
X126864095Y-74516047D02*
X126864095Y-74373190D01*
X126864095Y-74373190D02*
X126911714Y-74182714D01*
X126911714Y-74182714D02*
X126959333Y-74087476D01*
X126959333Y-74087476D02*
X127054571Y-73992238D01*
X127054571Y-73992238D02*
X127197428Y-73944619D01*
X127197428Y-73944619D02*
X127292666Y-73944619D01*
X127292666Y-73944619D02*
X127435523Y-73992238D01*
X127435523Y-73992238D02*
X127483142Y-74039857D01*
X128435523Y-74944619D02*
X127864095Y-74944619D01*
X128149809Y-74944619D02*
X128149809Y-73944619D01*
X128149809Y-73944619D02*
X128054571Y-74087476D01*
X128054571Y-74087476D02*
X127959333Y-74182714D01*
X127959333Y-74182714D02*
X127864095Y-74230333D01*
X128816476Y-74039857D02*
X128864095Y-73992238D01*
X128864095Y-73992238D02*
X128959333Y-73944619D01*
X128959333Y-73944619D02*
X129197428Y-73944619D01*
X129197428Y-73944619D02*
X129292666Y-73992238D01*
X129292666Y-73992238D02*
X129340285Y-74039857D01*
X129340285Y-74039857D02*
X129387904Y-74135095D01*
X129387904Y-74135095D02*
X129387904Y-74230333D01*
X129387904Y-74230333D02*
X129340285Y-74373190D01*
X129340285Y-74373190D02*
X128768857Y-74944619D01*
X128768857Y-74944619D02*
X129387904Y-74944619D01*
%TO.C,L1*%
X116537380Y-107112833D02*
X116537380Y-106636643D01*
X116537380Y-106636643D02*
X117537380Y-106636643D01*
X116537380Y-107969976D02*
X116537380Y-107398548D01*
X116537380Y-107684262D02*
X117537380Y-107684262D01*
X117537380Y-107684262D02*
X117394523Y-107589024D01*
X117394523Y-107589024D02*
X117299285Y-107493786D01*
X117299285Y-107493786D02*
X117251666Y-107398548D01*
%TO.C,C4*%
X109239333Y-86947380D02*
X109191714Y-86995000D01*
X109191714Y-86995000D02*
X109048857Y-87042619D01*
X109048857Y-87042619D02*
X108953619Y-87042619D01*
X108953619Y-87042619D02*
X108810762Y-86995000D01*
X108810762Y-86995000D02*
X108715524Y-86899761D01*
X108715524Y-86899761D02*
X108667905Y-86804523D01*
X108667905Y-86804523D02*
X108620286Y-86614047D01*
X108620286Y-86614047D02*
X108620286Y-86471190D01*
X108620286Y-86471190D02*
X108667905Y-86280714D01*
X108667905Y-86280714D02*
X108715524Y-86185476D01*
X108715524Y-86185476D02*
X108810762Y-86090238D01*
X108810762Y-86090238D02*
X108953619Y-86042619D01*
X108953619Y-86042619D02*
X109048857Y-86042619D01*
X109048857Y-86042619D02*
X109191714Y-86090238D01*
X109191714Y-86090238D02*
X109239333Y-86137857D01*
X110096476Y-86375952D02*
X110096476Y-87042619D01*
X109858381Y-85995000D02*
X109620286Y-86709285D01*
X109620286Y-86709285D02*
X110239333Y-86709285D01*
%TO.C,D2*%
X157143405Y-111484119D02*
X157143405Y-110484119D01*
X157143405Y-110484119D02*
X157381500Y-110484119D01*
X157381500Y-110484119D02*
X157524357Y-110531738D01*
X157524357Y-110531738D02*
X157619595Y-110626976D01*
X157619595Y-110626976D02*
X157667214Y-110722214D01*
X157667214Y-110722214D02*
X157714833Y-110912690D01*
X157714833Y-110912690D02*
X157714833Y-111055547D01*
X157714833Y-111055547D02*
X157667214Y-111246023D01*
X157667214Y-111246023D02*
X157619595Y-111341261D01*
X157619595Y-111341261D02*
X157524357Y-111436500D01*
X157524357Y-111436500D02*
X157381500Y-111484119D01*
X157381500Y-111484119D02*
X157143405Y-111484119D01*
X158095786Y-110579357D02*
X158143405Y-110531738D01*
X158143405Y-110531738D02*
X158238643Y-110484119D01*
X158238643Y-110484119D02*
X158476738Y-110484119D01*
X158476738Y-110484119D02*
X158571976Y-110531738D01*
X158571976Y-110531738D02*
X158619595Y-110579357D01*
X158619595Y-110579357D02*
X158667214Y-110674595D01*
X158667214Y-110674595D02*
X158667214Y-110769833D01*
X158667214Y-110769833D02*
X158619595Y-110912690D01*
X158619595Y-110912690D02*
X158048167Y-111484119D01*
X158048167Y-111484119D02*
X158667214Y-111484119D01*
%TO.C,C1*%
X154232333Y-117788880D02*
X154184714Y-117836500D01*
X154184714Y-117836500D02*
X154041857Y-117884119D01*
X154041857Y-117884119D02*
X153946619Y-117884119D01*
X153946619Y-117884119D02*
X153803762Y-117836500D01*
X153803762Y-117836500D02*
X153708524Y-117741261D01*
X153708524Y-117741261D02*
X153660905Y-117646023D01*
X153660905Y-117646023D02*
X153613286Y-117455547D01*
X153613286Y-117455547D02*
X153613286Y-117312690D01*
X153613286Y-117312690D02*
X153660905Y-117122214D01*
X153660905Y-117122214D02*
X153708524Y-117026976D01*
X153708524Y-117026976D02*
X153803762Y-116931738D01*
X153803762Y-116931738D02*
X153946619Y-116884119D01*
X153946619Y-116884119D02*
X154041857Y-116884119D01*
X154041857Y-116884119D02*
X154184714Y-116931738D01*
X154184714Y-116931738D02*
X154232333Y-116979357D01*
X155184714Y-117884119D02*
X154613286Y-117884119D01*
X154899000Y-117884119D02*
X154899000Y-116884119D01*
X154899000Y-116884119D02*
X154803762Y-117026976D01*
X154803762Y-117026976D02*
X154708524Y-117122214D01*
X154708524Y-117122214D02*
X154613286Y-117169833D01*
%TO.C,C24*%
X120451142Y-137798880D02*
X120403523Y-137846500D01*
X120403523Y-137846500D02*
X120260666Y-137894119D01*
X120260666Y-137894119D02*
X120165428Y-137894119D01*
X120165428Y-137894119D02*
X120022571Y-137846500D01*
X120022571Y-137846500D02*
X119927333Y-137751261D01*
X119927333Y-137751261D02*
X119879714Y-137656023D01*
X119879714Y-137656023D02*
X119832095Y-137465547D01*
X119832095Y-137465547D02*
X119832095Y-137322690D01*
X119832095Y-137322690D02*
X119879714Y-137132214D01*
X119879714Y-137132214D02*
X119927333Y-137036976D01*
X119927333Y-137036976D02*
X120022571Y-136941738D01*
X120022571Y-136941738D02*
X120165428Y-136894119D01*
X120165428Y-136894119D02*
X120260666Y-136894119D01*
X120260666Y-136894119D02*
X120403523Y-136941738D01*
X120403523Y-136941738D02*
X120451142Y-136989357D01*
X120832095Y-136989357D02*
X120879714Y-136941738D01*
X120879714Y-136941738D02*
X120974952Y-136894119D01*
X120974952Y-136894119D02*
X121213047Y-136894119D01*
X121213047Y-136894119D02*
X121308285Y-136941738D01*
X121308285Y-136941738D02*
X121355904Y-136989357D01*
X121355904Y-136989357D02*
X121403523Y-137084595D01*
X121403523Y-137084595D02*
X121403523Y-137179833D01*
X121403523Y-137179833D02*
X121355904Y-137322690D01*
X121355904Y-137322690D02*
X120784476Y-137894119D01*
X120784476Y-137894119D02*
X121403523Y-137894119D01*
X122260666Y-137227452D02*
X122260666Y-137894119D01*
X122022571Y-136846500D02*
X121784476Y-137560785D01*
X121784476Y-137560785D02*
X122403523Y-137560785D01*
%TO.C,C21*%
X141265380Y-119842357D02*
X141313000Y-119889976D01*
X141313000Y-119889976D02*
X141360619Y-120032833D01*
X141360619Y-120032833D02*
X141360619Y-120128071D01*
X141360619Y-120128071D02*
X141313000Y-120270928D01*
X141313000Y-120270928D02*
X141217761Y-120366166D01*
X141217761Y-120366166D02*
X141122523Y-120413785D01*
X141122523Y-120413785D02*
X140932047Y-120461404D01*
X140932047Y-120461404D02*
X140789190Y-120461404D01*
X140789190Y-120461404D02*
X140598714Y-120413785D01*
X140598714Y-120413785D02*
X140503476Y-120366166D01*
X140503476Y-120366166D02*
X140408238Y-120270928D01*
X140408238Y-120270928D02*
X140360619Y-120128071D01*
X140360619Y-120128071D02*
X140360619Y-120032833D01*
X140360619Y-120032833D02*
X140408238Y-119889976D01*
X140408238Y-119889976D02*
X140455857Y-119842357D01*
X140455857Y-119461404D02*
X140408238Y-119413785D01*
X140408238Y-119413785D02*
X140360619Y-119318547D01*
X140360619Y-119318547D02*
X140360619Y-119080452D01*
X140360619Y-119080452D02*
X140408238Y-118985214D01*
X140408238Y-118985214D02*
X140455857Y-118937595D01*
X140455857Y-118937595D02*
X140551095Y-118889976D01*
X140551095Y-118889976D02*
X140646333Y-118889976D01*
X140646333Y-118889976D02*
X140789190Y-118937595D01*
X140789190Y-118937595D02*
X141360619Y-119509023D01*
X141360619Y-119509023D02*
X141360619Y-118889976D01*
X141360619Y-117937595D02*
X141360619Y-118509023D01*
X141360619Y-118223309D02*
X140360619Y-118223309D01*
X140360619Y-118223309D02*
X140503476Y-118318547D01*
X140503476Y-118318547D02*
X140598714Y-118413785D01*
X140598714Y-118413785D02*
X140646333Y-118509023D01*
%TO.C,C22*%
X129857142Y-113667380D02*
X129809523Y-113715000D01*
X129809523Y-113715000D02*
X129666666Y-113762619D01*
X129666666Y-113762619D02*
X129571428Y-113762619D01*
X129571428Y-113762619D02*
X129428571Y-113715000D01*
X129428571Y-113715000D02*
X129333333Y-113619761D01*
X129333333Y-113619761D02*
X129285714Y-113524523D01*
X129285714Y-113524523D02*
X129238095Y-113334047D01*
X129238095Y-113334047D02*
X129238095Y-113191190D01*
X129238095Y-113191190D02*
X129285714Y-113000714D01*
X129285714Y-113000714D02*
X129333333Y-112905476D01*
X129333333Y-112905476D02*
X129428571Y-112810238D01*
X129428571Y-112810238D02*
X129571428Y-112762619D01*
X129571428Y-112762619D02*
X129666666Y-112762619D01*
X129666666Y-112762619D02*
X129809523Y-112810238D01*
X129809523Y-112810238D02*
X129857142Y-112857857D01*
X130238095Y-112857857D02*
X130285714Y-112810238D01*
X130285714Y-112810238D02*
X130380952Y-112762619D01*
X130380952Y-112762619D02*
X130619047Y-112762619D01*
X130619047Y-112762619D02*
X130714285Y-112810238D01*
X130714285Y-112810238D02*
X130761904Y-112857857D01*
X130761904Y-112857857D02*
X130809523Y-112953095D01*
X130809523Y-112953095D02*
X130809523Y-113048333D01*
X130809523Y-113048333D02*
X130761904Y-113191190D01*
X130761904Y-113191190D02*
X130190476Y-113762619D01*
X130190476Y-113762619D02*
X130809523Y-113762619D01*
X131190476Y-112857857D02*
X131238095Y-112810238D01*
X131238095Y-112810238D02*
X131333333Y-112762619D01*
X131333333Y-112762619D02*
X131571428Y-112762619D01*
X131571428Y-112762619D02*
X131666666Y-112810238D01*
X131666666Y-112810238D02*
X131714285Y-112857857D01*
X131714285Y-112857857D02*
X131761904Y-112953095D01*
X131761904Y-112953095D02*
X131761904Y-113048333D01*
X131761904Y-113048333D02*
X131714285Y-113191190D01*
X131714285Y-113191190D02*
X131142857Y-113762619D01*
X131142857Y-113762619D02*
X131761904Y-113762619D01*
%TO.C,D1*%
X156741905Y-137442119D02*
X156741905Y-136442119D01*
X156741905Y-136442119D02*
X156980000Y-136442119D01*
X156980000Y-136442119D02*
X157122857Y-136489738D01*
X157122857Y-136489738D02*
X157218095Y-136584976D01*
X157218095Y-136584976D02*
X157265714Y-136680214D01*
X157265714Y-136680214D02*
X157313333Y-136870690D01*
X157313333Y-136870690D02*
X157313333Y-137013547D01*
X157313333Y-137013547D02*
X157265714Y-137204023D01*
X157265714Y-137204023D02*
X157218095Y-137299261D01*
X157218095Y-137299261D02*
X157122857Y-137394500D01*
X157122857Y-137394500D02*
X156980000Y-137442119D01*
X156980000Y-137442119D02*
X156741905Y-137442119D01*
X158265714Y-137442119D02*
X157694286Y-137442119D01*
X157980000Y-137442119D02*
X157980000Y-136442119D01*
X157980000Y-136442119D02*
X157884762Y-136584976D01*
X157884762Y-136584976D02*
X157789524Y-136680214D01*
X157789524Y-136680214D02*
X157694286Y-136727833D01*
%TO.C,J3*%
X102288619Y-91519333D02*
X103002904Y-91519333D01*
X103002904Y-91519333D02*
X103145761Y-91566952D01*
X103145761Y-91566952D02*
X103241000Y-91662190D01*
X103241000Y-91662190D02*
X103288619Y-91805047D01*
X103288619Y-91805047D02*
X103288619Y-91900285D01*
X102288619Y-91138380D02*
X102288619Y-90519333D01*
X102288619Y-90519333D02*
X102669571Y-90852666D01*
X102669571Y-90852666D02*
X102669571Y-90709809D01*
X102669571Y-90709809D02*
X102717190Y-90614571D01*
X102717190Y-90614571D02*
X102764809Y-90566952D01*
X102764809Y-90566952D02*
X102860047Y-90519333D01*
X102860047Y-90519333D02*
X103098142Y-90519333D01*
X103098142Y-90519333D02*
X103193380Y-90566952D01*
X103193380Y-90566952D02*
X103241000Y-90614571D01*
X103241000Y-90614571D02*
X103288619Y-90709809D01*
X103288619Y-90709809D02*
X103288619Y-90995523D01*
X103288619Y-90995523D02*
X103241000Y-91090761D01*
X103241000Y-91090761D02*
X103193380Y-91138380D01*
%TO.C,R13*%
X115307142Y-57287619D02*
X114973809Y-56811428D01*
X114735714Y-57287619D02*
X114735714Y-56287619D01*
X114735714Y-56287619D02*
X115116666Y-56287619D01*
X115116666Y-56287619D02*
X115211904Y-56335238D01*
X115211904Y-56335238D02*
X115259523Y-56382857D01*
X115259523Y-56382857D02*
X115307142Y-56478095D01*
X115307142Y-56478095D02*
X115307142Y-56620952D01*
X115307142Y-56620952D02*
X115259523Y-56716190D01*
X115259523Y-56716190D02*
X115211904Y-56763809D01*
X115211904Y-56763809D02*
X115116666Y-56811428D01*
X115116666Y-56811428D02*
X114735714Y-56811428D01*
X116259523Y-57287619D02*
X115688095Y-57287619D01*
X115973809Y-57287619D02*
X115973809Y-56287619D01*
X115973809Y-56287619D02*
X115878571Y-56430476D01*
X115878571Y-56430476D02*
X115783333Y-56525714D01*
X115783333Y-56525714D02*
X115688095Y-56573333D01*
X116592857Y-56287619D02*
X117211904Y-56287619D01*
X117211904Y-56287619D02*
X116878571Y-56668571D01*
X116878571Y-56668571D02*
X117021428Y-56668571D01*
X117021428Y-56668571D02*
X117116666Y-56716190D01*
X117116666Y-56716190D02*
X117164285Y-56763809D01*
X117164285Y-56763809D02*
X117211904Y-56859047D01*
X117211904Y-56859047D02*
X117211904Y-57097142D01*
X117211904Y-57097142D02*
X117164285Y-57192380D01*
X117164285Y-57192380D02*
X117116666Y-57240000D01*
X117116666Y-57240000D02*
X117021428Y-57287619D01*
X117021428Y-57287619D02*
X116735714Y-57287619D01*
X116735714Y-57287619D02*
X116640476Y-57240000D01*
X116640476Y-57240000D02*
X116592857Y-57192380D01*
%TO.C,D12*%
X96785714Y-118162619D02*
X96785714Y-117162619D01*
X96785714Y-117162619D02*
X97023809Y-117162619D01*
X97023809Y-117162619D02*
X97166666Y-117210238D01*
X97166666Y-117210238D02*
X97261904Y-117305476D01*
X97261904Y-117305476D02*
X97309523Y-117400714D01*
X97309523Y-117400714D02*
X97357142Y-117591190D01*
X97357142Y-117591190D02*
X97357142Y-117734047D01*
X97357142Y-117734047D02*
X97309523Y-117924523D01*
X97309523Y-117924523D02*
X97261904Y-118019761D01*
X97261904Y-118019761D02*
X97166666Y-118115000D01*
X97166666Y-118115000D02*
X97023809Y-118162619D01*
X97023809Y-118162619D02*
X96785714Y-118162619D01*
X98309523Y-118162619D02*
X97738095Y-118162619D01*
X98023809Y-118162619D02*
X98023809Y-117162619D01*
X98023809Y-117162619D02*
X97928571Y-117305476D01*
X97928571Y-117305476D02*
X97833333Y-117400714D01*
X97833333Y-117400714D02*
X97738095Y-117448333D01*
X98690476Y-117257857D02*
X98738095Y-117210238D01*
X98738095Y-117210238D02*
X98833333Y-117162619D01*
X98833333Y-117162619D02*
X99071428Y-117162619D01*
X99071428Y-117162619D02*
X99166666Y-117210238D01*
X99166666Y-117210238D02*
X99214285Y-117257857D01*
X99214285Y-117257857D02*
X99261904Y-117353095D01*
X99261904Y-117353095D02*
X99261904Y-117448333D01*
X99261904Y-117448333D02*
X99214285Y-117591190D01*
X99214285Y-117591190D02*
X98642857Y-118162619D01*
X98642857Y-118162619D02*
X99261904Y-118162619D01*
%TO.C,SW2*%
X105816667Y-61815000D02*
X105959524Y-61862619D01*
X105959524Y-61862619D02*
X106197619Y-61862619D01*
X106197619Y-61862619D02*
X106292857Y-61815000D01*
X106292857Y-61815000D02*
X106340476Y-61767380D01*
X106340476Y-61767380D02*
X106388095Y-61672142D01*
X106388095Y-61672142D02*
X106388095Y-61576904D01*
X106388095Y-61576904D02*
X106340476Y-61481666D01*
X106340476Y-61481666D02*
X106292857Y-61434047D01*
X106292857Y-61434047D02*
X106197619Y-61386428D01*
X106197619Y-61386428D02*
X106007143Y-61338809D01*
X106007143Y-61338809D02*
X105911905Y-61291190D01*
X105911905Y-61291190D02*
X105864286Y-61243571D01*
X105864286Y-61243571D02*
X105816667Y-61148333D01*
X105816667Y-61148333D02*
X105816667Y-61053095D01*
X105816667Y-61053095D02*
X105864286Y-60957857D01*
X105864286Y-60957857D02*
X105911905Y-60910238D01*
X105911905Y-60910238D02*
X106007143Y-60862619D01*
X106007143Y-60862619D02*
X106245238Y-60862619D01*
X106245238Y-60862619D02*
X106388095Y-60910238D01*
X106721429Y-60862619D02*
X106959524Y-61862619D01*
X106959524Y-61862619D02*
X107150000Y-61148333D01*
X107150000Y-61148333D02*
X107340476Y-61862619D01*
X107340476Y-61862619D02*
X107578572Y-60862619D01*
X107911905Y-60957857D02*
X107959524Y-60910238D01*
X107959524Y-60910238D02*
X108054762Y-60862619D01*
X108054762Y-60862619D02*
X108292857Y-60862619D01*
X108292857Y-60862619D02*
X108388095Y-60910238D01*
X108388095Y-60910238D02*
X108435714Y-60957857D01*
X108435714Y-60957857D02*
X108483333Y-61053095D01*
X108483333Y-61053095D02*
X108483333Y-61148333D01*
X108483333Y-61148333D02*
X108435714Y-61291190D01*
X108435714Y-61291190D02*
X107864286Y-61862619D01*
X107864286Y-61862619D02*
X108483333Y-61862619D01*
%TO.C,D10*%
X128423714Y-120700119D02*
X128423714Y-119700119D01*
X128423714Y-119700119D02*
X128661809Y-119700119D01*
X128661809Y-119700119D02*
X128804666Y-119747738D01*
X128804666Y-119747738D02*
X128899904Y-119842976D01*
X128899904Y-119842976D02*
X128947523Y-119938214D01*
X128947523Y-119938214D02*
X128995142Y-120128690D01*
X128995142Y-120128690D02*
X128995142Y-120271547D01*
X128995142Y-120271547D02*
X128947523Y-120462023D01*
X128947523Y-120462023D02*
X128899904Y-120557261D01*
X128899904Y-120557261D02*
X128804666Y-120652500D01*
X128804666Y-120652500D02*
X128661809Y-120700119D01*
X128661809Y-120700119D02*
X128423714Y-120700119D01*
X129947523Y-120700119D02*
X129376095Y-120700119D01*
X129661809Y-120700119D02*
X129661809Y-119700119D01*
X129661809Y-119700119D02*
X129566571Y-119842976D01*
X129566571Y-119842976D02*
X129471333Y-119938214D01*
X129471333Y-119938214D02*
X129376095Y-119985833D01*
X130566571Y-119700119D02*
X130661809Y-119700119D01*
X130661809Y-119700119D02*
X130757047Y-119747738D01*
X130757047Y-119747738D02*
X130804666Y-119795357D01*
X130804666Y-119795357D02*
X130852285Y-119890595D01*
X130852285Y-119890595D02*
X130899904Y-120081071D01*
X130899904Y-120081071D02*
X130899904Y-120319166D01*
X130899904Y-120319166D02*
X130852285Y-120509642D01*
X130852285Y-120509642D02*
X130804666Y-120604880D01*
X130804666Y-120604880D02*
X130757047Y-120652500D01*
X130757047Y-120652500D02*
X130661809Y-120700119D01*
X130661809Y-120700119D02*
X130566571Y-120700119D01*
X130566571Y-120700119D02*
X130471333Y-120652500D01*
X130471333Y-120652500D02*
X130423714Y-120604880D01*
X130423714Y-120604880D02*
X130376095Y-120509642D01*
X130376095Y-120509642D02*
X130328476Y-120319166D01*
X130328476Y-120319166D02*
X130328476Y-120081071D01*
X130328476Y-120081071D02*
X130376095Y-119890595D01*
X130376095Y-119890595D02*
X130423714Y-119795357D01*
X130423714Y-119795357D02*
X130471333Y-119747738D01*
X130471333Y-119747738D02*
X130566571Y-119700119D01*
%TO.C,R11*%
X125107142Y-57287619D02*
X124773809Y-56811428D01*
X124535714Y-57287619D02*
X124535714Y-56287619D01*
X124535714Y-56287619D02*
X124916666Y-56287619D01*
X124916666Y-56287619D02*
X125011904Y-56335238D01*
X125011904Y-56335238D02*
X125059523Y-56382857D01*
X125059523Y-56382857D02*
X125107142Y-56478095D01*
X125107142Y-56478095D02*
X125107142Y-56620952D01*
X125107142Y-56620952D02*
X125059523Y-56716190D01*
X125059523Y-56716190D02*
X125011904Y-56763809D01*
X125011904Y-56763809D02*
X124916666Y-56811428D01*
X124916666Y-56811428D02*
X124535714Y-56811428D01*
X126059523Y-57287619D02*
X125488095Y-57287619D01*
X125773809Y-57287619D02*
X125773809Y-56287619D01*
X125773809Y-56287619D02*
X125678571Y-56430476D01*
X125678571Y-56430476D02*
X125583333Y-56525714D01*
X125583333Y-56525714D02*
X125488095Y-56573333D01*
X127011904Y-57287619D02*
X126440476Y-57287619D01*
X126726190Y-57287619D02*
X126726190Y-56287619D01*
X126726190Y-56287619D02*
X126630952Y-56430476D01*
X126630952Y-56430476D02*
X126535714Y-56525714D01*
X126535714Y-56525714D02*
X126440476Y-56573333D01*
%TO.C,C13*%
X127463142Y-70989380D02*
X127415523Y-71037000D01*
X127415523Y-71037000D02*
X127272666Y-71084619D01*
X127272666Y-71084619D02*
X127177428Y-71084619D01*
X127177428Y-71084619D02*
X127034571Y-71037000D01*
X127034571Y-71037000D02*
X126939333Y-70941761D01*
X126939333Y-70941761D02*
X126891714Y-70846523D01*
X126891714Y-70846523D02*
X126844095Y-70656047D01*
X126844095Y-70656047D02*
X126844095Y-70513190D01*
X126844095Y-70513190D02*
X126891714Y-70322714D01*
X126891714Y-70322714D02*
X126939333Y-70227476D01*
X126939333Y-70227476D02*
X127034571Y-70132238D01*
X127034571Y-70132238D02*
X127177428Y-70084619D01*
X127177428Y-70084619D02*
X127272666Y-70084619D01*
X127272666Y-70084619D02*
X127415523Y-70132238D01*
X127415523Y-70132238D02*
X127463142Y-70179857D01*
X128415523Y-71084619D02*
X127844095Y-71084619D01*
X128129809Y-71084619D02*
X128129809Y-70084619D01*
X128129809Y-70084619D02*
X128034571Y-70227476D01*
X128034571Y-70227476D02*
X127939333Y-70322714D01*
X127939333Y-70322714D02*
X127844095Y-70370333D01*
X128748857Y-70084619D02*
X129367904Y-70084619D01*
X129367904Y-70084619D02*
X129034571Y-70465571D01*
X129034571Y-70465571D02*
X129177428Y-70465571D01*
X129177428Y-70465571D02*
X129272666Y-70513190D01*
X129272666Y-70513190D02*
X129320285Y-70560809D01*
X129320285Y-70560809D02*
X129367904Y-70656047D01*
X129367904Y-70656047D02*
X129367904Y-70894142D01*
X129367904Y-70894142D02*
X129320285Y-70989380D01*
X129320285Y-70989380D02*
X129272666Y-71037000D01*
X129272666Y-71037000D02*
X129177428Y-71084619D01*
X129177428Y-71084619D02*
X128891714Y-71084619D01*
X128891714Y-71084619D02*
X128796476Y-71037000D01*
X128796476Y-71037000D02*
X128748857Y-70989380D01*
%TO.C,D8*%
X115261905Y-67727619D02*
X115261905Y-66727619D01*
X115261905Y-66727619D02*
X115500000Y-66727619D01*
X115500000Y-66727619D02*
X115642857Y-66775238D01*
X115642857Y-66775238D02*
X115738095Y-66870476D01*
X115738095Y-66870476D02*
X115785714Y-66965714D01*
X115785714Y-66965714D02*
X115833333Y-67156190D01*
X115833333Y-67156190D02*
X115833333Y-67299047D01*
X115833333Y-67299047D02*
X115785714Y-67489523D01*
X115785714Y-67489523D02*
X115738095Y-67584761D01*
X115738095Y-67584761D02*
X115642857Y-67680000D01*
X115642857Y-67680000D02*
X115500000Y-67727619D01*
X115500000Y-67727619D02*
X115261905Y-67727619D01*
X116404762Y-67156190D02*
X116309524Y-67108571D01*
X116309524Y-67108571D02*
X116261905Y-67060952D01*
X116261905Y-67060952D02*
X116214286Y-66965714D01*
X116214286Y-66965714D02*
X116214286Y-66918095D01*
X116214286Y-66918095D02*
X116261905Y-66822857D01*
X116261905Y-66822857D02*
X116309524Y-66775238D01*
X116309524Y-66775238D02*
X116404762Y-66727619D01*
X116404762Y-66727619D02*
X116595238Y-66727619D01*
X116595238Y-66727619D02*
X116690476Y-66775238D01*
X116690476Y-66775238D02*
X116738095Y-66822857D01*
X116738095Y-66822857D02*
X116785714Y-66918095D01*
X116785714Y-66918095D02*
X116785714Y-66965714D01*
X116785714Y-66965714D02*
X116738095Y-67060952D01*
X116738095Y-67060952D02*
X116690476Y-67108571D01*
X116690476Y-67108571D02*
X116595238Y-67156190D01*
X116595238Y-67156190D02*
X116404762Y-67156190D01*
X116404762Y-67156190D02*
X116309524Y-67203809D01*
X116309524Y-67203809D02*
X116261905Y-67251428D01*
X116261905Y-67251428D02*
X116214286Y-67346666D01*
X116214286Y-67346666D02*
X116214286Y-67537142D01*
X116214286Y-67537142D02*
X116261905Y-67632380D01*
X116261905Y-67632380D02*
X116309524Y-67680000D01*
X116309524Y-67680000D02*
X116404762Y-67727619D01*
X116404762Y-67727619D02*
X116595238Y-67727619D01*
X116595238Y-67727619D02*
X116690476Y-67680000D01*
X116690476Y-67680000D02*
X116738095Y-67632380D01*
X116738095Y-67632380D02*
X116785714Y-67537142D01*
X116785714Y-67537142D02*
X116785714Y-67346666D01*
X116785714Y-67346666D02*
X116738095Y-67251428D01*
X116738095Y-67251428D02*
X116690476Y-67203809D01*
X116690476Y-67203809D02*
X116595238Y-67156190D01*
%TO.C,F1*%
X166948666Y-132736309D02*
X166615333Y-132736309D01*
X166615333Y-133260119D02*
X166615333Y-132260119D01*
X166615333Y-132260119D02*
X167091523Y-132260119D01*
X167996285Y-133260119D02*
X167424857Y-133260119D01*
X167710571Y-133260119D02*
X167710571Y-132260119D01*
X167710571Y-132260119D02*
X167615333Y-132402976D01*
X167615333Y-132402976D02*
X167520095Y-132498214D01*
X167520095Y-132498214D02*
X167424857Y-132545833D01*
%TO.C,C7*%
X125589380Y-90038666D02*
X125637000Y-90086285D01*
X125637000Y-90086285D02*
X125684619Y-90229142D01*
X125684619Y-90229142D02*
X125684619Y-90324380D01*
X125684619Y-90324380D02*
X125637000Y-90467237D01*
X125637000Y-90467237D02*
X125541761Y-90562475D01*
X125541761Y-90562475D02*
X125446523Y-90610094D01*
X125446523Y-90610094D02*
X125256047Y-90657713D01*
X125256047Y-90657713D02*
X125113190Y-90657713D01*
X125113190Y-90657713D02*
X124922714Y-90610094D01*
X124922714Y-90610094D02*
X124827476Y-90562475D01*
X124827476Y-90562475D02*
X124732238Y-90467237D01*
X124732238Y-90467237D02*
X124684619Y-90324380D01*
X124684619Y-90324380D02*
X124684619Y-90229142D01*
X124684619Y-90229142D02*
X124732238Y-90086285D01*
X124732238Y-90086285D02*
X124779857Y-90038666D01*
X124684619Y-89705332D02*
X124684619Y-89038666D01*
X124684619Y-89038666D02*
X125684619Y-89467237D01*
%TO.C,U4*%
X81934095Y-105327619D02*
X81934095Y-106137142D01*
X81934095Y-106137142D02*
X81981714Y-106232380D01*
X81981714Y-106232380D02*
X82029333Y-106280000D01*
X82029333Y-106280000D02*
X82124571Y-106327619D01*
X82124571Y-106327619D02*
X82315047Y-106327619D01*
X82315047Y-106327619D02*
X82410285Y-106280000D01*
X82410285Y-106280000D02*
X82457904Y-106232380D01*
X82457904Y-106232380D02*
X82505523Y-106137142D01*
X82505523Y-106137142D02*
X82505523Y-105327619D01*
X83410285Y-105660952D02*
X83410285Y-106327619D01*
X83172190Y-105280000D02*
X82934095Y-105994285D01*
X82934095Y-105994285D02*
X83553142Y-105994285D01*
%TO.C,C5*%
X116743380Y-74423666D02*
X116791000Y-74471285D01*
X116791000Y-74471285D02*
X116838619Y-74614142D01*
X116838619Y-74614142D02*
X116838619Y-74709380D01*
X116838619Y-74709380D02*
X116791000Y-74852237D01*
X116791000Y-74852237D02*
X116695761Y-74947475D01*
X116695761Y-74947475D02*
X116600523Y-74995094D01*
X116600523Y-74995094D02*
X116410047Y-75042713D01*
X116410047Y-75042713D02*
X116267190Y-75042713D01*
X116267190Y-75042713D02*
X116076714Y-74995094D01*
X116076714Y-74995094D02*
X115981476Y-74947475D01*
X115981476Y-74947475D02*
X115886238Y-74852237D01*
X115886238Y-74852237D02*
X115838619Y-74709380D01*
X115838619Y-74709380D02*
X115838619Y-74614142D01*
X115838619Y-74614142D02*
X115886238Y-74471285D01*
X115886238Y-74471285D02*
X115933857Y-74423666D01*
X115838619Y-73518904D02*
X115838619Y-73995094D01*
X115838619Y-73995094D02*
X116314809Y-74042713D01*
X116314809Y-74042713D02*
X116267190Y-73995094D01*
X116267190Y-73995094D02*
X116219571Y-73899856D01*
X116219571Y-73899856D02*
X116219571Y-73661761D01*
X116219571Y-73661761D02*
X116267190Y-73566523D01*
X116267190Y-73566523D02*
X116314809Y-73518904D01*
X116314809Y-73518904D02*
X116410047Y-73471285D01*
X116410047Y-73471285D02*
X116648142Y-73471285D01*
X116648142Y-73471285D02*
X116743380Y-73518904D01*
X116743380Y-73518904D02*
X116791000Y-73566523D01*
X116791000Y-73566523D02*
X116838619Y-73661761D01*
X116838619Y-73661761D02*
X116838619Y-73899856D01*
X116838619Y-73899856D02*
X116791000Y-73995094D01*
X116791000Y-73995094D02*
X116743380Y-74042713D01*
%TO.C,C3*%
X123821380Y-93601666D02*
X123869000Y-93649285D01*
X123869000Y-93649285D02*
X123916619Y-93792142D01*
X123916619Y-93792142D02*
X123916619Y-93887380D01*
X123916619Y-93887380D02*
X123869000Y-94030237D01*
X123869000Y-94030237D02*
X123773761Y-94125475D01*
X123773761Y-94125475D02*
X123678523Y-94173094D01*
X123678523Y-94173094D02*
X123488047Y-94220713D01*
X123488047Y-94220713D02*
X123345190Y-94220713D01*
X123345190Y-94220713D02*
X123154714Y-94173094D01*
X123154714Y-94173094D02*
X123059476Y-94125475D01*
X123059476Y-94125475D02*
X122964238Y-94030237D01*
X122964238Y-94030237D02*
X122916619Y-93887380D01*
X122916619Y-93887380D02*
X122916619Y-93792142D01*
X122916619Y-93792142D02*
X122964238Y-93649285D01*
X122964238Y-93649285D02*
X123011857Y-93601666D01*
X122916619Y-93268332D02*
X122916619Y-92649285D01*
X122916619Y-92649285D02*
X123297571Y-92982618D01*
X123297571Y-92982618D02*
X123297571Y-92839761D01*
X123297571Y-92839761D02*
X123345190Y-92744523D01*
X123345190Y-92744523D02*
X123392809Y-92696904D01*
X123392809Y-92696904D02*
X123488047Y-92649285D01*
X123488047Y-92649285D02*
X123726142Y-92649285D01*
X123726142Y-92649285D02*
X123821380Y-92696904D01*
X123821380Y-92696904D02*
X123869000Y-92744523D01*
X123869000Y-92744523D02*
X123916619Y-92839761D01*
X123916619Y-92839761D02*
X123916619Y-93125475D01*
X123916619Y-93125475D02*
X123869000Y-93220713D01*
X123869000Y-93220713D02*
X123821380Y-93268332D01*
%TO.C,C25*%
X115611380Y-119842357D02*
X115659000Y-119889976D01*
X115659000Y-119889976D02*
X115706619Y-120032833D01*
X115706619Y-120032833D02*
X115706619Y-120128071D01*
X115706619Y-120128071D02*
X115659000Y-120270928D01*
X115659000Y-120270928D02*
X115563761Y-120366166D01*
X115563761Y-120366166D02*
X115468523Y-120413785D01*
X115468523Y-120413785D02*
X115278047Y-120461404D01*
X115278047Y-120461404D02*
X115135190Y-120461404D01*
X115135190Y-120461404D02*
X114944714Y-120413785D01*
X114944714Y-120413785D02*
X114849476Y-120366166D01*
X114849476Y-120366166D02*
X114754238Y-120270928D01*
X114754238Y-120270928D02*
X114706619Y-120128071D01*
X114706619Y-120128071D02*
X114706619Y-120032833D01*
X114706619Y-120032833D02*
X114754238Y-119889976D01*
X114754238Y-119889976D02*
X114801857Y-119842357D01*
X114801857Y-119461404D02*
X114754238Y-119413785D01*
X114754238Y-119413785D02*
X114706619Y-119318547D01*
X114706619Y-119318547D02*
X114706619Y-119080452D01*
X114706619Y-119080452D02*
X114754238Y-118985214D01*
X114754238Y-118985214D02*
X114801857Y-118937595D01*
X114801857Y-118937595D02*
X114897095Y-118889976D01*
X114897095Y-118889976D02*
X114992333Y-118889976D01*
X114992333Y-118889976D02*
X115135190Y-118937595D01*
X115135190Y-118937595D02*
X115706619Y-119509023D01*
X115706619Y-119509023D02*
X115706619Y-118889976D01*
X114706619Y-117985214D02*
X114706619Y-118461404D01*
X114706619Y-118461404D02*
X115182809Y-118509023D01*
X115182809Y-118509023D02*
X115135190Y-118461404D01*
X115135190Y-118461404D02*
X115087571Y-118366166D01*
X115087571Y-118366166D02*
X115087571Y-118128071D01*
X115087571Y-118128071D02*
X115135190Y-118032833D01*
X115135190Y-118032833D02*
X115182809Y-117985214D01*
X115182809Y-117985214D02*
X115278047Y-117937595D01*
X115278047Y-117937595D02*
X115516142Y-117937595D01*
X115516142Y-117937595D02*
X115611380Y-117985214D01*
X115611380Y-117985214D02*
X115659000Y-118032833D01*
X115659000Y-118032833D02*
X115706619Y-118128071D01*
X115706619Y-118128071D02*
X115706619Y-118366166D01*
X115706619Y-118366166D02*
X115659000Y-118461404D01*
X115659000Y-118461404D02*
X115611380Y-118509023D01*
%TO.C,C23*%
X124142642Y-110544880D02*
X124095023Y-110592500D01*
X124095023Y-110592500D02*
X123952166Y-110640119D01*
X123952166Y-110640119D02*
X123856928Y-110640119D01*
X123856928Y-110640119D02*
X123714071Y-110592500D01*
X123714071Y-110592500D02*
X123618833Y-110497261D01*
X123618833Y-110497261D02*
X123571214Y-110402023D01*
X123571214Y-110402023D02*
X123523595Y-110211547D01*
X123523595Y-110211547D02*
X123523595Y-110068690D01*
X123523595Y-110068690D02*
X123571214Y-109878214D01*
X123571214Y-109878214D02*
X123618833Y-109782976D01*
X123618833Y-109782976D02*
X123714071Y-109687738D01*
X123714071Y-109687738D02*
X123856928Y-109640119D01*
X123856928Y-109640119D02*
X123952166Y-109640119D01*
X123952166Y-109640119D02*
X124095023Y-109687738D01*
X124095023Y-109687738D02*
X124142642Y-109735357D01*
X124523595Y-109735357D02*
X124571214Y-109687738D01*
X124571214Y-109687738D02*
X124666452Y-109640119D01*
X124666452Y-109640119D02*
X124904547Y-109640119D01*
X124904547Y-109640119D02*
X124999785Y-109687738D01*
X124999785Y-109687738D02*
X125047404Y-109735357D01*
X125047404Y-109735357D02*
X125095023Y-109830595D01*
X125095023Y-109830595D02*
X125095023Y-109925833D01*
X125095023Y-109925833D02*
X125047404Y-110068690D01*
X125047404Y-110068690D02*
X124475976Y-110640119D01*
X124475976Y-110640119D02*
X125095023Y-110640119D01*
X125428357Y-109640119D02*
X126047404Y-109640119D01*
X126047404Y-109640119D02*
X125714071Y-110021071D01*
X125714071Y-110021071D02*
X125856928Y-110021071D01*
X125856928Y-110021071D02*
X125952166Y-110068690D01*
X125952166Y-110068690D02*
X125999785Y-110116309D01*
X125999785Y-110116309D02*
X126047404Y-110211547D01*
X126047404Y-110211547D02*
X126047404Y-110449642D01*
X126047404Y-110449642D02*
X125999785Y-110544880D01*
X125999785Y-110544880D02*
X125952166Y-110592500D01*
X125952166Y-110592500D02*
X125856928Y-110640119D01*
X125856928Y-110640119D02*
X125571214Y-110640119D01*
X125571214Y-110640119D02*
X125475976Y-110592500D01*
X125475976Y-110592500D02*
X125428357Y-110544880D01*
%TO.C,D7*%
X129861905Y-67727619D02*
X129861905Y-66727619D01*
X129861905Y-66727619D02*
X130100000Y-66727619D01*
X130100000Y-66727619D02*
X130242857Y-66775238D01*
X130242857Y-66775238D02*
X130338095Y-66870476D01*
X130338095Y-66870476D02*
X130385714Y-66965714D01*
X130385714Y-66965714D02*
X130433333Y-67156190D01*
X130433333Y-67156190D02*
X130433333Y-67299047D01*
X130433333Y-67299047D02*
X130385714Y-67489523D01*
X130385714Y-67489523D02*
X130338095Y-67584761D01*
X130338095Y-67584761D02*
X130242857Y-67680000D01*
X130242857Y-67680000D02*
X130100000Y-67727619D01*
X130100000Y-67727619D02*
X129861905Y-67727619D01*
X130766667Y-66727619D02*
X131433333Y-66727619D01*
X131433333Y-66727619D02*
X131004762Y-67727619D01*
%TO.C,C20*%
X145680142Y-138258880D02*
X145632523Y-138306500D01*
X145632523Y-138306500D02*
X145489666Y-138354119D01*
X145489666Y-138354119D02*
X145394428Y-138354119D01*
X145394428Y-138354119D02*
X145251571Y-138306500D01*
X145251571Y-138306500D02*
X145156333Y-138211261D01*
X145156333Y-138211261D02*
X145108714Y-138116023D01*
X145108714Y-138116023D02*
X145061095Y-137925547D01*
X145061095Y-137925547D02*
X145061095Y-137782690D01*
X145061095Y-137782690D02*
X145108714Y-137592214D01*
X145108714Y-137592214D02*
X145156333Y-137496976D01*
X145156333Y-137496976D02*
X145251571Y-137401738D01*
X145251571Y-137401738D02*
X145394428Y-137354119D01*
X145394428Y-137354119D02*
X145489666Y-137354119D01*
X145489666Y-137354119D02*
X145632523Y-137401738D01*
X145632523Y-137401738D02*
X145680142Y-137449357D01*
X146061095Y-137449357D02*
X146108714Y-137401738D01*
X146108714Y-137401738D02*
X146203952Y-137354119D01*
X146203952Y-137354119D02*
X146442047Y-137354119D01*
X146442047Y-137354119D02*
X146537285Y-137401738D01*
X146537285Y-137401738D02*
X146584904Y-137449357D01*
X146584904Y-137449357D02*
X146632523Y-137544595D01*
X146632523Y-137544595D02*
X146632523Y-137639833D01*
X146632523Y-137639833D02*
X146584904Y-137782690D01*
X146584904Y-137782690D02*
X146013476Y-138354119D01*
X146013476Y-138354119D02*
X146632523Y-138354119D01*
X147251571Y-137354119D02*
X147346809Y-137354119D01*
X147346809Y-137354119D02*
X147442047Y-137401738D01*
X147442047Y-137401738D02*
X147489666Y-137449357D01*
X147489666Y-137449357D02*
X147537285Y-137544595D01*
X147537285Y-137544595D02*
X147584904Y-137735071D01*
X147584904Y-137735071D02*
X147584904Y-137973166D01*
X147584904Y-137973166D02*
X147537285Y-138163642D01*
X147537285Y-138163642D02*
X147489666Y-138258880D01*
X147489666Y-138258880D02*
X147442047Y-138306500D01*
X147442047Y-138306500D02*
X147346809Y-138354119D01*
X147346809Y-138354119D02*
X147251571Y-138354119D01*
X147251571Y-138354119D02*
X147156333Y-138306500D01*
X147156333Y-138306500D02*
X147108714Y-138258880D01*
X147108714Y-138258880D02*
X147061095Y-138163642D01*
X147061095Y-138163642D02*
X147013476Y-137973166D01*
X147013476Y-137973166D02*
X147013476Y-137735071D01*
X147013476Y-137735071D02*
X147061095Y-137544595D01*
X147061095Y-137544595D02*
X147108714Y-137449357D01*
X147108714Y-137449357D02*
X147156333Y-137401738D01*
X147156333Y-137401738D02*
X147251571Y-137354119D01*
D12*
%TO.C,R15*%
X88979742Y-109967500D02*
X89454258Y-109967500D01*
X88979742Y-111012500D02*
X89454258Y-111012500D01*
%TO.C,Q1*%
X142320000Y-92947500D02*
X142320000Y-91272500D01*
X142320000Y-92947500D02*
X142320000Y-93597500D01*
X139200000Y-92947500D02*
X139200000Y-92297500D01*
X139200000Y-92947500D02*
X139200000Y-93597500D01*
%TO.C,U5*%
X134860500Y-127087500D02*
X133910500Y-127087500D01*
X133910500Y-127087500D02*
X133910500Y-121962500D01*
X125410500Y-127087500D02*
X125410500Y-125987500D01*
X124460500Y-127087500D02*
X125410500Y-127087500D01*
X134860500Y-128587500D02*
X134860500Y-127087500D01*
X124460500Y-128587500D02*
X124460500Y-127087500D01*
D13*
%TO.C,L3*%
X148273800Y-101005700D02*
X144911050Y-101005700D01*
X139088950Y-101005700D02*
X135726200Y-101005700D01*
X135726200Y-101005700D02*
X135726200Y-113553300D01*
X148273800Y-113553300D02*
X148273800Y-101005700D01*
X144911050Y-113553300D02*
X148273800Y-113553300D01*
X135726200Y-113553300D02*
X139088950Y-113553300D01*
D12*
%TO.C,C9*%
X98211250Y-67690420D02*
X98211250Y-67971580D01*
X97191250Y-67690420D02*
X97191250Y-67971580D01*
D14*
%TO.C,J4*%
X167500000Y-121700000D02*
X168650000Y-121700000D01*
X167500000Y-123650000D02*
X167500000Y-121700000D01*
X167500000Y-130700000D02*
X167500000Y-128850000D01*
X173750000Y-121700000D02*
X181900000Y-121700000D01*
X181900000Y-121700000D02*
X181900000Y-130700000D01*
X181900000Y-130700000D02*
X167500000Y-130700000D01*
D15*
X166400000Y-126200000D02*
G75*
G03*
X166400000Y-126200000I-200000J0D01*
G01*
D12*
%TO.C,C18*%
X84962420Y-99490000D02*
X85243580Y-99490000D01*
X84962420Y-100510000D02*
X85243580Y-100510000D01*
%TO.C,R3*%
X98223750Y-70813742D02*
X98223750Y-71288258D01*
X97178750Y-70813742D02*
X97178750Y-71288258D01*
D16*
%TO.C,T2*%
X151859000Y-133793500D02*
X151859000Y-133793500D01*
X151859000Y-133693500D02*
X151859000Y-133693500D01*
D17*
X151259000Y-133143500D02*
X151259000Y-120243500D01*
X164459000Y-133143500D02*
X151259000Y-133143500D01*
X151259000Y-120243500D02*
X164459000Y-120243500D01*
X164459000Y-120243500D02*
X164459000Y-133143500D01*
D16*
X151859000Y-133693500D02*
G75*
G03*
X151859000Y-133793500I0J-50000D01*
G01*
X151859000Y-133793500D02*
G75*
G03*
X151859000Y-133693500I0J50000D01*
G01*
D12*
%TO.C,R10*%
X120344168Y-59412258D02*
X120344168Y-58937742D01*
X121389168Y-59412258D02*
X121389168Y-58937742D01*
%TO.C,C6*%
X122386000Y-90804420D02*
X122386000Y-91085580D01*
X121366000Y-90804420D02*
X121366000Y-91085580D01*
%TO.C,J6*%
X169290000Y-89750000D02*
X181510000Y-89750000D01*
X178210000Y-89750000D02*
X178210000Y-72290000D01*
X180010000Y-89750000D02*
X178210000Y-89750000D01*
X181510000Y-89750000D02*
X181510000Y-72290000D01*
X181510000Y-87100000D02*
X181510000Y-85100000D01*
X180010000Y-86850000D02*
X181510000Y-87100000D01*
X168490000Y-86400000D02*
X168490000Y-85800000D01*
X169090000Y-86100000D02*
X168490000Y-86400000D01*
X168490000Y-85800000D02*
X169090000Y-86100000D01*
X180010000Y-85350000D02*
X180010000Y-86850000D01*
X181510000Y-85100000D02*
X180010000Y-85350000D01*
X181510000Y-82020000D02*
X181510000Y-80020000D01*
X180010000Y-81770000D02*
X181510000Y-82020000D01*
X180010000Y-80270000D02*
X180010000Y-81770000D01*
X181510000Y-80020000D02*
X180010000Y-80270000D01*
X181510000Y-76940000D02*
X181510000Y-74940000D01*
X180010000Y-76690000D02*
X181510000Y-76940000D01*
X180010000Y-75190000D02*
X180010000Y-76690000D01*
X181510000Y-74940000D02*
X180010000Y-75190000D01*
X169290000Y-72290000D02*
X169290000Y-89750000D01*
X178210000Y-72290000D02*
X180010000Y-72290000D01*
X180010000Y-72290000D02*
X180010000Y-89750000D01*
X181510000Y-72290000D02*
X169290000Y-72290000D01*
%TO.C,R12*%
X130077500Y-59412258D02*
X130077500Y-58937742D01*
X131122500Y-59412258D02*
X131122500Y-58937742D01*
%TO.C,C11*%
X124840420Y-75762000D02*
X125121580Y-75762000D01*
X124840420Y-76782000D02*
X125121580Y-76782000D01*
%TO.C,R6*%
X140422500Y-88762742D02*
X140422500Y-89237258D01*
X139377500Y-88762742D02*
X139377500Y-89237258D01*
%TO.C,R8*%
X104801250Y-68128199D02*
X104801250Y-67653683D01*
X105846250Y-68128199D02*
X105846250Y-67653683D01*
%TO.C,C17*%
X87659420Y-111790000D02*
X87940580Y-111790000D01*
X87659420Y-112810000D02*
X87940580Y-112810000D01*
%TO.C,J1*%
X85735000Y-81302500D02*
X85735000Y-81682500D01*
X83965000Y-81302500D02*
X85735000Y-81302500D01*
X81425000Y-81302500D02*
X81685000Y-81302500D01*
X85735000Y-88922500D02*
X85735000Y-88542500D01*
X85735000Y-88922500D02*
X83965000Y-88922500D01*
X81685000Y-88922500D02*
X81425000Y-88922500D01*
%TO.C,R1*%
X130063500Y-71674258D02*
X130063500Y-71199742D01*
X131108500Y-71674258D02*
X131108500Y-71199742D01*
D14*
%TO.C,K1*%
X146660000Y-83372500D02*
X165760000Y-83372500D01*
X146660000Y-98872500D02*
X146660000Y-83372500D01*
X165760000Y-83372500D02*
X165760000Y-98872500D01*
X165760000Y-98872500D02*
X146660000Y-98872500D01*
D18*
X146110000Y-85003500D02*
G75*
G03*
X146110000Y-85003500I-100000J0D01*
G01*
D12*
%TO.C,U2*%
X109867000Y-127087500D02*
X108917000Y-127087500D01*
X108917000Y-127087500D02*
X108917000Y-121962500D01*
X100417000Y-127087500D02*
X100417000Y-125987500D01*
X99467000Y-127087500D02*
X100417000Y-127087500D01*
X109867000Y-128587500D02*
X109867000Y-127087500D01*
X99467000Y-128587500D02*
X99467000Y-127087500D01*
%TO.C,C26*%
X102461252Y-114092500D02*
X101938748Y-114092500D01*
X102461252Y-112622500D02*
X101938748Y-112622500D01*
%TO.C,D4*%
X145382000Y-88485000D02*
X143162000Y-88485000D01*
X143162000Y-88485000D02*
X143162000Y-92895000D01*
X145382000Y-92895000D02*
X145382000Y-88485000D01*
%TO.C,C16*%
X133606000Y-79235420D02*
X133606000Y-79516580D01*
X132586000Y-79235420D02*
X132586000Y-79516580D01*
%TO.C,D3*%
X83970000Y-113420000D02*
X83970000Y-117720000D01*
X83970000Y-113420000D02*
X89780000Y-113420000D01*
X83970000Y-117720000D02*
X89780000Y-117720000D01*
%TO.C,R14*%
X85805742Y-109967500D02*
X86280258Y-109967500D01*
X85805742Y-111012500D02*
X86280258Y-111012500D01*
%TO.C,FB1*%
X125143779Y-73052000D02*
X124818221Y-73052000D01*
X125143779Y-72032000D02*
X124818221Y-72032000D01*
%TO.C,C15*%
X132586000Y-89566580D02*
X132586000Y-89285420D01*
X133606000Y-89566580D02*
X133606000Y-89285420D01*
%TO.C,D5*%
X122102668Y-62435000D02*
X121946668Y-62435000D01*
X119786668Y-62435000D02*
X119630668Y-62435000D01*
X121945276Y-65667334D02*
G75*
G03*
X122102183Y-62435001I-1078608J1672334D01*
G01*
X121946504Y-65036129D02*
G75*
G03*
X121946667Y-62954040I-1079836J1041129D01*
G01*
X119786669Y-62954040D02*
G75*
G03*
X119786832Y-65036129I1079999J-1040960D01*
G01*
X119631153Y-62435001D02*
G75*
G03*
X119788060Y-65667334I1235515J-1559999D01*
G01*
%TO.C,U3*%
X137260000Y-72300000D02*
X137260000Y-56500000D01*
X137260000Y-72300000D02*
X137260000Y-79500000D01*
X137260000Y-79500000D02*
X139060000Y-79500000D01*
X139060000Y-56500000D02*
X137260000Y-56500000D01*
X139060000Y-56500000D02*
X159060000Y-56500000D01*
X139060000Y-79500000D02*
X157060000Y-79500000D01*
X157060000Y-79500000D02*
X162460000Y-79500000D01*
X159060000Y-56500000D02*
X162060000Y-56500000D01*
X162460000Y-56500000D02*
X162060000Y-56500000D01*
X162460000Y-79500000D02*
X162460000Y-56500000D01*
X138060000Y-57000000D02*
X141060000Y-57000000D01*
X141060000Y-57000000D02*
X141060000Y-60000000D01*
X141060000Y-60000000D02*
X138060000Y-60000000D01*
X138060000Y-60000000D02*
X138060000Y-57000000D01*
X140678034Y-58500000D02*
G75*
G03*
X140678034Y-58500000I-1118034J0D01*
G01*
%TO.C,U1*%
X122736000Y-87430000D02*
X122736000Y-86980000D01*
X122736000Y-86980000D02*
X124026000Y-86980000D01*
X122736000Y-80210000D02*
X122736000Y-80660000D01*
X122286000Y-87430000D02*
X122736000Y-87430000D01*
X122286000Y-80210000D02*
X122736000Y-80210000D01*
X115966000Y-87430000D02*
X115516000Y-87430000D01*
X115966000Y-80210000D02*
X115516000Y-80210000D01*
X115516000Y-87430000D02*
X115516000Y-86980000D01*
X115516000Y-80210000D02*
X115516000Y-80660000D01*
%TO.C,C19*%
X107823750Y-67700361D02*
X107823750Y-67981521D01*
X106803750Y-67700361D02*
X106803750Y-67981521D01*
%TO.C,J5*%
X169312500Y-109550000D02*
X181532500Y-109550000D01*
X178232500Y-109550000D02*
X178232500Y-92090000D01*
X180032500Y-109550000D02*
X178232500Y-109550000D01*
X181532500Y-109550000D02*
X181532500Y-92090000D01*
X181532500Y-106900000D02*
X181532500Y-104900000D01*
X180032500Y-106650000D02*
X181532500Y-106900000D01*
X168512500Y-106200000D02*
X168512500Y-105600000D01*
X169112500Y-105900000D02*
X168512500Y-106200000D01*
X168512500Y-105600000D02*
X169112500Y-105900000D01*
X180032500Y-105150000D02*
X180032500Y-106650000D01*
X181532500Y-104900000D02*
X180032500Y-105150000D01*
X181532500Y-101820000D02*
X181532500Y-99820000D01*
X180032500Y-101570000D02*
X181532500Y-101820000D01*
X180032500Y-100070000D02*
X180032500Y-101570000D01*
X181532500Y-99820000D02*
X180032500Y-100070000D01*
X181532500Y-96740000D02*
X181532500Y-94740000D01*
X180032500Y-96490000D02*
X181532500Y-96740000D01*
X180032500Y-94990000D02*
X180032500Y-96490000D01*
X181532500Y-94740000D02*
X180032500Y-94990000D01*
X169312500Y-92090000D02*
X169312500Y-109550000D01*
X178232500Y-92090000D02*
X180032500Y-92090000D01*
X180032500Y-92090000D02*
X180032500Y-109550000D01*
X181532500Y-92090000D02*
X169312500Y-92090000D01*
%TO.C,R7*%
X141177500Y-89237258D02*
X141177500Y-88762742D01*
X142222500Y-89237258D02*
X142222500Y-88762742D01*
%TO.C,C27*%
X109104500Y-110125000D02*
X108317000Y-110125000D01*
X108710750Y-110518750D02*
X108710750Y-109731250D01*
X108077000Y-110623063D02*
X108077000Y-109337500D01*
X108077000Y-110623063D02*
X107012563Y-111687500D01*
X108077000Y-105931937D02*
X108077000Y-107217500D01*
X108077000Y-105931937D02*
X107012563Y-104867500D01*
X107012563Y-111687500D02*
X101257000Y-111687500D01*
X107012563Y-104867500D02*
X101257000Y-104867500D01*
X101257000Y-111687500D02*
X101257000Y-109337500D01*
X101257000Y-104867500D02*
X101257000Y-107217500D01*
%TO.C,R2*%
X99268750Y-68118258D02*
X99268750Y-67643742D01*
X100313750Y-68118258D02*
X100313750Y-67643742D01*
%TO.C,Y1*%
X135610000Y-86024000D02*
G75*
G03*
X135610000Y-82624000I0J1700000D01*
G01*
X135610000Y-82624000D02*
G75*
G03*
X135610000Y-86024000I0J-1700000D01*
G01*
%TO.C,Y2*%
X131836000Y-77696000D02*
X126736000Y-77696000D01*
X126736000Y-77696000D02*
X126736000Y-90296000D01*
X131836000Y-90296000D02*
X131836000Y-77696000D01*
%TO.C,C2*%
X151890252Y-137889500D02*
X150467748Y-137889500D01*
X151890252Y-136069500D02*
X150467748Y-136069500D01*
%TO.C,SW1*%
X95875000Y-64050000D02*
X95875000Y-63950000D01*
X95875000Y-65750000D02*
X100275000Y-65750000D01*
X100275000Y-62250000D02*
X95875000Y-62250000D01*
X100275000Y-64050000D02*
X100275000Y-63950000D01*
%TO.C,C8*%
X131096000Y-74471420D02*
X131096000Y-74752580D01*
X130076000Y-74471420D02*
X130076000Y-74752580D01*
%TO.C,R9*%
X107836250Y-70823683D02*
X107836250Y-71298199D01*
X106791250Y-70823683D02*
X106791250Y-71298199D01*
%TO.C,D6*%
X126969334Y-62435000D02*
X126813334Y-62435000D01*
X124653334Y-62435000D02*
X124497334Y-62435000D01*
X126811942Y-65667334D02*
G75*
G03*
X126968849Y-62435001I-1078608J1672334D01*
G01*
X126813170Y-65036129D02*
G75*
G03*
X126813333Y-62954040I-1079836J1041129D01*
G01*
X124653335Y-62954040D02*
G75*
G03*
X124653498Y-65036129I1079999J-1040960D01*
G01*
X124497819Y-62435001D02*
G75*
G03*
X124654726Y-65667334I1235515J-1559999D01*
G01*
%TO.C,C12*%
X124840420Y-73972000D02*
X125121580Y-73972000D01*
X124840420Y-74992000D02*
X125121580Y-74992000D01*
D13*
%TO.C,L1*%
X123273800Y-101005700D02*
X119911050Y-101005700D01*
X114088950Y-101005700D02*
X110726200Y-101005700D01*
X110726200Y-101005700D02*
X110726200Y-113553300D01*
X123273800Y-113553300D02*
X123273800Y-101005700D01*
X119911050Y-113553300D02*
X123273800Y-113553300D01*
X110726200Y-113553300D02*
X114088950Y-113553300D01*
D12*
%TO.C,C4*%
X112141580Y-87080000D02*
X111860420Y-87080000D01*
X112141580Y-86060000D02*
X111860420Y-86060000D01*
%TO.C,D2*%
X154221500Y-111871500D02*
X154221500Y-116171500D01*
X154221500Y-111871500D02*
X160031500Y-111871500D01*
X154221500Y-116171500D02*
X160031500Y-116171500D01*
%TO.C,C1*%
X157147748Y-116511500D02*
X158570252Y-116511500D01*
X157147748Y-118331500D02*
X158570252Y-118331500D01*
%TO.C,C24*%
X119854000Y-124306500D02*
X119854000Y-125556500D01*
X120479000Y-124931500D02*
X119229000Y-124931500D01*
X121389563Y-125796500D02*
X118604000Y-125796500D01*
X121389563Y-125796500D02*
X122454000Y-126860937D01*
X112798437Y-125796500D02*
X115584000Y-125796500D01*
X112798437Y-125796500D02*
X111734000Y-126860937D01*
X122454000Y-126860937D02*
X122454000Y-136516500D01*
X111734000Y-126860937D02*
X111734000Y-136516500D01*
X122454000Y-136516500D02*
X118604000Y-136516500D01*
X111734000Y-136516500D02*
X115584000Y-136516500D01*
%TO.C,C21*%
X141838000Y-119910752D02*
X141838000Y-118488248D01*
X143658000Y-119910752D02*
X143658000Y-118488248D01*
%TO.C,C22*%
X127461252Y-114092500D02*
X126938748Y-114092500D01*
X127461252Y-112622500D02*
X126938748Y-112622500D01*
%TO.C,D1*%
X158570000Y-135329500D02*
X158570000Y-138629500D01*
X158570000Y-135329500D02*
X164080000Y-135329500D01*
X158570000Y-138629500D02*
X164080000Y-138629500D01*
%TO.C,J3*%
X103826000Y-92516000D02*
X103826000Y-91186000D01*
X105156000Y-92516000D02*
X103826000Y-92516000D01*
X106426000Y-92516000D02*
X114106000Y-92516000D01*
X106426000Y-92516000D02*
X106426000Y-89856000D01*
X114106000Y-92516000D02*
X114106000Y-89856000D01*
X106426000Y-89856000D02*
X114106000Y-89856000D01*
%TO.C,R13*%
X115477500Y-59412258D02*
X115477500Y-58937742D01*
X116522500Y-59412258D02*
X116522500Y-58937742D01*
%TO.C,D12*%
X109554500Y-121012500D02*
X101044500Y-121012500D01*
X109554500Y-114512500D02*
X109554500Y-121012500D01*
X109554500Y-114512500D02*
X101044500Y-114512500D01*
%TO.C,SW2*%
X104800000Y-64050000D02*
X104800000Y-63950000D01*
X104800000Y-65750000D02*
X109200000Y-65750000D01*
X109200000Y-62250000D02*
X104800000Y-62250000D01*
X109200000Y-64050000D02*
X109200000Y-63950000D01*
%TO.C,D10*%
X134548000Y-121012500D02*
X126038000Y-121012500D01*
X134548000Y-114512500D02*
X134548000Y-121012500D01*
X134548000Y-114512500D02*
X126038000Y-114512500D01*
%TO.C,R11*%
X125210834Y-59412258D02*
X125210834Y-58937742D01*
X126255834Y-59412258D02*
X126255834Y-58937742D01*
%TO.C,C13*%
X125121580Y-71122000D02*
X124840420Y-71122000D01*
X125121580Y-70102000D02*
X124840420Y-70102000D01*
%TO.C,D8*%
X117236000Y-62435000D02*
X117080000Y-62435000D01*
X114920000Y-62435000D02*
X114764000Y-62435000D01*
X117078608Y-65667334D02*
G75*
G03*
X117235515Y-62435001I-1078608J1672334D01*
G01*
X117079836Y-65036129D02*
G75*
G03*
X117079999Y-62954040I-1079836J1041129D01*
G01*
X114920001Y-62954040D02*
G75*
G03*
X114920164Y-65036129I1079999J-1040960D01*
G01*
X114764485Y-62435001D02*
G75*
G03*
X114921392Y-65667334I1235515J-1559999D01*
G01*
%TO.C,F1*%
X168292000Y-135395436D02*
X168292000Y-136599564D01*
X166472000Y-135395436D02*
X166472000Y-136599564D01*
%TO.C,C7*%
X125732000Y-87204420D02*
X125732000Y-87485580D01*
X124712000Y-87204420D02*
X124712000Y-87485580D01*
D14*
%TO.C,U4*%
X83708000Y-107430000D02*
X83708000Y-103530000D01*
X88758000Y-107430000D02*
X88758000Y-103530000D01*
D19*
X84028000Y-109520000D02*
G75*
G03*
X84028000Y-109520000I-100000J0D01*
G01*
D12*
%TO.C,C5*%
X115866000Y-77102580D02*
X115866000Y-76821420D01*
X116886000Y-77102580D02*
X116886000Y-76821420D01*
%TO.C,C3*%
X123954000Y-90804420D02*
X123954000Y-91085580D01*
X122934000Y-90804420D02*
X122934000Y-91085580D01*
%TO.C,C25*%
X116184000Y-119910752D02*
X116184000Y-118488248D01*
X118004000Y-119910752D02*
X118004000Y-118488248D01*
%TO.C,C23*%
X134173000Y-110125000D02*
X133385500Y-110125000D01*
X133779250Y-110518750D02*
X133779250Y-109731250D01*
X133145500Y-110623063D02*
X133145500Y-109337500D01*
X133145500Y-110623063D02*
X132081063Y-111687500D01*
X133145500Y-105931937D02*
X133145500Y-107217500D01*
X133145500Y-105931937D02*
X132081063Y-104867500D01*
X132081063Y-111687500D02*
X126325500Y-111687500D01*
X132081063Y-104867500D02*
X126325500Y-104867500D01*
X126325500Y-111687500D02*
X126325500Y-109337500D01*
X126325500Y-104867500D02*
X126325500Y-107217500D01*
%TO.C,D7*%
X131836000Y-62435000D02*
X131680000Y-62435000D01*
X129520000Y-62435000D02*
X129364000Y-62435000D01*
X131678608Y-65667334D02*
G75*
G03*
X131835515Y-62435001I-1078608J1672334D01*
G01*
X131679836Y-65036129D02*
G75*
G03*
X131679999Y-62954040I-1079836J1041129D01*
G01*
X129520001Y-62954040D02*
G75*
G03*
X129520164Y-65036129I1079999J-1040960D01*
G01*
X129364485Y-62435001D02*
G75*
G03*
X129521392Y-65667334I1235515J-1559999D01*
G01*
%TO.C,C20*%
X145508000Y-124541500D02*
X145508000Y-125791500D01*
X146133000Y-125166500D02*
X144883000Y-125166500D01*
X147043563Y-126031500D02*
X144258000Y-126031500D01*
X147043563Y-126031500D02*
X148108000Y-127095937D01*
X138452437Y-126031500D02*
X141238000Y-126031500D01*
X138452437Y-126031500D02*
X137388000Y-127095937D01*
X148108000Y-127095937D02*
X148108000Y-136751500D01*
X137388000Y-127095937D02*
X137388000Y-136751500D01*
X148108000Y-136751500D02*
X144258000Y-136751500D01*
X137388000Y-136751500D02*
X141238000Y-136751500D01*
%TD*%
M02*
