%TF.GenerationSoftware,KiCad,Pcbnew,7.0.1*%
%TF.CreationDate,2023-05-03T11:58:35+03:00*%
%TF.ProjectId,damlama,64616d6c-616d-4612-9e6b-696361645f70,rev?*%
%TF.SameCoordinates,Original*%
%TF.FileFunction,Paste,Top*%
%TF.FilePolarity,Positive*%
%FSLAX46Y46*%
G04 Gerber Fmt 4.6, Leading zero omitted, Abs format (unit mm)*
G04 Created by KiCad (PCBNEW 7.0.1) date 2023-05-03 11:58:35*
%MOMM*%
%LPD*%
G01*
G04 APERTURE LIST*
G04 Aperture macros list*
%AMRoundRect*
0 Rectangle with rounded corners*
0 $1 Rounding radius*
0 $2 $3 $4 $5 $6 $7 $8 $9 X,Y pos of 4 corners*
0 Add a 4 corners polygon primitive as box body*
4,1,4,$2,$3,$4,$5,$6,$7,$8,$9,$2,$3,0*
0 Add four circle primitives for the rounded corners*
1,1,$1+$1,$2,$3*
1,1,$1+$1,$4,$5*
1,1,$1+$1,$6,$7*
1,1,$1+$1,$8,$9*
0 Add four rect primitives between the rounded corners*
20,1,$1+$1,$2,$3,$4,$5,0*
20,1,$1+$1,$4,$5,$6,$7,0*
20,1,$1+$1,$6,$7,$8,$9,0*
20,1,$1+$1,$8,$9,$2,$3,0*%
G04 Aperture macros list end*
%ADD10RoundRect,0.200000X-0.200000X-0.275000X0.200000X-0.275000X0.200000X0.275000X-0.200000X0.275000X0*%
%ADD11RoundRect,0.150000X-0.150000X0.587500X-0.150000X-0.587500X0.150000X-0.587500X0.150000X0.587500X0*%
%ADD12RoundRect,0.250000X-0.300000X2.050000X-0.300000X-2.050000X0.300000X-2.050000X0.300000X2.050000X0*%
%ADD13RoundRect,0.250000X-2.375000X2.025000X-2.375000X-2.025000X2.375000X-2.025000X2.375000X2.025000X0*%
%ADD14R,5.207000X2.311400*%
%ADD15RoundRect,0.225000X-0.250000X0.225000X-0.250000X-0.225000X0.250000X-0.225000X0.250000X0.225000X0*%
%ADD16RoundRect,0.225000X-0.225000X-0.250000X0.225000X-0.250000X0.225000X0.250000X-0.225000X0.250000X0*%
%ADD17RoundRect,0.200000X-0.275000X0.200000X-0.275000X-0.200000X0.275000X-0.200000X0.275000X0.200000X0*%
%ADD18O,1.520000X4.450000*%
%ADD19RoundRect,0.200000X0.275000X-0.200000X0.275000X0.200000X-0.275000X0.200000X-0.275000X-0.200000X0*%
%ADD20R,1.380000X0.450000*%
%ADD21R,1.300000X1.650000*%
%ADD22R,1.550000X1.425000*%
%ADD23R,1.900000X1.800000*%
%ADD24R,1.900000X1.000000*%
%ADD25RoundRect,0.250000X0.250000X0.475000X-0.250000X0.475000X-0.250000X-0.475000X0.250000X-0.475000X0*%
%ADD26RoundRect,0.250000X-0.600000X0.400000X-0.600000X-0.400000X0.600000X-0.400000X0.600000X0.400000X0*%
%ADD27RoundRect,0.250000X-1.000000X-0.900000X1.000000X-0.900000X1.000000X0.900000X-1.000000X0.900000X0*%
%ADD28RoundRect,0.218750X0.218750X0.256250X-0.218750X0.256250X-0.218750X-0.256250X0.218750X-0.256250X0*%
%ADD29RoundRect,0.225000X0.250000X-0.225000X0.250000X0.225000X-0.250000X0.225000X-0.250000X-0.225000X0*%
%ADD30RoundRect,0.075000X0.662500X0.075000X-0.662500X0.075000X-0.662500X-0.075000X0.662500X-0.075000X0*%
%ADD31RoundRect,0.075000X0.075000X0.662500X-0.075000X0.662500X-0.075000X-0.662500X0.075000X-0.662500X0*%
%ADD32RoundRect,0.250000X1.500000X0.550000X-1.500000X0.550000X-1.500000X-0.550000X1.500000X-0.550000X0*%
%ADD33R,2.000000X4.500000*%
%ADD34RoundRect,0.250000X0.325000X0.650000X-0.325000X0.650000X-0.325000X-0.650000X0.325000X-0.650000X0*%
%ADD35R,1.050000X0.650000*%
%ADD36RoundRect,0.225000X0.225000X0.250000X-0.225000X0.250000X-0.225000X-0.250000X0.225000X-0.250000X0*%
%ADD37RoundRect,0.250000X-0.325000X-0.650000X0.325000X-0.650000X0.325000X0.650000X-0.325000X0.650000X0*%
%ADD38RoundRect,0.250000X-1.000000X1.950000X-1.000000X-1.950000X1.000000X-1.950000X1.000000X1.950000X0*%
%ADD39RoundRect,0.250000X0.650000X-0.325000X0.650000X0.325000X-0.650000X0.325000X-0.650000X-0.325000X0*%
%ADD40RoundRect,0.250000X-1.000000X-0.650000X1.000000X-0.650000X1.000000X0.650000X-1.000000X0.650000X0*%
%ADD41RoundRect,0.250000X-1.000000X1.400000X-1.000000X-1.400000X1.000000X-1.400000X1.000000X1.400000X0*%
%ADD42RoundRect,0.250000X-0.625000X0.375000X-0.625000X-0.375000X0.625000X-0.375000X0.625000X0.375000X0*%
%ADD43RoundRect,0.042000X0.258000X-0.943000X0.258000X0.943000X-0.258000X0.943000X-0.258000X-0.943000X0*%
G04 APERTURE END LIST*
D10*
%TO.C,R15*%
X88392000Y-110490000D03*
X90042000Y-110490000D03*
%TD*%
D11*
%TO.C,Q1*%
X141710000Y-92010000D03*
X139810000Y-92010000D03*
X140760000Y-93885000D03*
%TD*%
D12*
%TO.C,U5*%
X133060500Y-124262500D03*
X131360500Y-124262500D03*
X129660500Y-124262500D03*
D13*
X132435500Y-130987500D03*
X126885500Y-130987500D03*
X132435500Y-135837500D03*
X126885500Y-135837500D03*
D12*
X127960500Y-124262500D03*
X126260500Y-124262500D03*
%TD*%
D14*
%TO.C,L3*%
X142000000Y-102288400D03*
X142000000Y-112270600D03*
%TD*%
D15*
%TO.C,C9*%
X97701250Y-67056000D03*
X97701250Y-68606000D03*
%TD*%
D16*
%TO.C,C18*%
X84328000Y-100000000D03*
X85878000Y-100000000D03*
%TD*%
D17*
%TO.C,R3*%
X97701250Y-70226000D03*
X97701250Y-71876000D03*
%TD*%
D18*
%TO.C,T2*%
X152654000Y-130883500D03*
X163064000Y-130883500D03*
X152654000Y-122503500D03*
X163064000Y-122503500D03*
%TD*%
D19*
%TO.C,R10*%
X120866668Y-60000000D03*
X120866668Y-58350000D03*
%TD*%
D15*
%TO.C,C6*%
X121876000Y-90170000D03*
X121876000Y-91720000D03*
%TD*%
D19*
%TO.C,R12*%
X130600000Y-60000000D03*
X130600000Y-58350000D03*
%TD*%
D16*
%TO.C,C11*%
X124206000Y-76272000D03*
X125756000Y-76272000D03*
%TD*%
D17*
%TO.C,R6*%
X139900000Y-88175000D03*
X139900000Y-89825000D03*
%TD*%
D19*
%TO.C,R8*%
X105323750Y-68715941D03*
X105323750Y-67065941D03*
%TD*%
D16*
%TO.C,C17*%
X87025000Y-112300000D03*
X88575000Y-112300000D03*
%TD*%
D20*
%TO.C,J1*%
X85485000Y-83812500D03*
X85485000Y-84462500D03*
X85485000Y-85112500D03*
X85485000Y-85762500D03*
X85485000Y-86412500D03*
D21*
X82825000Y-81737500D03*
D22*
X85400000Y-82625000D03*
D23*
X82825000Y-83962500D03*
D24*
X82825000Y-86662500D03*
D22*
X85400000Y-87600000D03*
D21*
X82825000Y-88487500D03*
%TD*%
D19*
%TO.C,R1*%
X130586000Y-72262000D03*
X130586000Y-70612000D03*
%TD*%
D12*
%TO.C,U2*%
X108067000Y-124262500D03*
X106367000Y-124262500D03*
X104667000Y-124262500D03*
D13*
X107442000Y-130987500D03*
X101892000Y-130987500D03*
X107442000Y-135837500D03*
X101892000Y-135837500D03*
D12*
X102967000Y-124262500D03*
X101267000Y-124262500D03*
%TD*%
D25*
%TO.C,C26*%
X103150000Y-113357500D03*
X101250000Y-113357500D03*
%TD*%
D26*
%TO.C,D4*%
X144272000Y-89395000D03*
X144272000Y-92895000D03*
%TD*%
D15*
%TO.C,C16*%
X133096000Y-78601000D03*
X133096000Y-80151000D03*
%TD*%
D27*
%TO.C,D3*%
X85480000Y-115570000D03*
X89780000Y-115570000D03*
%TD*%
D10*
%TO.C,R14*%
X85218000Y-110490000D03*
X86868000Y-110490000D03*
%TD*%
D28*
%TO.C,FB1*%
X125768500Y-72542000D03*
X124193500Y-72542000D03*
%TD*%
D29*
%TO.C,C15*%
X133096000Y-90201000D03*
X133096000Y-88651000D03*
%TD*%
D30*
%TO.C,U1*%
X123288500Y-86570000D03*
X123288500Y-86070000D03*
X123288500Y-85570000D03*
X123288500Y-85070000D03*
X123288500Y-84570000D03*
X123288500Y-84070000D03*
X123288500Y-83570000D03*
X123288500Y-83070000D03*
X123288500Y-82570000D03*
X123288500Y-82070000D03*
X123288500Y-81570000D03*
X123288500Y-81070000D03*
D31*
X121876000Y-79657500D03*
X121376000Y-79657500D03*
X120876000Y-79657500D03*
X120376000Y-79657500D03*
X119876000Y-79657500D03*
X119376000Y-79657500D03*
X118876000Y-79657500D03*
X118376000Y-79657500D03*
X117876000Y-79657500D03*
X117376000Y-79657500D03*
X116876000Y-79657500D03*
X116376000Y-79657500D03*
D30*
X114963500Y-81070000D03*
X114963500Y-81570000D03*
X114963500Y-82070000D03*
X114963500Y-82570000D03*
X114963500Y-83070000D03*
X114963500Y-83570000D03*
X114963500Y-84070000D03*
X114963500Y-84570000D03*
X114963500Y-85070000D03*
X114963500Y-85570000D03*
X114963500Y-86070000D03*
X114963500Y-86570000D03*
D31*
X116376000Y-87982500D03*
X116876000Y-87982500D03*
X117376000Y-87982500D03*
X117876000Y-87982500D03*
X118376000Y-87982500D03*
X118876000Y-87982500D03*
X119376000Y-87982500D03*
X119876000Y-87982500D03*
X120376000Y-87982500D03*
X120876000Y-87982500D03*
X121376000Y-87982500D03*
X121876000Y-87982500D03*
%TD*%
D15*
%TO.C,C19*%
X107313750Y-67065941D03*
X107313750Y-68615941D03*
%TD*%
D19*
%TO.C,R7*%
X141700000Y-89825000D03*
X141700000Y-88175000D03*
%TD*%
D32*
%TO.C,C27*%
X107367000Y-108277500D03*
X101967000Y-108277500D03*
%TD*%
D19*
%TO.C,R2*%
X99791250Y-68706000D03*
X99791250Y-67056000D03*
%TD*%
D33*
%TO.C,Y2*%
X129286000Y-80146000D03*
X129286000Y-88646000D03*
%TD*%
D34*
%TO.C,C2*%
X152654000Y-136979500D03*
X149704000Y-136979500D03*
%TD*%
D35*
%TO.C,SW1*%
X96000000Y-62925000D03*
X100150000Y-62925000D03*
X96000000Y-65075000D03*
X100125000Y-65075000D03*
%TD*%
D15*
%TO.C,C8*%
X130586000Y-73837000D03*
X130586000Y-75387000D03*
%TD*%
D17*
%TO.C,R9*%
X107313750Y-70235941D03*
X107313750Y-71885941D03*
%TD*%
D16*
%TO.C,C12*%
X124206000Y-74482000D03*
X125756000Y-74482000D03*
%TD*%
D14*
%TO.C,L1*%
X117000000Y-102288400D03*
X117000000Y-112270600D03*
%TD*%
D36*
%TO.C,C4*%
X112776000Y-86570000D03*
X111226000Y-86570000D03*
%TD*%
D27*
%TO.C,D2*%
X155731500Y-114021500D03*
X160031500Y-114021500D03*
%TD*%
D37*
%TO.C,C1*%
X156384000Y-117421500D03*
X159334000Y-117421500D03*
%TD*%
D38*
%TO.C,C24*%
X117094000Y-126956500D03*
X117094000Y-135356500D03*
%TD*%
D39*
%TO.C,C21*%
X142748000Y-120674500D03*
X142748000Y-117724500D03*
%TD*%
D25*
%TO.C,C22*%
X128150000Y-113357500D03*
X126250000Y-113357500D03*
%TD*%
D40*
%TO.C,D1*%
X160080000Y-136979500D03*
X164080000Y-136979500D03*
%TD*%
D19*
%TO.C,R13*%
X116000000Y-60000000D03*
X116000000Y-58350000D03*
%TD*%
D41*
%TO.C,D12*%
X108044500Y-117762500D03*
X101244500Y-117762500D03*
%TD*%
D35*
%TO.C,SW2*%
X104925000Y-62925000D03*
X109075000Y-62925000D03*
X104925000Y-65075000D03*
X109050000Y-65075000D03*
%TD*%
D41*
%TO.C,D10*%
X133038000Y-117762500D03*
X126238000Y-117762500D03*
%TD*%
D19*
%TO.C,R11*%
X125733334Y-60000000D03*
X125733334Y-58350000D03*
%TD*%
D36*
%TO.C,C13*%
X125756000Y-70612000D03*
X124206000Y-70612000D03*
%TD*%
D42*
%TO.C,F1*%
X167382000Y-134597500D03*
X167382000Y-137397500D03*
%TD*%
D15*
%TO.C,C7*%
X125222000Y-86570000D03*
X125222000Y-88120000D03*
%TD*%
D43*
%TO.C,U4*%
X84328000Y-107950000D03*
X85598000Y-107950000D03*
X86868000Y-107950000D03*
X88138000Y-107950000D03*
X88138000Y-103010000D03*
X86868000Y-103010000D03*
X85598000Y-103010000D03*
X84328000Y-103010000D03*
%TD*%
D29*
%TO.C,C5*%
X116376000Y-77737000D03*
X116376000Y-76187000D03*
%TD*%
D15*
%TO.C,C3*%
X123444000Y-90170000D03*
X123444000Y-91720000D03*
%TD*%
D39*
%TO.C,C25*%
X117094000Y-120674500D03*
X117094000Y-117724500D03*
%TD*%
D32*
%TO.C,C23*%
X132435500Y-108277500D03*
X127035500Y-108277500D03*
%TD*%
D38*
%TO.C,C20*%
X142748000Y-127191500D03*
X142748000Y-135591500D03*
%TD*%
M02*
