%TF.GenerationSoftware,KiCad,Pcbnew,7.0.1*%
%TF.CreationDate,2023-05-03T11:58:28+03:00*%
%TF.ProjectId,damlama,64616d6c-616d-4612-9e6b-696361645f70,rev?*%
%TF.SameCoordinates,Original*%
%TF.FileFunction,Drillmap*%
%TF.FilePolarity,Positive*%
%FSLAX45Y45*%
G04 Gerber Fmt 4.5, Leading zero omitted, Abs format (unit mm)*
G04 Created by KiCad (PCBNEW 7.0.1) date 2023-05-03 11:58:28*
%MOMM*%
%LPD*%
G01*
G04 APERTURE LIST*
%ADD10C,0.050000*%
%ADD11C,0.200000*%
%ADD12C,0.250000*%
G04 APERTURE END LIST*
D10*
X17800000Y-14000000D02*
X8200000Y-14000000D01*
X17800000Y-14000000D02*
G75*
G03*
X18000000Y-13800000I0J200000D01*
G01*
X8000000Y-13800000D02*
X8000000Y-5700000D01*
X8200000Y-5500000D02*
G75*
G03*
X8000000Y-5700000I0J-200000D01*
G01*
X8200000Y-5500000D02*
X17800000Y-5500000D01*
X18000000Y-5700000D02*
X18000000Y-13800000D01*
X18000000Y-5700000D02*
G75*
G03*
X17800000Y-5500000I-200000J0D01*
G01*
X8000000Y-13800000D02*
G75*
G03*
X8200000Y-14000000I200000J0D01*
G01*
D11*
D12*
X8275000Y-5775000D02*
X8525000Y-6025000D01*
X8525000Y-5775000D02*
X8275000Y-6025000D01*
X8275000Y-13475000D02*
X8525000Y-13725000D01*
X8525000Y-13475000D02*
X8275000Y-13725000D01*
X17475000Y-5775000D02*
X17725000Y-6025000D01*
X17725000Y-5775000D02*
X17475000Y-6025000D01*
X17475000Y-13475000D02*
X17725000Y-13725000D01*
X17725000Y-13475000D02*
X17475000Y-13725000D01*
D11*
X8245119Y-14315024D02*
X8245119Y-14115024D01*
X8245119Y-14115024D02*
X8292738Y-14115024D01*
X8292738Y-14115024D02*
X8321309Y-14124548D01*
X8321309Y-14124548D02*
X8340357Y-14143595D01*
X8340357Y-14143595D02*
X8349881Y-14162643D01*
X8349881Y-14162643D02*
X8359405Y-14200738D01*
X8359405Y-14200738D02*
X8359405Y-14229309D01*
X8359405Y-14229309D02*
X8349881Y-14267405D01*
X8349881Y-14267405D02*
X8340357Y-14286452D01*
X8340357Y-14286452D02*
X8321309Y-14305500D01*
X8321309Y-14305500D02*
X8292738Y-14315024D01*
X8292738Y-14315024D02*
X8245119Y-14315024D01*
X8445119Y-14315024D02*
X8445119Y-14181690D01*
X8445119Y-14219786D02*
X8454643Y-14200738D01*
X8454643Y-14200738D02*
X8464167Y-14191214D01*
X8464167Y-14191214D02*
X8483214Y-14181690D01*
X8483214Y-14181690D02*
X8502262Y-14181690D01*
X8568929Y-14315024D02*
X8568929Y-14181690D01*
X8568929Y-14115024D02*
X8559405Y-14124548D01*
X8559405Y-14124548D02*
X8568929Y-14134071D01*
X8568929Y-14134071D02*
X8578452Y-14124548D01*
X8578452Y-14124548D02*
X8568929Y-14115024D01*
X8568929Y-14115024D02*
X8568929Y-14134071D01*
X8692738Y-14315024D02*
X8673690Y-14305500D01*
X8673690Y-14305500D02*
X8664167Y-14286452D01*
X8664167Y-14286452D02*
X8664167Y-14115024D01*
X8797500Y-14315024D02*
X8778452Y-14305500D01*
X8778452Y-14305500D02*
X8768929Y-14286452D01*
X8768929Y-14286452D02*
X8768929Y-14115024D01*
X9026071Y-14315024D02*
X9026071Y-14115024D01*
X9026071Y-14115024D02*
X9092738Y-14257881D01*
X9092738Y-14257881D02*
X9159405Y-14115024D01*
X9159405Y-14115024D02*
X9159405Y-14315024D01*
X9340357Y-14315024D02*
X9340357Y-14210262D01*
X9340357Y-14210262D02*
X9330833Y-14191214D01*
X9330833Y-14191214D02*
X9311786Y-14181690D01*
X9311786Y-14181690D02*
X9273690Y-14181690D01*
X9273690Y-14181690D02*
X9254643Y-14191214D01*
X9340357Y-14305500D02*
X9321310Y-14315024D01*
X9321310Y-14315024D02*
X9273690Y-14315024D01*
X9273690Y-14315024D02*
X9254643Y-14305500D01*
X9254643Y-14305500D02*
X9245119Y-14286452D01*
X9245119Y-14286452D02*
X9245119Y-14267405D01*
X9245119Y-14267405D02*
X9254643Y-14248357D01*
X9254643Y-14248357D02*
X9273690Y-14238833D01*
X9273690Y-14238833D02*
X9321310Y-14238833D01*
X9321310Y-14238833D02*
X9340357Y-14229309D01*
X9435595Y-14181690D02*
X9435595Y-14381690D01*
X9435595Y-14191214D02*
X9454643Y-14181690D01*
X9454643Y-14181690D02*
X9492738Y-14181690D01*
X9492738Y-14181690D02*
X9511786Y-14191214D01*
X9511786Y-14191214D02*
X9521310Y-14200738D01*
X9521310Y-14200738D02*
X9530833Y-14219786D01*
X9530833Y-14219786D02*
X9530833Y-14276928D01*
X9530833Y-14276928D02*
X9521310Y-14295976D01*
X9521310Y-14295976D02*
X9511786Y-14305500D01*
X9511786Y-14305500D02*
X9492738Y-14315024D01*
X9492738Y-14315024D02*
X9454643Y-14315024D01*
X9454643Y-14315024D02*
X9435595Y-14305500D01*
X9616548Y-14295976D02*
X9626071Y-14305500D01*
X9626071Y-14305500D02*
X9616548Y-14315024D01*
X9616548Y-14315024D02*
X9607024Y-14305500D01*
X9607024Y-14305500D02*
X9616548Y-14295976D01*
X9616548Y-14295976D02*
X9616548Y-14315024D01*
X9616548Y-14191214D02*
X9626071Y-14200738D01*
X9626071Y-14200738D02*
X9616548Y-14210262D01*
X9616548Y-14210262D02*
X9607024Y-14200738D01*
X9607024Y-14200738D02*
X9616548Y-14191214D01*
X9616548Y-14191214D02*
X9616548Y-14210262D01*
X7797500Y-14542500D02*
X7997500Y-14742500D01*
X7997500Y-14542500D02*
X7797500Y-14742500D01*
X8235595Y-14554071D02*
X8245119Y-14544548D01*
X8245119Y-14544548D02*
X8264167Y-14535024D01*
X8264167Y-14535024D02*
X8311786Y-14535024D01*
X8311786Y-14535024D02*
X8330833Y-14544548D01*
X8330833Y-14544548D02*
X8340357Y-14554071D01*
X8340357Y-14554071D02*
X8349881Y-14573119D01*
X8349881Y-14573119D02*
X8349881Y-14592167D01*
X8349881Y-14592167D02*
X8340357Y-14620738D01*
X8340357Y-14620738D02*
X8226071Y-14735024D01*
X8226071Y-14735024D02*
X8349881Y-14735024D01*
X8435595Y-14715976D02*
X8445119Y-14725500D01*
X8445119Y-14725500D02*
X8435595Y-14735024D01*
X8435595Y-14735024D02*
X8426071Y-14725500D01*
X8426071Y-14725500D02*
X8435595Y-14715976D01*
X8435595Y-14715976D02*
X8435595Y-14735024D01*
X8626071Y-14535024D02*
X8530833Y-14535024D01*
X8530833Y-14535024D02*
X8521310Y-14630262D01*
X8521310Y-14630262D02*
X8530833Y-14620738D01*
X8530833Y-14620738D02*
X8549881Y-14611214D01*
X8549881Y-14611214D02*
X8597500Y-14611214D01*
X8597500Y-14611214D02*
X8616548Y-14620738D01*
X8616548Y-14620738D02*
X8626071Y-14630262D01*
X8626071Y-14630262D02*
X8635595Y-14649309D01*
X8635595Y-14649309D02*
X8635595Y-14696928D01*
X8635595Y-14696928D02*
X8626071Y-14715976D01*
X8626071Y-14715976D02*
X8616548Y-14725500D01*
X8616548Y-14725500D02*
X8597500Y-14735024D01*
X8597500Y-14735024D02*
X8549881Y-14735024D01*
X8549881Y-14735024D02*
X8530833Y-14725500D01*
X8530833Y-14725500D02*
X8521310Y-14715976D01*
X8759405Y-14535024D02*
X8778452Y-14535024D01*
X8778452Y-14535024D02*
X8797500Y-14544548D01*
X8797500Y-14544548D02*
X8807024Y-14554071D01*
X8807024Y-14554071D02*
X8816548Y-14573119D01*
X8816548Y-14573119D02*
X8826071Y-14611214D01*
X8826071Y-14611214D02*
X8826071Y-14658833D01*
X8826071Y-14658833D02*
X8816548Y-14696928D01*
X8816548Y-14696928D02*
X8807024Y-14715976D01*
X8807024Y-14715976D02*
X8797500Y-14725500D01*
X8797500Y-14725500D02*
X8778452Y-14735024D01*
X8778452Y-14735024D02*
X8759405Y-14735024D01*
X8759405Y-14735024D02*
X8740357Y-14725500D01*
X8740357Y-14725500D02*
X8730833Y-14715976D01*
X8730833Y-14715976D02*
X8721310Y-14696928D01*
X8721310Y-14696928D02*
X8711786Y-14658833D01*
X8711786Y-14658833D02*
X8711786Y-14611214D01*
X8711786Y-14611214D02*
X8721310Y-14573119D01*
X8721310Y-14573119D02*
X8730833Y-14554071D01*
X8730833Y-14554071D02*
X8740357Y-14544548D01*
X8740357Y-14544548D02*
X8759405Y-14535024D01*
X8949881Y-14535024D02*
X8968929Y-14535024D01*
X8968929Y-14535024D02*
X8987976Y-14544548D01*
X8987976Y-14544548D02*
X8997500Y-14554071D01*
X8997500Y-14554071D02*
X9007024Y-14573119D01*
X9007024Y-14573119D02*
X9016548Y-14611214D01*
X9016548Y-14611214D02*
X9016548Y-14658833D01*
X9016548Y-14658833D02*
X9007024Y-14696928D01*
X9007024Y-14696928D02*
X8997500Y-14715976D01*
X8997500Y-14715976D02*
X8987976Y-14725500D01*
X8987976Y-14725500D02*
X8968929Y-14735024D01*
X8968929Y-14735024D02*
X8949881Y-14735024D01*
X8949881Y-14735024D02*
X8930833Y-14725500D01*
X8930833Y-14725500D02*
X8921310Y-14715976D01*
X8921310Y-14715976D02*
X8911786Y-14696928D01*
X8911786Y-14696928D02*
X8902262Y-14658833D01*
X8902262Y-14658833D02*
X8902262Y-14611214D01*
X8902262Y-14611214D02*
X8911786Y-14573119D01*
X8911786Y-14573119D02*
X8921310Y-14554071D01*
X8921310Y-14554071D02*
X8930833Y-14544548D01*
X8930833Y-14544548D02*
X8949881Y-14535024D01*
X9102262Y-14735024D02*
X9102262Y-14601690D01*
X9102262Y-14620738D02*
X9111786Y-14611214D01*
X9111786Y-14611214D02*
X9130833Y-14601690D01*
X9130833Y-14601690D02*
X9159405Y-14601690D01*
X9159405Y-14601690D02*
X9178452Y-14611214D01*
X9178452Y-14611214D02*
X9187976Y-14630262D01*
X9187976Y-14630262D02*
X9187976Y-14735024D01*
X9187976Y-14630262D02*
X9197500Y-14611214D01*
X9197500Y-14611214D02*
X9216548Y-14601690D01*
X9216548Y-14601690D02*
X9245119Y-14601690D01*
X9245119Y-14601690D02*
X9264167Y-14611214D01*
X9264167Y-14611214D02*
X9273691Y-14630262D01*
X9273691Y-14630262D02*
X9273691Y-14735024D01*
X9368929Y-14735024D02*
X9368929Y-14601690D01*
X9368929Y-14620738D02*
X9378452Y-14611214D01*
X9378452Y-14611214D02*
X9397500Y-14601690D01*
X9397500Y-14601690D02*
X9426072Y-14601690D01*
X9426072Y-14601690D02*
X9445119Y-14611214D01*
X9445119Y-14611214D02*
X9454643Y-14630262D01*
X9454643Y-14630262D02*
X9454643Y-14735024D01*
X9454643Y-14630262D02*
X9464167Y-14611214D01*
X9464167Y-14611214D02*
X9483214Y-14601690D01*
X9483214Y-14601690D02*
X9511786Y-14601690D01*
X9511786Y-14601690D02*
X9530833Y-14611214D01*
X9530833Y-14611214D02*
X9540357Y-14630262D01*
X9540357Y-14630262D02*
X9540357Y-14735024D01*
X9930833Y-14525500D02*
X9759405Y-14782643D01*
X10187976Y-14535024D02*
X10207024Y-14535024D01*
X10207024Y-14535024D02*
X10226072Y-14544548D01*
X10226072Y-14544548D02*
X10235595Y-14554071D01*
X10235595Y-14554071D02*
X10245119Y-14573119D01*
X10245119Y-14573119D02*
X10254643Y-14611214D01*
X10254643Y-14611214D02*
X10254643Y-14658833D01*
X10254643Y-14658833D02*
X10245119Y-14696928D01*
X10245119Y-14696928D02*
X10235595Y-14715976D01*
X10235595Y-14715976D02*
X10226072Y-14725500D01*
X10226072Y-14725500D02*
X10207024Y-14735024D01*
X10207024Y-14735024D02*
X10187976Y-14735024D01*
X10187976Y-14735024D02*
X10168929Y-14725500D01*
X10168929Y-14725500D02*
X10159405Y-14715976D01*
X10159405Y-14715976D02*
X10149881Y-14696928D01*
X10149881Y-14696928D02*
X10140357Y-14658833D01*
X10140357Y-14658833D02*
X10140357Y-14611214D01*
X10140357Y-14611214D02*
X10149881Y-14573119D01*
X10149881Y-14573119D02*
X10159405Y-14554071D01*
X10159405Y-14554071D02*
X10168929Y-14544548D01*
X10168929Y-14544548D02*
X10187976Y-14535024D01*
X10340357Y-14715976D02*
X10349881Y-14725500D01*
X10349881Y-14725500D02*
X10340357Y-14735024D01*
X10340357Y-14735024D02*
X10330834Y-14725500D01*
X10330834Y-14725500D02*
X10340357Y-14715976D01*
X10340357Y-14715976D02*
X10340357Y-14735024D01*
X10473691Y-14535024D02*
X10492738Y-14535024D01*
X10492738Y-14535024D02*
X10511786Y-14544548D01*
X10511786Y-14544548D02*
X10521310Y-14554071D01*
X10521310Y-14554071D02*
X10530834Y-14573119D01*
X10530834Y-14573119D02*
X10540357Y-14611214D01*
X10540357Y-14611214D02*
X10540357Y-14658833D01*
X10540357Y-14658833D02*
X10530834Y-14696928D01*
X10530834Y-14696928D02*
X10521310Y-14715976D01*
X10521310Y-14715976D02*
X10511786Y-14725500D01*
X10511786Y-14725500D02*
X10492738Y-14735024D01*
X10492738Y-14735024D02*
X10473691Y-14735024D01*
X10473691Y-14735024D02*
X10454643Y-14725500D01*
X10454643Y-14725500D02*
X10445119Y-14715976D01*
X10445119Y-14715976D02*
X10435595Y-14696928D01*
X10435595Y-14696928D02*
X10426072Y-14658833D01*
X10426072Y-14658833D02*
X10426072Y-14611214D01*
X10426072Y-14611214D02*
X10435595Y-14573119D01*
X10435595Y-14573119D02*
X10445119Y-14554071D01*
X10445119Y-14554071D02*
X10454643Y-14544548D01*
X10454643Y-14544548D02*
X10473691Y-14535024D01*
X10635595Y-14735024D02*
X10673691Y-14735024D01*
X10673691Y-14735024D02*
X10692738Y-14725500D01*
X10692738Y-14725500D02*
X10702262Y-14715976D01*
X10702262Y-14715976D02*
X10721310Y-14687405D01*
X10721310Y-14687405D02*
X10730834Y-14649309D01*
X10730834Y-14649309D02*
X10730834Y-14573119D01*
X10730834Y-14573119D02*
X10721310Y-14554071D01*
X10721310Y-14554071D02*
X10711786Y-14544548D01*
X10711786Y-14544548D02*
X10692738Y-14535024D01*
X10692738Y-14535024D02*
X10654643Y-14535024D01*
X10654643Y-14535024D02*
X10635595Y-14544548D01*
X10635595Y-14544548D02*
X10626072Y-14554071D01*
X10626072Y-14554071D02*
X10616548Y-14573119D01*
X10616548Y-14573119D02*
X10616548Y-14620738D01*
X10616548Y-14620738D02*
X10626072Y-14639786D01*
X10626072Y-14639786D02*
X10635595Y-14649309D01*
X10635595Y-14649309D02*
X10654643Y-14658833D01*
X10654643Y-14658833D02*
X10692738Y-14658833D01*
X10692738Y-14658833D02*
X10711786Y-14649309D01*
X10711786Y-14649309D02*
X10721310Y-14639786D01*
X10721310Y-14639786D02*
X10730834Y-14620738D01*
X10845119Y-14620738D02*
X10826072Y-14611214D01*
X10826072Y-14611214D02*
X10816548Y-14601690D01*
X10816548Y-14601690D02*
X10807024Y-14582643D01*
X10807024Y-14582643D02*
X10807024Y-14573119D01*
X10807024Y-14573119D02*
X10816548Y-14554071D01*
X10816548Y-14554071D02*
X10826072Y-14544548D01*
X10826072Y-14544548D02*
X10845119Y-14535024D01*
X10845119Y-14535024D02*
X10883215Y-14535024D01*
X10883215Y-14535024D02*
X10902262Y-14544548D01*
X10902262Y-14544548D02*
X10911786Y-14554071D01*
X10911786Y-14554071D02*
X10921310Y-14573119D01*
X10921310Y-14573119D02*
X10921310Y-14582643D01*
X10921310Y-14582643D02*
X10911786Y-14601690D01*
X10911786Y-14601690D02*
X10902262Y-14611214D01*
X10902262Y-14611214D02*
X10883215Y-14620738D01*
X10883215Y-14620738D02*
X10845119Y-14620738D01*
X10845119Y-14620738D02*
X10826072Y-14630262D01*
X10826072Y-14630262D02*
X10816548Y-14639786D01*
X10816548Y-14639786D02*
X10807024Y-14658833D01*
X10807024Y-14658833D02*
X10807024Y-14696928D01*
X10807024Y-14696928D02*
X10816548Y-14715976D01*
X10816548Y-14715976D02*
X10826072Y-14725500D01*
X10826072Y-14725500D02*
X10845119Y-14735024D01*
X10845119Y-14735024D02*
X10883215Y-14735024D01*
X10883215Y-14735024D02*
X10902262Y-14725500D01*
X10902262Y-14725500D02*
X10911786Y-14715976D01*
X10911786Y-14715976D02*
X10921310Y-14696928D01*
X10921310Y-14696928D02*
X10921310Y-14658833D01*
X10921310Y-14658833D02*
X10911786Y-14639786D01*
X10911786Y-14639786D02*
X10902262Y-14630262D01*
X10902262Y-14630262D02*
X10883215Y-14620738D01*
X11092738Y-14601690D02*
X11092738Y-14735024D01*
X11045119Y-14525500D02*
X10997500Y-14668357D01*
X10997500Y-14668357D02*
X11121310Y-14668357D01*
X11187976Y-14535024D02*
X11187976Y-14573119D01*
X11264167Y-14535024D02*
X11264167Y-14573119D01*
X11559405Y-14811214D02*
X11549881Y-14801690D01*
X11549881Y-14801690D02*
X11530834Y-14773119D01*
X11530834Y-14773119D02*
X11521310Y-14754071D01*
X11521310Y-14754071D02*
X11511786Y-14725500D01*
X11511786Y-14725500D02*
X11502262Y-14677881D01*
X11502262Y-14677881D02*
X11502262Y-14639786D01*
X11502262Y-14639786D02*
X11511786Y-14592167D01*
X11511786Y-14592167D02*
X11521310Y-14563595D01*
X11521310Y-14563595D02*
X11530834Y-14544548D01*
X11530834Y-14544548D02*
X11549881Y-14515976D01*
X11549881Y-14515976D02*
X11559405Y-14506452D01*
X11721310Y-14601690D02*
X11721310Y-14735024D01*
X11673691Y-14525500D02*
X11626072Y-14668357D01*
X11626072Y-14668357D02*
X11749881Y-14668357D01*
X11978453Y-14735024D02*
X11978453Y-14535024D01*
X12064167Y-14735024D02*
X12064167Y-14630262D01*
X12064167Y-14630262D02*
X12054643Y-14611214D01*
X12054643Y-14611214D02*
X12035596Y-14601690D01*
X12035596Y-14601690D02*
X12007024Y-14601690D01*
X12007024Y-14601690D02*
X11987976Y-14611214D01*
X11987976Y-14611214D02*
X11978453Y-14620738D01*
X12187976Y-14735024D02*
X12168929Y-14725500D01*
X12168929Y-14725500D02*
X12159405Y-14715976D01*
X12159405Y-14715976D02*
X12149881Y-14696928D01*
X12149881Y-14696928D02*
X12149881Y-14639786D01*
X12149881Y-14639786D02*
X12159405Y-14620738D01*
X12159405Y-14620738D02*
X12168929Y-14611214D01*
X12168929Y-14611214D02*
X12187976Y-14601690D01*
X12187976Y-14601690D02*
X12216548Y-14601690D01*
X12216548Y-14601690D02*
X12235596Y-14611214D01*
X12235596Y-14611214D02*
X12245119Y-14620738D01*
X12245119Y-14620738D02*
X12254643Y-14639786D01*
X12254643Y-14639786D02*
X12254643Y-14696928D01*
X12254643Y-14696928D02*
X12245119Y-14715976D01*
X12245119Y-14715976D02*
X12235596Y-14725500D01*
X12235596Y-14725500D02*
X12216548Y-14735024D01*
X12216548Y-14735024D02*
X12187976Y-14735024D01*
X12368929Y-14735024D02*
X12349881Y-14725500D01*
X12349881Y-14725500D02*
X12340357Y-14706452D01*
X12340357Y-14706452D02*
X12340357Y-14535024D01*
X12521310Y-14725500D02*
X12502262Y-14735024D01*
X12502262Y-14735024D02*
X12464167Y-14735024D01*
X12464167Y-14735024D02*
X12445119Y-14725500D01*
X12445119Y-14725500D02*
X12435596Y-14706452D01*
X12435596Y-14706452D02*
X12435596Y-14630262D01*
X12435596Y-14630262D02*
X12445119Y-14611214D01*
X12445119Y-14611214D02*
X12464167Y-14601690D01*
X12464167Y-14601690D02*
X12502262Y-14601690D01*
X12502262Y-14601690D02*
X12521310Y-14611214D01*
X12521310Y-14611214D02*
X12530834Y-14630262D01*
X12530834Y-14630262D02*
X12530834Y-14649309D01*
X12530834Y-14649309D02*
X12435596Y-14668357D01*
X12607024Y-14725500D02*
X12626072Y-14735024D01*
X12626072Y-14735024D02*
X12664167Y-14735024D01*
X12664167Y-14735024D02*
X12683215Y-14725500D01*
X12683215Y-14725500D02*
X12692738Y-14706452D01*
X12692738Y-14706452D02*
X12692738Y-14696928D01*
X12692738Y-14696928D02*
X12683215Y-14677881D01*
X12683215Y-14677881D02*
X12664167Y-14668357D01*
X12664167Y-14668357D02*
X12635596Y-14668357D01*
X12635596Y-14668357D02*
X12616548Y-14658833D01*
X12616548Y-14658833D02*
X12607024Y-14639786D01*
X12607024Y-14639786D02*
X12607024Y-14630262D01*
X12607024Y-14630262D02*
X12616548Y-14611214D01*
X12616548Y-14611214D02*
X12635596Y-14601690D01*
X12635596Y-14601690D02*
X12664167Y-14601690D01*
X12664167Y-14601690D02*
X12683215Y-14611214D01*
X12759405Y-14811214D02*
X12768929Y-14801690D01*
X12768929Y-14801690D02*
X12787977Y-14773119D01*
X12787977Y-14773119D02*
X12797500Y-14754071D01*
X12797500Y-14754071D02*
X12807024Y-14725500D01*
X12807024Y-14725500D02*
X12816548Y-14677881D01*
X12816548Y-14677881D02*
X12816548Y-14639786D01*
X12816548Y-14639786D02*
X12807024Y-14592167D01*
X12807024Y-14592167D02*
X12797500Y-14563595D01*
X12797500Y-14563595D02*
X12787977Y-14544548D01*
X12787977Y-14544548D02*
X12768929Y-14515976D01*
X12768929Y-14515976D02*
X12759405Y-14506452D01*
X13121310Y-14811214D02*
X13111786Y-14801690D01*
X13111786Y-14801690D02*
X13092738Y-14773119D01*
X13092738Y-14773119D02*
X13083215Y-14754071D01*
X13083215Y-14754071D02*
X13073691Y-14725500D01*
X13073691Y-14725500D02*
X13064167Y-14677881D01*
X13064167Y-14677881D02*
X13064167Y-14639786D01*
X13064167Y-14639786D02*
X13073691Y-14592167D01*
X13073691Y-14592167D02*
X13083215Y-14563595D01*
X13083215Y-14563595D02*
X13092738Y-14544548D01*
X13092738Y-14544548D02*
X13111786Y-14515976D01*
X13111786Y-14515976D02*
X13121310Y-14506452D01*
X13197500Y-14601690D02*
X13197500Y-14735024D01*
X13197500Y-14620738D02*
X13207024Y-14611214D01*
X13207024Y-14611214D02*
X13226072Y-14601690D01*
X13226072Y-14601690D02*
X13254643Y-14601690D01*
X13254643Y-14601690D02*
X13273691Y-14611214D01*
X13273691Y-14611214D02*
X13283215Y-14630262D01*
X13283215Y-14630262D02*
X13283215Y-14735024D01*
X13407024Y-14735024D02*
X13387977Y-14725500D01*
X13387977Y-14725500D02*
X13378453Y-14715976D01*
X13378453Y-14715976D02*
X13368929Y-14696928D01*
X13368929Y-14696928D02*
X13368929Y-14639786D01*
X13368929Y-14639786D02*
X13378453Y-14620738D01*
X13378453Y-14620738D02*
X13387977Y-14611214D01*
X13387977Y-14611214D02*
X13407024Y-14601690D01*
X13407024Y-14601690D02*
X13435596Y-14601690D01*
X13435596Y-14601690D02*
X13454643Y-14611214D01*
X13454643Y-14611214D02*
X13464167Y-14620738D01*
X13464167Y-14620738D02*
X13473691Y-14639786D01*
X13473691Y-14639786D02*
X13473691Y-14696928D01*
X13473691Y-14696928D02*
X13464167Y-14715976D01*
X13464167Y-14715976D02*
X13454643Y-14725500D01*
X13454643Y-14725500D02*
X13435596Y-14735024D01*
X13435596Y-14735024D02*
X13407024Y-14735024D01*
X13530834Y-14601690D02*
X13607024Y-14601690D01*
X13559405Y-14535024D02*
X13559405Y-14706452D01*
X13559405Y-14706452D02*
X13568929Y-14725500D01*
X13568929Y-14725500D02*
X13587977Y-14735024D01*
X13587977Y-14735024D02*
X13607024Y-14735024D01*
X13826072Y-14601690D02*
X13826072Y-14801690D01*
X13826072Y-14611214D02*
X13845119Y-14601690D01*
X13845119Y-14601690D02*
X13883215Y-14601690D01*
X13883215Y-14601690D02*
X13902262Y-14611214D01*
X13902262Y-14611214D02*
X13911786Y-14620738D01*
X13911786Y-14620738D02*
X13921310Y-14639786D01*
X13921310Y-14639786D02*
X13921310Y-14696928D01*
X13921310Y-14696928D02*
X13911786Y-14715976D01*
X13911786Y-14715976D02*
X13902262Y-14725500D01*
X13902262Y-14725500D02*
X13883215Y-14735024D01*
X13883215Y-14735024D02*
X13845119Y-14735024D01*
X13845119Y-14735024D02*
X13826072Y-14725500D01*
X14035596Y-14735024D02*
X14016548Y-14725500D01*
X14016548Y-14725500D02*
X14007024Y-14706452D01*
X14007024Y-14706452D02*
X14007024Y-14535024D01*
X14197500Y-14735024D02*
X14197500Y-14630262D01*
X14197500Y-14630262D02*
X14187977Y-14611214D01*
X14187977Y-14611214D02*
X14168929Y-14601690D01*
X14168929Y-14601690D02*
X14130834Y-14601690D01*
X14130834Y-14601690D02*
X14111786Y-14611214D01*
X14197500Y-14725500D02*
X14178453Y-14735024D01*
X14178453Y-14735024D02*
X14130834Y-14735024D01*
X14130834Y-14735024D02*
X14111786Y-14725500D01*
X14111786Y-14725500D02*
X14102262Y-14706452D01*
X14102262Y-14706452D02*
X14102262Y-14687405D01*
X14102262Y-14687405D02*
X14111786Y-14668357D01*
X14111786Y-14668357D02*
X14130834Y-14658833D01*
X14130834Y-14658833D02*
X14178453Y-14658833D01*
X14178453Y-14658833D02*
X14197500Y-14649309D01*
X14264167Y-14601690D02*
X14340358Y-14601690D01*
X14292739Y-14535024D02*
X14292739Y-14706452D01*
X14292739Y-14706452D02*
X14302262Y-14725500D01*
X14302262Y-14725500D02*
X14321310Y-14735024D01*
X14321310Y-14735024D02*
X14340358Y-14735024D01*
X14483215Y-14725500D02*
X14464167Y-14735024D01*
X14464167Y-14735024D02*
X14426072Y-14735024D01*
X14426072Y-14735024D02*
X14407024Y-14725500D01*
X14407024Y-14725500D02*
X14397500Y-14706452D01*
X14397500Y-14706452D02*
X14397500Y-14630262D01*
X14397500Y-14630262D02*
X14407024Y-14611214D01*
X14407024Y-14611214D02*
X14426072Y-14601690D01*
X14426072Y-14601690D02*
X14464167Y-14601690D01*
X14464167Y-14601690D02*
X14483215Y-14611214D01*
X14483215Y-14611214D02*
X14492739Y-14630262D01*
X14492739Y-14630262D02*
X14492739Y-14649309D01*
X14492739Y-14649309D02*
X14397500Y-14668357D01*
X14664167Y-14735024D02*
X14664167Y-14535024D01*
X14664167Y-14725500D02*
X14645120Y-14735024D01*
X14645120Y-14735024D02*
X14607024Y-14735024D01*
X14607024Y-14735024D02*
X14587977Y-14725500D01*
X14587977Y-14725500D02*
X14578453Y-14715976D01*
X14578453Y-14715976D02*
X14568929Y-14696928D01*
X14568929Y-14696928D02*
X14568929Y-14639786D01*
X14568929Y-14639786D02*
X14578453Y-14620738D01*
X14578453Y-14620738D02*
X14587977Y-14611214D01*
X14587977Y-14611214D02*
X14607024Y-14601690D01*
X14607024Y-14601690D02*
X14645120Y-14601690D01*
X14645120Y-14601690D02*
X14664167Y-14611214D01*
X14740358Y-14811214D02*
X14749881Y-14801690D01*
X14749881Y-14801690D02*
X14768929Y-14773119D01*
X14768929Y-14773119D02*
X14778453Y-14754071D01*
X14778453Y-14754071D02*
X14787977Y-14725500D01*
X14787977Y-14725500D02*
X14797500Y-14677881D01*
X14797500Y-14677881D02*
X14797500Y-14639786D01*
X14797500Y-14639786D02*
X14787977Y-14592167D01*
X14787977Y-14592167D02*
X14778453Y-14563595D01*
X14778453Y-14563595D02*
X14768929Y-14544548D01*
X14768929Y-14544548D02*
X14749881Y-14515976D01*
X14749881Y-14515976D02*
X14740358Y-14506452D01*
M02*
