%TF.GenerationSoftware,KiCad,Pcbnew,7.0.1*%
%TF.CreationDate,2023-05-03T11:58:35+03:00*%
%TF.ProjectId,damlama,64616d6c-616d-4612-9e6b-696361645f70,rev?*%
%TF.SameCoordinates,Original*%
%TF.FileFunction,Soldermask,Bot*%
%TF.FilePolarity,Negative*%
%FSLAX46Y46*%
G04 Gerber Fmt 4.6, Leading zero omitted, Abs format (unit mm)*
G04 Created by KiCad (PCBNEW 7.0.1) date 2023-05-03 11:58:35*
%MOMM*%
%LPD*%
G01*
G04 APERTURE LIST*
G04 Aperture macros list*
%AMRoundRect*
0 Rectangle with rounded corners*
0 $1 Rounding radius*
0 $2 $3 $4 $5 $6 $7 $8 $9 X,Y pos of 4 corners*
0 Add a 4 corners polygon primitive as box body*
4,1,4,$2,$3,$4,$5,$6,$7,$8,$9,$2,$3,0*
0 Add four circle primitives for the rounded corners*
1,1,$1+$1,$2,$3*
1,1,$1+$1,$4,$5*
1,1,$1+$1,$6,$7*
1,1,$1+$1,$8,$9*
0 Add four rect primitives between the rounded corners*
20,1,$1+$1,$2,$3,$4,$5,0*
20,1,$1+$1,$4,$5,$6,$7,0*
20,1,$1+$1,$6,$7,$8,$9,0*
20,1,$1+$1,$8,$9,$2,$3,0*%
G04 Aperture macros list end*
%ADD10C,2.500000*%
%ADD11O,2.500000X5.000000*%
%ADD12O,2.250000X4.500000*%
%ADD13O,4.500000X2.250000*%
%ADD14RoundRect,0.249999X1.550001X-0.790001X1.550001X0.790001X-1.550001X0.790001X-1.550001X-0.790001X0*%
%ADD15O,3.600000X2.080000*%
%ADD16R,1.980000X1.980000*%
%ADD17C,1.980000*%
%ADD18C,1.935000*%
%ADD19R,1.800000X1.800000*%
%ADD20C,1.800000*%
%ADD21C,1.900000*%
%ADD22C,1.000000*%
%ADD23R,1.700000X1.700000*%
%ADD24O,1.700000X1.700000*%
G04 APERTURE END LIST*
D10*
%TO.C,H1*%
X84000000Y-59000000D03*
%TD*%
D11*
%TO.C,J4*%
X168200000Y-126200000D03*
D12*
X174200000Y-126200000D03*
D13*
X171200000Y-121500000D03*
%TD*%
D14*
%TO.C,J6*%
X171400000Y-86100000D03*
D15*
X171400000Y-81020000D03*
X171400000Y-75940000D03*
%TD*%
D10*
%TO.C,H3*%
X176000000Y-136000000D03*
%TD*%
D16*
%TO.C,K1*%
X150110000Y-85122500D03*
D17*
X150110000Y-97122500D03*
D18*
X148110000Y-91122500D03*
D17*
X162310000Y-85122500D03*
X162310000Y-97122500D03*
%TD*%
D19*
%TO.C,D5*%
X120866668Y-62725000D03*
D20*
X120866668Y-65265000D03*
%TD*%
D21*
%TO.C,U3*%
X139060000Y-61500000D03*
X139060000Y-64040000D03*
X139060000Y-66580000D03*
X139060000Y-69120000D03*
X139060000Y-71660000D03*
X139060000Y-74200000D03*
X160930000Y-76740000D03*
X160930000Y-74200000D03*
X160930000Y-71660000D03*
X160930000Y-69120000D03*
X160930000Y-66580000D03*
X160930000Y-64040000D03*
%TD*%
D14*
%TO.C,J5*%
X171422500Y-105900000D03*
D15*
X171422500Y-100820000D03*
X171422500Y-95740000D03*
%TD*%
D10*
%TO.C,H2*%
X176000000Y-59000000D03*
%TD*%
D22*
%TO.C,Y1*%
X135610000Y-83374000D03*
X135610000Y-85274000D03*
%TD*%
D19*
%TO.C,D6*%
X125733334Y-62725000D03*
D20*
X125733334Y-65265000D03*
%TD*%
D10*
%TO.C,H4*%
X84000000Y-136000000D03*
%TD*%
D23*
%TO.C,J3*%
X105156000Y-91186000D03*
D24*
X107696000Y-91186000D03*
X110236000Y-91186000D03*
X112776000Y-91186000D03*
%TD*%
D19*
%TO.C,D8*%
X116000000Y-62725000D03*
D20*
X116000000Y-65265000D03*
%TD*%
D19*
%TO.C,D7*%
X130600000Y-62725000D03*
D20*
X130600000Y-65265000D03*
%TD*%
M02*
