M48
; DRILL file {KiCad 7.0.1} date Wed May  3 11:58:29 2023
; FORMAT={-:-/ absolute / inch / decimal}
; #@! TF.CreationDate,2023-05-03T11:58:29+03:00
; #@! TF.GenerationSoftware,Kicad,Pcbnew,7.0.1
; #@! TF.FileFunction,Plated,1,2,PTH
FMAT,2
INCH
; #@! TA.AperFunction,Plated,PTH,ViaDrill
T1C0.0118
; #@! TA.AperFunction,Plated,PTH,ComponentDrill
T2C0.0197
; #@! TA.AperFunction,Plated,PTH,ComponentDrill
T3C0.0354
; #@! TA.AperFunction,Plated,PTH,ComponentDrill
T4C0.0394
; #@! TA.AperFunction,Plated,PTH,ComponentDrill
T5C0.0508
; #@! TA.AperFunction,Plated,PTH,ComponentDrill
T6C0.0520
; #@! TA.AperFunction,Plated,PTH,ComponentDrill
T7C0.0551
%
G90
G05
T1
X3.2205Y-4.2441
X3.37Y-4.68
X3.7Y-2.64
X3.8425Y-3.5197
X3.9921Y-3.212
X3.9921Y-3.248
X3.9926Y-3.1766
X4.0276Y-2.705
X4.12Y-4.6329
X4.2205Y-3.7441
X4.2283Y-3.4213
X4.311Y-2.9843
X4.39Y-4.6329
X4.622Y-3.5315
X4.6457Y-3.2677
X4.6654Y-3.8346
X4.6838Y-2.7493
X4.6838Y-2.7835
X4.6838Y-2.815
X4.689Y-3.2677
X4.71Y-3.01
X4.748Y-3.7402
X4.752Y-3.2362
X4.79Y-3.01
X4.8268Y-2.8268
X4.84Y-4.8929
X4.87Y-3.09
X4.9685Y-3.3551
X4.9803Y-3.7323
X4.9961Y-2.8189
X5.0039Y-3.3858
X5.0591Y-2.7795
X5.11Y-4.6329
X5.1969Y-3.937
X5.4Y-4.6329
X5.42Y-4.8929
X5.8661Y-4.7244
T2
X5.339Y-3.2824
X5.339Y-3.3572
T3
X4.5669Y-2.4695
X4.5669Y-2.5695
X4.7585Y-2.4695
X4.7585Y-2.5695
X4.9501Y-2.4695
X4.9501Y-2.5695
X5.1417Y-2.4695
X5.1417Y-2.5695
X5.4748Y-2.4213
X5.4748Y-2.5213
X5.4748Y-2.6213
X5.4748Y-2.7213
X5.4748Y-2.8213
X5.4748Y-2.9213
X6.3358Y-2.5213
X6.3358Y-2.6213
X6.3358Y-2.7213
X6.3358Y-2.8213
X6.3358Y-2.9213
X6.3358Y-3.0213
T4
X4.14Y-3.59
X4.24Y-3.59
X4.34Y-3.59
X4.44Y-3.59
T5
X5.8311Y-3.5875
T6
X5.9098Y-3.3513
X5.9098Y-3.8237
X6.3902Y-3.3513
X6.3902Y-3.8237
T7
X6.748Y-2.9898
X6.748Y-3.1898
X6.748Y-3.3898
X6.7489Y-3.7693
X6.7489Y-3.9693
X6.7489Y-4.1693
T4
G00X6.622Y-4.9193
M15
G01X6.622Y-5.0177
M16
G05
G00X6.7008Y-4.7835
M15
G01X6.7795Y-4.7835
M16
G05
G00X6.8583Y-4.9291
M15
G01X6.8583Y-5.0079
M16
G05
T0
M30
