%TF.GenerationSoftware,KiCad,Pcbnew,7.0.1*%
%TF.CreationDate,2023-05-03T11:58:35+03:00*%
%TF.ProjectId,damlama,64616d6c-616d-4612-9e6b-696361645f70,rev?*%
%TF.SameCoordinates,Original*%
%TF.FileFunction,Legend,Bot*%
%TF.FilePolarity,Positive*%
%FSLAX46Y46*%
G04 Gerber Fmt 4.6, Leading zero omitted, Abs format (unit mm)*
G04 Created by KiCad (PCBNEW 7.0.1) date 2023-05-03 11:58:35*
%MOMM*%
%LPD*%
G01*
G04 APERTURE LIST*
%ADD10C,0.300000*%
G04 APERTURE END LIST*
D10*
X120742857Y-74686428D02*
X120742857Y-73186428D01*
X120742857Y-73186428D02*
X120385714Y-73186428D01*
X120385714Y-73186428D02*
X120171428Y-73257857D01*
X120171428Y-73257857D02*
X120028571Y-73400714D01*
X120028571Y-73400714D02*
X119957142Y-73543571D01*
X119957142Y-73543571D02*
X119885714Y-73829285D01*
X119885714Y-73829285D02*
X119885714Y-74043571D01*
X119885714Y-74043571D02*
X119957142Y-74329285D01*
X119957142Y-74329285D02*
X120028571Y-74472142D01*
X120028571Y-74472142D02*
X120171428Y-74615000D01*
X120171428Y-74615000D02*
X120385714Y-74686428D01*
X120385714Y-74686428D02*
X120742857Y-74686428D01*
X119314285Y-74257857D02*
X118600000Y-74257857D01*
X119457142Y-74686428D02*
X118957142Y-73186428D01*
X118957142Y-73186428D02*
X118457142Y-74686428D01*
X117957143Y-74686428D02*
X117957143Y-73186428D01*
X117957143Y-73186428D02*
X117457143Y-74257857D01*
X117457143Y-74257857D02*
X116957143Y-73186428D01*
X116957143Y-73186428D02*
X116957143Y-74686428D01*
X115528571Y-74686428D02*
X116242857Y-74686428D01*
X116242857Y-74686428D02*
X116242857Y-73186428D01*
X115099999Y-74257857D02*
X114385714Y-74257857D01*
X115242856Y-74686428D02*
X114742856Y-73186428D01*
X114742856Y-73186428D02*
X114242856Y-74686428D01*
X113742857Y-74686428D02*
X113742857Y-73186428D01*
X113742857Y-73186428D02*
X113242857Y-74257857D01*
X113242857Y-74257857D02*
X112742857Y-73186428D01*
X112742857Y-73186428D02*
X112742857Y-74686428D01*
X112099999Y-74257857D02*
X111385714Y-74257857D01*
X112242856Y-74686428D02*
X111742856Y-73186428D01*
X111742856Y-73186428D02*
X111242856Y-74686428D01*
X109671428Y-74615000D02*
X109457143Y-74686428D01*
X109457143Y-74686428D02*
X109100000Y-74686428D01*
X109100000Y-74686428D02*
X108957143Y-74615000D01*
X108957143Y-74615000D02*
X108885714Y-74543571D01*
X108885714Y-74543571D02*
X108814285Y-74400714D01*
X108814285Y-74400714D02*
X108814285Y-74257857D01*
X108814285Y-74257857D02*
X108885714Y-74115000D01*
X108885714Y-74115000D02*
X108957143Y-74043571D01*
X108957143Y-74043571D02*
X109100000Y-73972142D01*
X109100000Y-73972142D02*
X109385714Y-73900714D01*
X109385714Y-73900714D02*
X109528571Y-73829285D01*
X109528571Y-73829285D02*
X109600000Y-73757857D01*
X109600000Y-73757857D02*
X109671428Y-73615000D01*
X109671428Y-73615000D02*
X109671428Y-73472142D01*
X109671428Y-73472142D02*
X109600000Y-73329285D01*
X109600000Y-73329285D02*
X109528571Y-73257857D01*
X109528571Y-73257857D02*
X109385714Y-73186428D01*
X109385714Y-73186428D02*
X109028571Y-73186428D01*
X109028571Y-73186428D02*
X108814285Y-73257857D01*
X108171429Y-73186428D02*
X108171429Y-74400714D01*
X108171429Y-74400714D02*
X108100000Y-74543571D01*
X108100000Y-74543571D02*
X108028572Y-74615000D01*
X108028572Y-74615000D02*
X107885714Y-74686428D01*
X107885714Y-74686428D02*
X107600000Y-74686428D01*
X107600000Y-74686428D02*
X107457143Y-74615000D01*
X107457143Y-74615000D02*
X107385714Y-74543571D01*
X107385714Y-74543571D02*
X107314286Y-74400714D01*
X107314286Y-74400714D02*
X107314286Y-73186428D01*
X105885714Y-74686428D02*
X106600000Y-74686428D01*
X106600000Y-74686428D02*
X106600000Y-73186428D01*
X105457142Y-74257857D02*
X104742857Y-74257857D01*
X105599999Y-74686428D02*
X105099999Y-73186428D01*
X105099999Y-73186428D02*
X104599999Y-74686428D01*
X104100000Y-74686428D02*
X104100000Y-73186428D01*
X104100000Y-73186428D02*
X103600000Y-74257857D01*
X103600000Y-74257857D02*
X103100000Y-73186428D01*
X103100000Y-73186428D02*
X103100000Y-74686428D01*
X102457142Y-74257857D02*
X101742857Y-74257857D01*
X102599999Y-74686428D02*
X102099999Y-73186428D01*
X102099999Y-73186428D02*
X101599999Y-74686428D01*
X120742857Y-77116428D02*
X120742857Y-75616428D01*
X119885714Y-77116428D02*
X120528571Y-76259285D01*
X119885714Y-75616428D02*
X120742857Y-76473571D01*
X118957142Y-75616428D02*
X118671428Y-75616428D01*
X118671428Y-75616428D02*
X118528571Y-75687857D01*
X118528571Y-75687857D02*
X118385714Y-75830714D01*
X118385714Y-75830714D02*
X118314285Y-76116428D01*
X118314285Y-76116428D02*
X118314285Y-76616428D01*
X118314285Y-76616428D02*
X118385714Y-76902142D01*
X118385714Y-76902142D02*
X118528571Y-77045000D01*
X118528571Y-77045000D02*
X118671428Y-77116428D01*
X118671428Y-77116428D02*
X118957142Y-77116428D01*
X118957142Y-77116428D02*
X119100000Y-77045000D01*
X119100000Y-77045000D02*
X119242857Y-76902142D01*
X119242857Y-76902142D02*
X119314285Y-76616428D01*
X119314285Y-76616428D02*
X119314285Y-76116428D01*
X119314285Y-76116428D02*
X119242857Y-75830714D01*
X119242857Y-75830714D02*
X119100000Y-75687857D01*
X119100000Y-75687857D02*
X118957142Y-75616428D01*
X117671428Y-77116428D02*
X117671428Y-75616428D01*
X117671428Y-75616428D02*
X116814285Y-77116428D01*
X116814285Y-77116428D02*
X116814285Y-75616428D01*
X116314284Y-75616428D02*
X115457142Y-75616428D01*
X115885713Y-77116428D02*
X115885713Y-75616428D01*
X114099999Y-77116428D02*
X114599999Y-76402142D01*
X114957142Y-77116428D02*
X114957142Y-75616428D01*
X114957142Y-75616428D02*
X114385713Y-75616428D01*
X114385713Y-75616428D02*
X114242856Y-75687857D01*
X114242856Y-75687857D02*
X114171427Y-75759285D01*
X114171427Y-75759285D02*
X114099999Y-75902142D01*
X114099999Y-75902142D02*
X114099999Y-76116428D01*
X114099999Y-76116428D02*
X114171427Y-76259285D01*
X114171427Y-76259285D02*
X114242856Y-76330714D01*
X114242856Y-76330714D02*
X114385713Y-76402142D01*
X114385713Y-76402142D02*
X114957142Y-76402142D01*
X113171427Y-75616428D02*
X112885713Y-75616428D01*
X112885713Y-75616428D02*
X112742856Y-75687857D01*
X112742856Y-75687857D02*
X112599999Y-75830714D01*
X112599999Y-75830714D02*
X112528570Y-76116428D01*
X112528570Y-76116428D02*
X112528570Y-76616428D01*
X112528570Y-76616428D02*
X112599999Y-76902142D01*
X112599999Y-76902142D02*
X112742856Y-77045000D01*
X112742856Y-77045000D02*
X112885713Y-77116428D01*
X112885713Y-77116428D02*
X113171427Y-77116428D01*
X113171427Y-77116428D02*
X113314285Y-77045000D01*
X113314285Y-77045000D02*
X113457142Y-76902142D01*
X113457142Y-76902142D02*
X113528570Y-76616428D01*
X113528570Y-76616428D02*
X113528570Y-76116428D01*
X113528570Y-76116428D02*
X113457142Y-75830714D01*
X113457142Y-75830714D02*
X113314285Y-75687857D01*
X113314285Y-75687857D02*
X113171427Y-75616428D01*
X111171427Y-77116428D02*
X111885713Y-77116428D01*
X111885713Y-77116428D02*
X111885713Y-75616428D01*
X109742855Y-75616428D02*
X109242855Y-77116428D01*
X109242855Y-77116428D02*
X108742855Y-75616428D01*
X108242856Y-76330714D02*
X107742856Y-76330714D01*
X107528570Y-77116428D02*
X108242856Y-77116428D01*
X108242856Y-77116428D02*
X108242856Y-75616428D01*
X108242856Y-75616428D02*
X107528570Y-75616428D01*
X105742856Y-75616428D02*
X105742856Y-76830714D01*
X105742856Y-76830714D02*
X105671427Y-76973571D01*
X105671427Y-76973571D02*
X105599999Y-77045000D01*
X105599999Y-77045000D02*
X105457141Y-77116428D01*
X105457141Y-77116428D02*
X105171427Y-77116428D01*
X105171427Y-77116428D02*
X105028570Y-77045000D01*
X105028570Y-77045000D02*
X104957141Y-76973571D01*
X104957141Y-76973571D02*
X104885713Y-76830714D01*
X104885713Y-76830714D02*
X104885713Y-75616428D01*
X103885712Y-76402142D02*
X103885712Y-77116428D01*
X104385712Y-75616428D02*
X103885712Y-76402142D01*
X103885712Y-76402142D02*
X103385712Y-75616428D01*
X102957141Y-76687857D02*
X102242856Y-76687857D01*
X103099998Y-77116428D02*
X102599998Y-75616428D01*
X102599998Y-75616428D02*
X102099998Y-77116428D01*
X100742856Y-77116428D02*
X101242856Y-76402142D01*
X101599999Y-77116428D02*
X101599999Y-75616428D01*
X101599999Y-75616428D02*
X101028570Y-75616428D01*
X101028570Y-75616428D02*
X100885713Y-75687857D01*
X100885713Y-75687857D02*
X100814284Y-75759285D01*
X100814284Y-75759285D02*
X100742856Y-75902142D01*
X100742856Y-75902142D02*
X100742856Y-76116428D01*
X100742856Y-76116428D02*
X100814284Y-76259285D01*
X100814284Y-76259285D02*
X100885713Y-76330714D01*
X100885713Y-76330714D02*
X101028570Y-76402142D01*
X101028570Y-76402142D02*
X101599999Y-76402142D01*
X100099999Y-77116428D02*
X100099999Y-75616428D01*
X98242856Y-77116428D02*
X98242856Y-75616428D01*
X97385713Y-77116428D02*
X98028570Y-76259285D01*
X97385713Y-75616428D02*
X98242856Y-76473571D01*
X96814284Y-76687857D02*
X96099999Y-76687857D01*
X96957141Y-77116428D02*
X96457141Y-75616428D01*
X96457141Y-75616428D02*
X95957141Y-77116428D01*
X94599999Y-77116428D02*
X95099999Y-76402142D01*
X95457142Y-77116428D02*
X95457142Y-75616428D01*
X95457142Y-75616428D02*
X94885713Y-75616428D01*
X94885713Y-75616428D02*
X94742856Y-75687857D01*
X94742856Y-75687857D02*
X94671427Y-75759285D01*
X94671427Y-75759285D02*
X94599999Y-75902142D01*
X94599999Y-75902142D02*
X94599999Y-76116428D01*
X94599999Y-76116428D02*
X94671427Y-76259285D01*
X94671427Y-76259285D02*
X94742856Y-76330714D01*
X94742856Y-76330714D02*
X94885713Y-76402142D01*
X94885713Y-76402142D02*
X95457142Y-76402142D01*
X94171427Y-75616428D02*
X93314285Y-75616428D01*
X93742856Y-77116428D02*
X93742856Y-75616428D01*
X92814285Y-77116428D02*
X92814285Y-75616428D01*
X163957142Y-127626428D02*
X163100000Y-127626428D01*
X163528571Y-129126428D02*
X163528571Y-127626428D01*
X162671428Y-128697857D02*
X161957143Y-128697857D01*
X162814285Y-129126428D02*
X162314285Y-127626428D01*
X162314285Y-127626428D02*
X161814285Y-129126428D01*
X161385714Y-129055000D02*
X161171429Y-129126428D01*
X161171429Y-129126428D02*
X160814286Y-129126428D01*
X160814286Y-129126428D02*
X160671429Y-129055000D01*
X160671429Y-129055000D02*
X160600000Y-128983571D01*
X160600000Y-128983571D02*
X160528571Y-128840714D01*
X160528571Y-128840714D02*
X160528571Y-128697857D01*
X160528571Y-128697857D02*
X160600000Y-128555000D01*
X160600000Y-128555000D02*
X160671429Y-128483571D01*
X160671429Y-128483571D02*
X160814286Y-128412142D01*
X160814286Y-128412142D02*
X161100000Y-128340714D01*
X161100000Y-128340714D02*
X161242857Y-128269285D01*
X161242857Y-128269285D02*
X161314286Y-128197857D01*
X161314286Y-128197857D02*
X161385714Y-128055000D01*
X161385714Y-128055000D02*
X161385714Y-127912142D01*
X161385714Y-127912142D02*
X161314286Y-127769285D01*
X161314286Y-127769285D02*
X161242857Y-127697857D01*
X161242857Y-127697857D02*
X161100000Y-127626428D01*
X161100000Y-127626428D02*
X160742857Y-127626428D01*
X160742857Y-127626428D02*
X160528571Y-127697857D01*
X159957143Y-128697857D02*
X159242858Y-128697857D01*
X160100000Y-129126428D02*
X159600000Y-127626428D01*
X159600000Y-127626428D02*
X159100000Y-129126428D01*
X157742858Y-129126428D02*
X158242858Y-128412142D01*
X158600001Y-129126428D02*
X158600001Y-127626428D01*
X158600001Y-127626428D02*
X158028572Y-127626428D01*
X158028572Y-127626428D02*
X157885715Y-127697857D01*
X157885715Y-127697857D02*
X157814286Y-127769285D01*
X157814286Y-127769285D02*
X157742858Y-127912142D01*
X157742858Y-127912142D02*
X157742858Y-128126428D01*
X157742858Y-128126428D02*
X157814286Y-128269285D01*
X157814286Y-128269285D02*
X157885715Y-128340714D01*
X157885715Y-128340714D02*
X158028572Y-128412142D01*
X158028572Y-128412142D02*
X158600001Y-128412142D01*
X157100001Y-129126428D02*
X157100001Y-127626428D01*
X156385715Y-129126428D02*
X156385715Y-127626428D01*
X156385715Y-127626428D02*
X155885715Y-128697857D01*
X155885715Y-128697857D02*
X155385715Y-127626428D01*
X155385715Y-127626428D02*
X155385715Y-129126428D01*
X153528572Y-129126428D02*
X153528572Y-127626428D01*
X153528572Y-127626428D02*
X152957143Y-127626428D01*
X152957143Y-127626428D02*
X152814286Y-127697857D01*
X152814286Y-127697857D02*
X152742857Y-127769285D01*
X152742857Y-127769285D02*
X152671429Y-127912142D01*
X152671429Y-127912142D02*
X152671429Y-128126428D01*
X152671429Y-128126428D02*
X152742857Y-128269285D01*
X152742857Y-128269285D02*
X152814286Y-128340714D01*
X152814286Y-128340714D02*
X152957143Y-128412142D01*
X152957143Y-128412142D02*
X153528572Y-128412142D01*
X151171429Y-129126428D02*
X151671429Y-128412142D01*
X152028572Y-129126428D02*
X152028572Y-127626428D01*
X152028572Y-127626428D02*
X151457143Y-127626428D01*
X151457143Y-127626428D02*
X151314286Y-127697857D01*
X151314286Y-127697857D02*
X151242857Y-127769285D01*
X151242857Y-127769285D02*
X151171429Y-127912142D01*
X151171429Y-127912142D02*
X151171429Y-128126428D01*
X151171429Y-128126428D02*
X151242857Y-128269285D01*
X151242857Y-128269285D02*
X151314286Y-128340714D01*
X151314286Y-128340714D02*
X151457143Y-128412142D01*
X151457143Y-128412142D02*
X152028572Y-128412142D01*
X150242857Y-127626428D02*
X149957143Y-127626428D01*
X149957143Y-127626428D02*
X149814286Y-127697857D01*
X149814286Y-127697857D02*
X149671429Y-127840714D01*
X149671429Y-127840714D02*
X149600000Y-128126428D01*
X149600000Y-128126428D02*
X149600000Y-128626428D01*
X149600000Y-128626428D02*
X149671429Y-128912142D01*
X149671429Y-128912142D02*
X149814286Y-129055000D01*
X149814286Y-129055000D02*
X149957143Y-129126428D01*
X149957143Y-129126428D02*
X150242857Y-129126428D01*
X150242857Y-129126428D02*
X150385715Y-129055000D01*
X150385715Y-129055000D02*
X150528572Y-128912142D01*
X150528572Y-128912142D02*
X150600000Y-128626428D01*
X150600000Y-128626428D02*
X150600000Y-128126428D01*
X150600000Y-128126428D02*
X150528572Y-127840714D01*
X150528572Y-127840714D02*
X150385715Y-127697857D01*
X150385715Y-127697857D02*
X150242857Y-127626428D01*
X148528571Y-127626428D02*
X148528571Y-128697857D01*
X148528571Y-128697857D02*
X148600000Y-128912142D01*
X148600000Y-128912142D02*
X148742857Y-129055000D01*
X148742857Y-129055000D02*
X148957143Y-129126428D01*
X148957143Y-129126428D02*
X149100000Y-129126428D01*
X147814286Y-128340714D02*
X147314286Y-128340714D01*
X147100000Y-129126428D02*
X147814286Y-129126428D01*
X147814286Y-129126428D02*
X147814286Y-127626428D01*
X147814286Y-127626428D02*
X147100000Y-127626428D01*
X146528571Y-129055000D02*
X146314286Y-129126428D01*
X146314286Y-129126428D02*
X145957143Y-129126428D01*
X145957143Y-129126428D02*
X145814286Y-129055000D01*
X145814286Y-129055000D02*
X145742857Y-128983571D01*
X145742857Y-128983571D02*
X145671428Y-128840714D01*
X145671428Y-128840714D02*
X145671428Y-128697857D01*
X145671428Y-128697857D02*
X145742857Y-128555000D01*
X145742857Y-128555000D02*
X145814286Y-128483571D01*
X145814286Y-128483571D02*
X145957143Y-128412142D01*
X145957143Y-128412142D02*
X146242857Y-128340714D01*
X146242857Y-128340714D02*
X146385714Y-128269285D01*
X146385714Y-128269285D02*
X146457143Y-128197857D01*
X146457143Y-128197857D02*
X146528571Y-128055000D01*
X146528571Y-128055000D02*
X146528571Y-127912142D01*
X146528571Y-127912142D02*
X146457143Y-127769285D01*
X146457143Y-127769285D02*
X146385714Y-127697857D01*
X146385714Y-127697857D02*
X146242857Y-127626428D01*
X146242857Y-127626428D02*
X145885714Y-127626428D01*
X145885714Y-127626428D02*
X145671428Y-127697857D01*
X145028572Y-129126428D02*
X145028572Y-127626428D01*
X145028572Y-127126428D02*
X145100000Y-127197857D01*
X145100000Y-127197857D02*
X145028572Y-127269285D01*
X145028572Y-127269285D02*
X144957143Y-127197857D01*
X144957143Y-127197857D02*
X145028572Y-127126428D01*
X145028572Y-127126428D02*
X145028572Y-127269285D01*
X160028571Y-133272142D02*
X160028571Y-133986428D01*
X160528571Y-132486428D02*
X160028571Y-133272142D01*
X160028571Y-133272142D02*
X159528571Y-132486428D01*
X159100000Y-133557857D02*
X158385715Y-133557857D01*
X159242857Y-133986428D02*
X158742857Y-132486428D01*
X158742857Y-132486428D02*
X158242857Y-133986428D01*
X156885715Y-133986428D02*
X157385715Y-133272142D01*
X157742858Y-133986428D02*
X157742858Y-132486428D01*
X157742858Y-132486428D02*
X157171429Y-132486428D01*
X157171429Y-132486428D02*
X157028572Y-132557857D01*
X157028572Y-132557857D02*
X156957143Y-132629285D01*
X156957143Y-132629285D02*
X156885715Y-132772142D01*
X156885715Y-132772142D02*
X156885715Y-132986428D01*
X156885715Y-132986428D02*
X156957143Y-133129285D01*
X156957143Y-133129285D02*
X157028572Y-133200714D01*
X157028572Y-133200714D02*
X157171429Y-133272142D01*
X157171429Y-133272142D02*
X157742858Y-133272142D01*
X156242858Y-133200714D02*
X155742858Y-133200714D01*
X155528572Y-133986428D02*
X156242858Y-133986428D01*
X156242858Y-133986428D02*
X156242858Y-132486428D01*
X156242858Y-132486428D02*
X155528572Y-132486428D01*
X154885715Y-133986428D02*
X154885715Y-132486428D01*
X154885715Y-132486428D02*
X154028572Y-133986428D01*
X154028572Y-133986428D02*
X154028572Y-132486428D01*
X151314286Y-133843571D02*
X151385714Y-133915000D01*
X151385714Y-133915000D02*
X151600000Y-133986428D01*
X151600000Y-133986428D02*
X151742857Y-133986428D01*
X151742857Y-133986428D02*
X151957143Y-133915000D01*
X151957143Y-133915000D02*
X152100000Y-133772142D01*
X152100000Y-133772142D02*
X152171429Y-133629285D01*
X152171429Y-133629285D02*
X152242857Y-133343571D01*
X152242857Y-133343571D02*
X152242857Y-133129285D01*
X152242857Y-133129285D02*
X152171429Y-132843571D01*
X152171429Y-132843571D02*
X152100000Y-132700714D01*
X152100000Y-132700714D02*
X151957143Y-132557857D01*
X151957143Y-132557857D02*
X151742857Y-132486428D01*
X151742857Y-132486428D02*
X151600000Y-132486428D01*
X151600000Y-132486428D02*
X151385714Y-132557857D01*
X151385714Y-132557857D02*
X151314286Y-132629285D01*
X150742857Y-133557857D02*
X150028572Y-133557857D01*
X150885714Y-133986428D02*
X150385714Y-132486428D01*
X150385714Y-132486428D02*
X149885714Y-133986428D01*
X149385715Y-133986428D02*
X149385715Y-132486428D01*
X149385715Y-132486428D02*
X148885715Y-133557857D01*
X148885715Y-133557857D02*
X148385715Y-132486428D01*
X148385715Y-132486428D02*
X148385715Y-133986428D01*
X163742857Y-135630714D02*
X163242857Y-135630714D01*
X163028571Y-136416428D02*
X163742857Y-136416428D01*
X163742857Y-136416428D02*
X163742857Y-134916428D01*
X163742857Y-134916428D02*
X163028571Y-134916428D01*
X161671428Y-136416428D02*
X162385714Y-136416428D01*
X162385714Y-136416428D02*
X162385714Y-134916428D01*
X161171428Y-136416428D02*
X161171428Y-134916428D01*
X159957142Y-135630714D02*
X160457142Y-135630714D01*
X160457142Y-136416428D02*
X160457142Y-134916428D01*
X160457142Y-134916428D02*
X159742856Y-134916428D01*
X158099999Y-135987857D02*
X157385714Y-135987857D01*
X158242856Y-136416428D02*
X157742856Y-134916428D01*
X157742856Y-134916428D02*
X157242856Y-136416428D01*
X156028571Y-136416428D02*
X156742857Y-136416428D01*
X156742857Y-136416428D02*
X156742857Y-134916428D01*
X155742856Y-134916428D02*
X154885714Y-134916428D01*
X155314285Y-136416428D02*
X155314285Y-134916428D01*
X154385714Y-136416428D02*
X154385714Y-134916428D01*
X153671428Y-136416428D02*
X153671428Y-134916428D01*
X153671428Y-134916428D02*
X153099999Y-134916428D01*
X153099999Y-134916428D02*
X152957142Y-134987857D01*
X152957142Y-134987857D02*
X152885713Y-135059285D01*
X152885713Y-135059285D02*
X152814285Y-135202142D01*
X152814285Y-135202142D02*
X152814285Y-135416428D01*
X152814285Y-135416428D02*
X152885713Y-135559285D01*
X152885713Y-135559285D02*
X152957142Y-135630714D01*
X152957142Y-135630714D02*
X153099999Y-135702142D01*
X153099999Y-135702142D02*
X153671428Y-135702142D01*
X152242856Y-135987857D02*
X151528571Y-135987857D01*
X152385713Y-136416428D02*
X151885713Y-134916428D01*
X151885713Y-134916428D02*
X151385713Y-136416428D01*
X150028571Y-136416428D02*
X150528571Y-135702142D01*
X150885714Y-136416428D02*
X150885714Y-134916428D01*
X150885714Y-134916428D02*
X150314285Y-134916428D01*
X150314285Y-134916428D02*
X150171428Y-134987857D01*
X150171428Y-134987857D02*
X150099999Y-135059285D01*
X150099999Y-135059285D02*
X150028571Y-135202142D01*
X150028571Y-135202142D02*
X150028571Y-135416428D01*
X150028571Y-135416428D02*
X150099999Y-135559285D01*
X150099999Y-135559285D02*
X150171428Y-135630714D01*
X150171428Y-135630714D02*
X150314285Y-135702142D01*
X150314285Y-135702142D02*
X150885714Y-135702142D01*
X149385714Y-136416428D02*
X149385714Y-134916428D01*
X149385714Y-134916428D02*
X148885714Y-135987857D01*
X148885714Y-135987857D02*
X148385714Y-134916428D01*
X148385714Y-134916428D02*
X148385714Y-136416428D01*
X147742856Y-135987857D02*
X147028571Y-135987857D01*
X147885713Y-136416428D02*
X147385713Y-134916428D01*
X147385713Y-134916428D02*
X146885713Y-136416428D01*
X146385714Y-136416428D02*
X146385714Y-134916428D01*
X145528571Y-136416428D02*
X146171428Y-135559285D01*
X145528571Y-134916428D02*
X146385714Y-135773571D01*
M02*
